<?xml version="1.0" standalone="no"?>
<!DOCTYPE svg PUBLIC "-//W3C//DTD SVG 1.1//EN" "http://www.w3.org/Graphics/SVG/1.1/DTD/svg11.dtd" >
<svg xmlns="http://www.w3.org/2000/svg">
<metadata>Generated by IcoMoon</metadata>
<defs>
<font id="icomoon" horiz-adv-x="1024">
<font-face units-per-em="1024" ascent="960" descent="-64" />
<missing-glyph horiz-adv-x="1024" />
<glyph unicode="&#x20;" horiz-adv-x="512" d="" />
<glyph unicode="&#xe900;" glyph-name="clock, time, schedule" d="M512-64c282.304 0 512 229.696 512 512s-229.696 512-512 512-512-229.696-512-512 229.696-512 512-512zM512 928c264.672 0 480-215.328 480-480s-215.328-480-480-480-480 215.328-480 480 215.328 480 480 480zM641.952 263.424c3.136-3.136 7.232-4.672 11.328-4.672s8.192 1.568 11.328 4.672c6.24 6.24 6.24 16.384 0 22.624l-152.608 152.576v223.168c0 8.832-7.168 16-16 16s-16-7.168-16-16v-229.792c0-4.256 1.696-8.32 4.672-11.328l157.28-157.248zM96 448c0-17.673 14.327-32 32-32s32 14.327 32 32c0 17.673-14.327 32-32 32s-32-14.327-32-32zM864 448c0-17.673 14.327-32 32-32s32 14.327 32 32c0 17.673-14.327 32-32 32s-32-14.327-32-32zM480 832c0-17.673 14.327-32 32-32s32 14.327 32 32c0 17.673-14.327 32-32 32s-32-14.327-32-32zM480 64c0-17.673 14.327-32 32-32s32 14.327 32 32c0 17.673-14.327 32-32 32s-32-14.327-32-32zM224 704c0-17.673 14.327-32 32-32s32 14.327 32 32c0 17.673-14.327 32-32 32s-32-14.327-32-32zM736 192c0-17.673 14.327-32 32-32s32 14.327 32 32c0 17.673-14.327 32-32 32s-32-14.327-32-32zM768 704c0-17.673 14.327-32 32-32s32 14.327 32 32c0 17.673-14.327 32-32 32s-32-14.327-32-32zM224 192c0-17.673 14.327-32 32-32s32 14.327 32 32c0 17.673-14.327 32-32 32s-32-14.327-32-32z" />
<glyph unicode="&#xe901;" glyph-name="gun-pointer" d="M982.204 489.789h-110.175c-20.212 164.612-152.24 295.369-318.222 314.962v113.454c-0.002 23.087-18.727 41.796-41.798 41.796-23.089 0-41.796-18.708-41.796-41.796v-113.069c-167.37-18.39-300.818-149.75-321.165-315.33h-107.253c-23.087 0-41.796-18.708-41.796-41.796s18.708-41.796 41.796-41.796h106.683c18.49-167.654 152.876-301.169 321.733-319.728v-108.688c0-23.089 18.708-41.796 41.796-41.796 23.071 0 41.796 18.708 41.796 41.796v109.056c167.454 19.761 300.4 152.658 318.792 319.343h109.608c23.089 0 41.796 18.708 41.796 41.796s-18.706 41.796-41.794 41.796zM553.805 171.449v137.861c0 23.089-18.725 41.796-41.796 41.796-23.089 0-41.796-18.708-41.796-41.796v-138.297c-122.598 17.587-219.567 113.738-237.171 235.182h140.286c23.089 0 41.796 18.708 41.796 41.796s-18.708 41.796-41.796 41.796h-139.618c19.293 119.388 115.391 213.413 236.502 230.801v-133.917c0-23.089 18.708-41.796 41.796-41.796 23.071 0 41.796 18.708 41.796 41.796v133.483c119.723-18.474 214.417-111.932 233.559-230.367h-136.691c-23.089 0-41.796-18.708-41.796-41.796s18.708-41.796 41.796-41.796h137.378c-17.489-120.492-113.036-216.039-234.246-234.746z" />
<glyph unicode="&#xe902;" glyph-name="if_multimedia-14_2849822" d="M728 60c-0.002 0-0.005 0-0.007 0-8.984 0-17.046 3.949-22.544 10.206l-0.029 0.034-158.42 181.080h-309.72c-71.215 0.091-128.92 57.803-129 129.012v354.648c0.080 71.217 57.785 128.929 128.991 129.020h546.009c71.215-0.091 128.92-57.803 129-129.012v-354.648c-0.080-71.217-57.785-128.929-128.991-129.020h-25.289v-161.32c0-16.569-13.431-30-30-30v0zM237.28 804c-38.092-0.057-68.955-30.927-69-69.016v-354.644c0.045-38.093 30.908-68.963 68.995-69.020h323.325c0.002 0 0.005 0 0.007 0 8.984 0 17.046-3.949 22.544-10.206l0.029-0.034 114.82-131.26v111.5c0 16.569 13.431 30 30 30v0h55.18c38.092 0.057 68.955 30.927 69 69.016v354.644c-0.045 38.065-30.863 68.918-68.91 69.020h-0.010zM399.26 432c-8.295 0.015-15.805 3.366-21.262 8.782l0.002-0.002c-0.68 0.7-1.34 1.44-2 2.2-0.569 0.689-1.141 1.458-1.674 2.256l-0.066 0.104q-0.82 1.22-1.5 2.52c-0.46 0.86-0.88 1.76-1.26 2.66s-0.7 1.84-1 2.76-0.52 2-0.72 2.86-0.34 2-0.44 2.9c-0.089 0.859-0.14 1.855-0.14 2.863 0 0.034 0 0.068 0 0.102v-0.005c0 0.032 0 0.070 0 0.109 0 0.997 0.051 1.982 0.15 2.953l-0.010-0.122c0.1 0.98 0.26 2 0.44 2.92s0.44 2 0.72 2.84 0.62 1.88 1 2.78 0.8 1.78 1.26 2.64c0.533 1.013 1.030 1.844 1.567 2.646l-0.067-0.106c0.54 0.8 1.12 1.6 1.74 2.36s1.3 1.5 2 2.2c5.473 5.423 13.007 8.773 21.323 8.773 0.999 0 1.986-0.048 2.96-0.143l-0.124 0.010c0.98-0.1 2-0.26 2.92-0.44s2-0.44 2.84-0.72 1.88-0.62 2.78-1 1.78-0.8 2.64-1.26 1.72-0.96 2.54-1.5 1.6-1.12 2.36-1.74 1.5-1.3 2.18-2 1.36-1.44 2-2.2 1.2-1.56 1.74-2.36c0.47-0.696 0.967-1.527 1.423-2.383l0.077-0.157q0.7-1.3 1.26-2.64c0.38-0.9 0.7-1.84 1-2.78s0.52-1.88 0.72-2.84 0.34-2 0.44-2.92 0.14-2 0.14-2.94 0-2-0.14-2.96-0.26-2-0.44-2.9-0.44-2-0.72-2.86-0.62-1.86-1-2.76-0.8-1.8-1.26-2.66-0.96-1.7-1.5-2.52-1.14-1.6-1.74-2.36-1.3-1.5-2-2.2-1.42-1.36-2.18-2-1.56-1.2-2.36-1.74-1.68-1.040-2.54-1.5-1.74-0.88-2.64-1.26-1.84-0.7-2.78-1-1.88-0.52-2.84-0.72-2-0.34-2.92-0.44-1.92-0.1-2.9-0.1zM621.28 432c-0.98 0-2 0-2.94 0.14s-2 0.26-2.92 0.44-2 0.44-2.86 0.72-1.86 0.62-2.76 1-1.78 0.8-2.64 1.26c-1.013 0.533-1.844 1.030-2.646 1.567l0.106-0.067c-0.8 0.54-1.6 1.12-2.36 1.74s-1.5 1.3-2.2 2-1.36 1.44-2 2.2-1.2 1.56-1.74 2.36c-0.47 0.696-0.967 1.527-1.423 2.383l-0.077 0.157q-0.7 1.3-1.26 2.64c-0.38 0.9-0.7 1.84-1 2.76s-0.52 2-0.72 2.86-0.34 2-0.44 2.9-0.14 2-0.14 2.96 0 2 0.14 2.96 0.26 2 0.44 2.9 0.44 2 0.72 2.86 0.62 1.86 1 2.76 0.8 1.8 1.26 2.66 0.96 1.7 1.5 2.52c0.599 0.902 1.171 1.671 1.779 2.409l-0.039-0.049c0.62 0.76 1.3 1.5 2 2.2s1.44 1.36 2.2 2 1.56 1.2 2.36 1.74c0.696 0.47 1.527 0.967 2.383 1.423l0.157 0.077q1.3 0.68 2.64 1.26c0.9 0.38 1.84 0.7 2.76 1s2 0.52 2.86 0.72 2 0.34 2.92 0.44c0.884 0.086 1.911 0.135 2.95 0.135s2.066-0.049 3.079-0.145l-0.129 0.010c0.96-0.1 2-0.26 2.9-0.44s2-0.44 2.86-0.72 1.86-0.62 2.76-1 1.78-0.8 2.64-1.26c1.013-0.533 1.844-1.030 2.646-1.567l-0.106 0.067c0.8-0.54 1.6-1.12 2.36-1.74s1.5-1.3 2.2-2 1.36-1.44 2-2.2c0.569-0.689 1.141-1.458 1.674-2.256l0.066-0.104q0.8-1.24 1.5-2.52c0.46-0.86 0.88-1.76 1.26-2.66s0.7-1.84 1-2.76 0.52-2 0.72-2.86 0.34-2 0.44-2.9c0.092-0.899 0.144-1.944 0.144-3s-0.052-2.101-0.154-3.13l0.010 0.13c-0.1-0.96-0.26-2-0.44-2.9s-0.44-2-0.72-2.86-0.62-1.86-1-2.76-0.8-1.78-1.26-2.64c-0.533-1.013-1.030-1.844-1.567-2.646l0.067 0.106c-0.54-0.8-1.12-1.6-1.74-2.36s-1.3-1.5-2-2.2-1.44-1.36-2.2-2-1.56-1.2-2.36-1.74c-0.696-0.47-1.527-0.967-2.383-1.423l-0.157-0.077q-1.3-0.68-2.64-1.26c-0.9-0.38-1.84-0.7-2.76-1s-1.9-0.52-2.86-0.72-2-0.34-2.9-0.44-1.98-0.060-2.96-0.060zM510.26 432c-0.025 0-0.054 0-0.083 0-1.006 0-2 0.051-2.98 0.15l0.123-0.010c-0.98 0.1-2 0.26-2.92 0.44s-1.9 0.44-2.84 0.72-1.86 0.62-2.76 1-1.8 0.8-2.66 1.26c-1.864 1.002-3.468 2.077-4.958 3.285l0.058-0.045c-0.76 0.62-1.5 1.3-2.18 2-0.689 0.685-1.343 1.402-1.96 2.15l-0.040 0.050c-0.62 0.76-1.22 1.56-1.76 2.36-0.47 0.696-0.967 1.527-1.423 2.383l-0.077 0.157q-0.68 1.3-1.26 2.64c-0.36 0.9-0.7 1.84-0.98 2.78-0.246 0.742-0.495 1.695-0.691 2.668l-0.029 0.172c-0.369 1.733-0.58 3.724-0.58 5.764 0 0.034 0 0.068 0 0.102v-0.005c0 0.029 0 0.063 0 0.097 0 1.008 0.051 2.005 0.15 2.987l-0.010-0.124c0.114 1.129 0.269 2.118 0.473 3.089l-0.033-0.189c0.23 1.162 0.479 2.122 0.775 3.062l-0.055-0.202c0.28 0.92 0.62 1.86 0.98 2.76s0.8 1.78 1.26 2.64c0.533 1.013 1.030 1.844 1.567 2.646l-0.067-0.106c0.54 0.8 1.14 1.6 1.76 2.36 0.657 0.798 1.311 1.515 1.999 2.199l0.001 0.001c0.68 0.68 1.42 1.36 2.18 2 1.432 1.163 3.036 2.238 4.735 3.158l0.165 0.082c0.86 0.46 1.76 0.88 2.66 1.26s1.82 0.7 2.76 1 1.9 0.52 2.84 0.72 2 0.34 2.92 0.44c0.899 0.089 1.944 0.14 3 0.14s2.101-0.051 3.131-0.15l-0.131 0.010c0.98-0.1 2-0.26 2.9-0.44s2-0.44 2.86-0.72 1.86-0.62 2.76-1 1.8-0.8 2.66-1.26 1.7-0.96 2.52-1.5c0.911-0.6 1.687-1.173 2.432-1.781l-0.052 0.041c0.76-0.62 1.5-1.3 2.18-2 0.689-0.685 1.343-1.402 1.96-2.15l0.040-0.050c0.62-0.76 1.2-1.56 1.76-2.36 0.47-0.696 0.967-1.527 1.423-2.383l0.077-0.157c0.391-0.703 0.807-1.572 1.176-2.465l0.064-0.175c0.313-0.707 0.653-1.622 0.946-2.558l0.054-0.202c0.28-0.94 0.52-2 0.72-2.86 0.171-0.782 0.326-1.771 0.43-2.776l0.010-0.124c0.089-0.859 0.14-1.855 0.14-2.863 0-0.034 0-0.068 0-0.102v0.005c0-0.029 0-0.062 0-0.096 0-2.040-0.211-4.031-0.613-5.952l0.033 0.188c-0.2-0.96-0.44-2-0.72-2.84-0.34-1.136-0.68-2.058-1.067-2.956l0.067 0.176c-0.433-1.068-0.849-1.937-1.309-2.777l0.069 0.137c-0.46-0.86-0.96-1.72-1.5-2.54s-1.14-1.6-1.76-2.36c-0.657-0.798-1.311-1.515-1.999-2.199l-0.001-0.001c-0.68-0.68-1.42-1.36-2.18-2-0.693-0.567-1.469-1.14-2.273-1.673l-0.107-0.067q-1.22-0.8-2.52-1.5c-0.86-0.46-1.76-0.88-2.66-1.26s-1.82-0.7-2.76-1-1.9-0.52-2.86-0.72-2-0.34-2.9-0.44c-0.86-0.090-1.858-0.141-2.868-0.141-0.067 0-0.135 0-0.202 0.001h0.010z" />
<glyph unicode="&#xe903;" glyph-name="if_multimedia-50_2849786" d="M709.34 60h-214c-16.497 0.094-29.834 13.489-29.834 30 0 7.072 2.447 13.572 6.54 18.701l-0.047-0.060c8.998 11.227 14.441 25.642 14.441 41.328 0 0.103 0 0.205-0.001 0.308v-0.016c-0.652 36.601-30.475 66.021-67.17 66.021s-66.518-29.42-67.169-65.96l-0.001-0.061c0-0.087-0.001-0.189-0.001-0.292 0-15.686 5.443-30.101 14.542-41.459l-0.102 0.131c4.047-5.068 6.494-11.568 6.494-18.64 0-16.569-13.431-30-30-30-0.026 0-0.052 0-0.078 0h-213.996c-16.569 0-30 13.431-30 30v0 275.88c0 16.569 13.431 30 30 30 6.788 0 13.049-2.254 18.075-6.055l-0.075 0.055c11.099-8.415 25.141-13.48 40.367-13.48 37.102 0 67.18 30.078 67.18 67.18s-30.078 67.18-67.18 67.18c-15.225 0-29.268-5.065-40.534-13.602l0.168 0.122c-4.951-3.746-11.212-6-18-6-16.569 0-30 13.431-30 30v0 149c0 16.569 13.431 30 30 30v0h168.32c-3.395 10.924-5.35 23.483-5.35 36.499 0 70.24 56.94 127.18 127.18 127.18s127.18-56.94 127.18-127.18c0-13.016-1.955-25.576-5.588-37.401l0.238 0.901h168.32c16.569 0 30-13.431 30-30v0-104.38c10.392 3.060 22.331 4.82 34.681 4.82 70.24 0 127.18-56.94 127.18-127.18s-56.94-127.18-127.18-127.18c-12.35 0-24.289 1.76-35.58 5.044l0.899-0.224v-231.18c0 0 0 0 0 0 0-16.54-13.386-29.954-29.916-30h-0.004zM542.7 120h136.64v251.040c0 16.568 13.432 29.999 30 29.999 7.697 0 14.717-2.899 20.028-7.664l-0.028 0.025c11.82-10.575 27.511-17.040 44.712-17.040 37.102 0 67.18 30.078 67.18 67.18s-30.078 67.18-67.18 67.18c-17.201 0-32.892-6.465-44.776-17.097l0.065 0.057c-5.283-4.741-12.303-7.639-20-7.639-16.568 0-30 13.431-30 29.999v0 124.24h-189.34c-16.566 0.003-29.994 13.433-29.994 30 0 7.955 3.096 15.186 8.149 20.555l-0.014-0.015c11.315 11.996 18.27 28.213 18.27 46.054 0 37.102-30.078 67.18-67.18 67.18s-67.18-30.078-67.18-67.18c0-17.841 6.955-34.058 18.301-46.087l-0.031 0.033c5.038-5.354 8.134-12.585 8.134-20.54 0-16.567-13.428-29.997-29.994-30h-189.42v-72.72c8.524 2.009 18.311 3.16 28.367 3.16 0.012 0 0.024 0 0.035 0h-0.002c70.18-0.079 127.042-56.989 127.042-127.18 0-70.24-56.94-127.18-127.18-127.18-10.020 0-19.77 1.159-29.122 3.35l0.861-0.17v-199.54h136.64c-2.332 9.108-3.67 19.564-3.67 30.332 0 70.24 56.94 127.18 127.18 127.18s127.18-56.94 127.18-127.18c0-10.768-1.338-21.224-3.858-31.21l0.188 0.878z" />
<glyph unicode="&#xe904;" glyph-name="Ellipse_1" d="M512 960c282.77 0 512-229.23 512-512s-229.23-512-512-512v0c-282.77 0-512 229.23-512 512s229.23 512 512 512v0z" />
<glyph unicode="&#xe905;" glyph-name="Ellipse_2" d="M795.307 857.6c137.15-89.801 226.492-242.73 226.492-416.525 0-274.069-222.177-496.246-496.246-496.246-114.319 0-219.609 38.656-303.513 103.609l1.14-0.848c-121.386 91.479-199.042 235.373-199.042 397.404 0 274.069 222.177 496.246 496.246 496.246 102.448 0 197.645-31.044 276.697-84.239l-1.774 1.125z" />
<glyph unicode="&#xe906;" glyph-name="Header_Bg_circle" d="M512 960c282.77 0 512-229.23 512-512s-229.23-512-512-512-512 229.23-512 512 229.23 512 512 512z" />
<glyph unicode="&#xe907;" glyph-name="Shape_1" d="M1024 194.491l-0.138-3.459-204.8-1.107v3.321c-1.522 172.143-140.316 310.936-309.968 309.968-169.79-0.969-305.955-141.284-304.432-313.427l0.138-3.459-204.8-1.107v3.321c-2.768 286.997 224.45 520.718 507.157 522.378s514.076-229.57 516.705-516.428zM0 185.219l204.8 1.107zM819.2 189.924l204.662 1.107z" />
<glyph unicode="&#xe908;" glyph-name="Shape_2" d="M168.8 116.16c-105.423 106.765-170.539 253.547-170.539 415.537 0 165.641 68.084 315.381 177.794 422.761l0.105 0.103c0.96 1.12 1.76 1.92 2.88 2.72l166.72-168.8-2.88-2.72c-65.868-64.481-106.704-154.307-106.704-253.67 0-97.22 39.094-185.31 102.419-249.405l-0.035 0.035c64.833-65.448 154.728-105.971 254.087-105.971 97.606 0 186.078 39.105 250.605 102.502l-0.052-0.051 2.72 2.72 166.72-168.8c-0.8-1.12-1.76-1.92-2.72-2.88-107.475-105.539-254.922-170.686-417.586-170.686-165.615 0-315.456 67.532-423.49 176.561l-0.044 0.044zM845.92 281.92l166.72-168.8z" />
<glyph unicode="&#xe909;" glyph-name="Shape_3" d="M846.4 782.24c104.787-107.946 169.39-255.404 169.39-417.951 0-166.231-67.564-316.681-176.729-425.387l-0.021-0.021-2.88-2.72-165.76 169.92 2.88 2.56c65.557 65.239 106.127 155.536 106.127 255.309 0 97.531-38.767 186.007-101.732 250.86l0.085-0.088c-64.079 65.818-153.539 106.648-252.536 106.648-97.179 0-185.168-39.344-248.908-102.973l0.005 0.005-2.72-2.88-165.76 169.92 2.72 2.88c106.225 106.039 252.874 171.613 414.839 171.613 164.969 0 314.049-68.029 420.717-177.564l0.125-0.129zM670.4 105.92l165.76-169.76zM173.44 615.68l-165.6 169.76z" />
<glyph unicode="&#xe90a;" glyph-name="percent" d="M840.533 755.2c-17.067 17.067-42.667 17.067-59.733 0l-597.333-597.333c-17.067-17.067-17.067-42.667 0-59.733 8.533-8.533 17.067-12.8 29.867-12.8s21.333 4.267 29.867 12.8l597.333 597.333c17.067 17.067 17.067 42.667 0 59.733zM277.333 512c81.067 0 149.333 68.267 149.333 149.333s-68.267 149.333-149.333 149.333-149.333-68.267-149.333-149.333 68.267-149.333 149.333-149.333zM277.333 725.334c34.133 0 64-29.867 64-64s-29.867-64-64-64-64 29.867-64 64 29.867 64 64 64zM746.667 341.334c-81.067 0-149.333-68.267-149.333-149.333s68.267-149.333 149.333-149.333 149.333 68.267 149.333 149.333-68.267 149.333-149.333 149.333zM746.667 128c-34.133 0-64 29.867-64 64s29.867 64 64 64 64-29.867 64-64-29.867-64-64-64z" />
<glyph unicode="&#xe90b;" glyph-name="skype" horiz-adv-x="878" d="M670.286 343.428c0 99.429-96.571 133.714-177.714 152l-59.429 13.714c-43.429 10.286-76 17.714-76 50.857 0 30.286 32 44 82.286 44 89.714 0 91.429-65.714 146.857-65.714 37.143 0 59.429 29.143 59.429 62.286 0 65.714-109.143 108.571-217.143 108.571-98.857 0-213.714-42.857-213.714-158.857 0-96 64-130.286 147.429-150.286l83.429-20.571c50.857-12.571 82.286-18.286 82.286-54.857 0-29.143-32.571-51.429-82.857-51.429-105.714 0-111.429 88-172.571 88-40 0-57.714-28.571-57.714-60 0-70.286 107.429-127.429 236-127.429 107.429 0 219.429 53.714 219.429 169.714zM877.714 219.428c0-121.143-98.286-219.429-219.429-219.429-50.286 0-96.571 17.143-133.714 45.714-27.429-5.714-56.571-9.143-85.714-9.143-222.286 0-402.286 180-402.286 402.286 0 29.143 3.429 58.286 9.143 85.714-28.571 37.143-45.714 83.429-45.714 133.714 0 121.143 98.286 219.429 219.429 219.429 50.286 0 96.571-17.143 133.714-45.714 27.429 5.714 56.571 9.143 85.714 9.143 222.286 0 402.286-180 402.286-402.286 0-29.143-3.429-58.286-9.143-85.714 28.571-37.143 45.714-83.429 45.714-133.714z" />
<glyph unicode="&#xe90c;" glyph-name="telegram" d="M679.429 204l84 396c7.429 34.857-12.571 48.571-35.429 40l-493.714-190.286c-33.714-13.143-33.143-32-5.714-40.571l126.286-39.429 293.143 184.571c13.714 9.143 26.286 4 16-5.143l-237.143-214.286-9.143-130.286c13.143 0 18.857 5.714 25.714 12.571l61.714 59.429 128-94.286c23.429-13.143 40-6.286 46.286 21.714zM1024 438.857c0-282.857-229.143-512-512-512s-512 229.143-512 512 229.143 512 512 512 512-229.143 512-512z" />
<glyph unicode="&#xe90d;" glyph-name="mail" d="M853.333 810.667h-682.667c-72.533 0-128-55.467-128-128v-512c0-72.533 55.467-128 128-128h682.667c72.533 0 128 55.467 128 128v512c0 72.533-55.467 128-128 128zM170.667 725.334h682.667c17.067 0 29.867-8.533 38.4-25.6l-379.733-264.533-379.733 264.533c8.533 17.067 21.333 25.6 38.4 25.6zM853.333 128h-682.667c-25.6 0-42.667 17.067-42.667 42.667v430.933l358.4-251.733c8.533-4.267 17.067-8.533 25.6-8.533s17.067 4.267 25.6 8.533l358.4 251.733v-430.933c0-25.6-17.067-42.667-42.667-42.667z" />
<glyph unicode="&#xe922;" glyph-name="file-text" d="M864 960h-768c-52.8 0-96-43.2-96-96v-832c0-52.8 43.2-96 96-96h768c52.8 0 96 43.2 96 96v832c0 52.8-43.2 96-96 96zM832 64h-704v768h704v-768zM256 512h448v-64h-448zM256 384h448v-64h-448zM256 256h448v-64h-448zM256 640h448v-64h-448z" />
<glyph unicode="&#xe953;" glyph-name="calendar" d="M320 576h128v-128h-128zM512 576h128v-128h-128zM704 576h128v-128h-128zM128 192h128v-128h-128zM320 192h128v-128h-128zM512 192h128v-128h-128zM320 384h128v-128h-128zM512 384h128v-128h-128zM704 384h128v-128h-128zM128 384h128v-128h-128zM832 960v-64h-128v64h-448v-64h-128v64h-128v-1024h960v1024h-128zM896 0h-832v704h832v-704z" />
<glyph unicode="&#xe958;" glyph-name="mobile" d="M736 960h-448c-52.8 0-96-43.2-96-96v-832c0-52.8 43.2-96 96-96h448c52.8 0 96 43.2 96 96v832c0 52.8-43.2 96-96 96zM384 912h256v-32h-256v32zM512 0c-35.346 0-64 28.654-64 64s28.654 64 64 64 64-28.654 64-64-28.654-64-64-64zM768 192h-512v640h512v-640z" />
<glyph unicode="&#xe994;" glyph-name="cog" d="M933.79 349.75c-53.726 93.054-21.416 212.304 72.152 266.488l-100.626 174.292c-28.75-16.854-62.176-26.518-97.846-26.518-107.536 0-194.708 87.746-194.708 195.99h-201.258c0.266-33.41-8.074-67.282-25.958-98.252-53.724-93.056-173.156-124.702-266.862-70.758l-100.624-174.292c28.97-16.472 54.050-40.588 71.886-71.478 53.638-92.908 21.512-211.92-71.708-266.224l100.626-174.292c28.65 16.696 61.916 26.254 97.4 26.254 107.196 0 194.144-87.192 194.7-194.958h201.254c-0.086 33.074 8.272 66.57 25.966 97.218 53.636 92.906 172.776 124.594 266.414 71.012l100.626 174.29c-28.78 16.466-53.692 40.498-71.434 71.228zM512 240.668c-114.508 0-207.336 92.824-207.336 207.334 0 114.508 92.826 207.334 207.336 207.334 114.508 0 207.332-92.826 207.332-207.334-0.002-114.51-92.824-207.334-207.332-207.334z" />
<glyph unicode="&#xe9bb;" glyph-name="list2" d="M384 896h640v-128h-640v128zM384 512h640v-128h-640v128zM384 128h640v-128h-640v128zM0 832c0 70.692 57.308 128 128 128s128-57.308 128-128c0-70.692-57.308-128-128-128s-128 57.308-128 128zM0 448c0 70.692 57.308 128 128 128s128-57.308 128-128c0-70.692-57.308-128-128-128s-128 57.308-128 128zM0 64c0 70.692 57.308 128 128 128s128-57.308 128-128c0-70.692-57.308-128-128-128s-128 57.308-128 128z" />
<glyph unicode="&#xea10;" glyph-name="checkmark" d="M864 832l-480-480-224 224-160-160 384-384 640 640z" />
<glyph unicode="&#xea80;" glyph-name="embed2" horiz-adv-x="1280" d="M832 224l96-96 320 320-320 320-96-96 224-224zM448 672l-96 96-320-320 320-320 96 96-224 224zM701.298 809.481l69.468-18.944-191.987-704.026-69.468 18.944 191.987 704.026z" />
<glyph unicode="&#xea9b;" glyph-name="rss" d="M136.294 209.070c-75.196 0-136.292-61.334-136.292-136.076 0-75.154 61.1-135.802 136.292-135.802 75.466 0 136.494 60.648 136.494 135.802-0.002 74.742-61.024 136.076-136.494 136.076zM0.156 612.070v-196.258c127.784 0 247.958-49.972 338.458-140.512 90.384-90.318 140.282-211.036 140.282-339.3h197.122c-0.002 372.82-303.282 676.070-675.862 676.070zM0.388 960v-196.356c455.782 0 826.756-371.334 826.756-827.644h196.856c0 564.47-459.254 1024-1023.612 1024z" />
<glyph unicode="&#xeab0;" glyph-name="github" d="M512.008 947.358c-282.738 0-512.008-229.218-512.008-511.998 0-226.214 146.704-418.132 350.136-485.836 25.586-4.738 34.992 11.11 34.992 24.632 0 12.204-0.48 52.542-0.696 95.324-142.448-30.976-172.504 60.41-172.504 60.41-23.282 59.176-56.848 74.916-56.848 74.916-46.452 31.778 3.51 31.124 3.51 31.124 51.4-3.61 78.476-52.766 78.476-52.766 45.672-78.27 119.776-55.64 149.004-42.558 4.588 33.086 17.852 55.68 32.506 68.464-113.73 12.942-233.276 56.85-233.276 253.032 0 55.898 20.004 101.574 52.76 137.428-5.316 12.9-22.854 64.972 4.952 135.5 0 0 43.006 13.752 140.84-52.49 40.836 11.348 84.636 17.036 128.154 17.234 43.502-0.198 87.336-5.886 128.256-17.234 97.734 66.244 140.656 52.49 140.656 52.49 27.872-70.528 10.35-122.6 5.036-135.5 32.82-35.856 52.694-81.532 52.694-137.428 0-196.654-119.778-239.95-233.79-252.624 18.364-15.89 34.724-47.046 34.724-94.812 0-68.508-0.596-123.644-0.596-140.508 0-13.628 9.222-29.594 35.172-24.566 203.322 67.776 349.842 259.626 349.842 485.768 0 282.78-229.234 511.998-511.992 511.998z" />
</font>
</defs>
</svg>
