<svg width="40" height="40" viewBox="0 0 40 40" fill="none" xmlns="http://www.w3.org/2000/svg">
<path d="M14.0241 5.007V3.52056C14.0241 3.19585 14.2882 2.93157 14.6129 2.93157H15.5585C16.551 2.93157 17.4567 2.32881 17.8654 1.3958C18.2371 0.547877 19.0751 0 19.9999 0C20.9247 0 21.7628 0.547877 22.1342 1.3956C22.5433 2.32862 23.4485 2.93138 24.441 2.93138H25.3867C25.7114 2.93138 25.9755 3.19547 25.9755 3.52037V5.00681C25.9755 5.33152 25.7114 5.5958 25.3867 5.5958H14.6127C14.2882 5.5958 14.0241 5.33171 14.0241 5.007ZM11.9603 32.7761H14.7173V30.0191H11.9603V32.7761ZM11.9603 16.1961H14.7173V13.4391H11.9603V16.1961ZM33.8345 8.90869V36.1702C33.8345 38.2818 32.1167 39.9998 30.0049 39.9998H9.99506C7.88329 39.9998 6.16547 38.2818 6.16547 36.1702V8.90869C6.16547 6.79712 7.88329 5.0791 9.99506 5.0791H12.1154C12.1541 6.4246 13.2582 7.50812 14.6129 7.50812H25.3869C26.7416 7.50812 27.8457 6.4246 27.8843 5.0791H30.0047C32.1167 5.0791 33.8345 6.79712 33.8345 8.90869ZM18.1413 14.8013C18.1413 15.3293 18.5693 15.7574 19.0975 15.7574H27.7283C28.2565 15.7574 28.6845 15.3293 28.6845 14.8013C28.6845 14.2733 28.2565 13.8451 27.7283 13.8451H19.0975C18.5693 13.8451 18.1413 14.2733 18.1413 14.8013ZM18.1413 23.1868C18.1413 23.7148 18.5693 24.1429 19.0975 24.1429H26.7676C27.2957 24.1429 27.7237 23.7148 27.7237 23.1868C27.7237 22.6588 27.2957 22.2306 26.7676 22.2306H19.0975C18.5693 22.2306 18.1413 22.6586 18.1413 23.1868ZM16.6296 29.0629C16.6296 28.5349 16.2017 28.1068 15.6735 28.1068H11.0042C10.476 28.1068 10.048 28.5349 10.048 29.0629V33.7322C10.048 34.2602 10.476 34.6884 11.0042 34.6884H15.6735C16.2017 34.6884 16.6296 34.2602 16.6296 33.7322V29.0629ZM16.6296 20.7729C16.6296 20.2449 16.2017 19.8167 15.6735 19.8167H11.0042C10.476 19.8167 10.048 20.2449 10.048 20.7729V25.4422C10.048 25.9701 10.476 26.3983 11.0042 26.3983H15.6735C16.2017 26.3983 16.6296 25.9701 16.6296 25.4422V20.7729ZM16.6296 12.483C16.6296 11.955 16.2017 11.5268 15.6735 11.5268H11.0042C10.476 11.5268 10.048 11.955 10.048 12.483V17.1523C10.048 17.6803 10.476 18.1084 11.0042 18.1084H15.6735C16.2017 18.1084 16.6296 17.6803 16.6296 17.1523V12.483ZM29.1635 31.5721C29.1635 31.0441 28.7355 30.6159 28.2073 30.6159H19.0975C18.5693 30.6159 18.1413 31.0441 18.1413 31.5721C18.1413 32.1001 18.5693 32.5282 19.0975 32.5282H28.2075C28.7355 32.5282 29.1635 32.1001 29.1635 31.5721ZM11.9603 24.486H14.7173V21.729H11.9603V24.486Z" fill="#495CFF"/>
</svg>
