<svg width="20" height="20" viewBox="0 0 20 20" fill="none" xmlns="http://www.w3.org/2000/svg">
    <g clip-path="url(#clip0)">
    <path d="M14.6875 5.89844C13.1568 5.89844 9.375 5.68414 9.375 4.14062V6.48438C9.375 8.16016 13.8086 8.24219 14.6875 8.24219C15.5664 8.24219 20 8.16016 20 6.48438V4.14062C20 5.68414 16.2182 5.89844 14.6875 5.89844Z" fill="#009688"/>
    <path d="M14.6875 1.21094C13.8069 1.21094 9.375 1.29562 9.375 2.96875C9.375 4.64188 13.8069 4.72656 14.6875 4.72656C15.5681 4.72656 20 4.64188 20 2.96875C20 1.29562 15.5681 1.21094 14.6875 1.21094Z" fill="#009688"/>
    <path d="M14.6875 9.41406C13.1568 9.41406 9.375 9.19977 9.375 7.65625V8.54766C10.2849 9.3002 10.9799 10.2998 11.3693 11.4397C12.6545 11.7314 14.2095 11.7578 14.6875 11.7578C15.5664 11.7578 20 11.6758 20 10V7.65625C20 9.19977 16.2182 9.41406 14.6875 9.41406Z" fill="#009688"/>
    <path d="M14.6875 12.9297C14.244 12.9297 12.8714 12.9092 11.6574 12.6743C11.6936 12.9504 11.7188 13.2298 11.7188 13.5156C11.7188 14.0245 11.6533 14.5173 11.5413 14.9925C12.7868 15.2491 14.2307 15.2734 14.6875 15.2734C15.5664 15.2734 20 15.1914 20 13.5156V11.1719C20 12.7154 16.2182 12.9297 14.6875 12.9297Z" fill="#009688"/>
    <path d="M14.6875 16.4453C14.1848 16.4453 12.5027 16.4165 11.1831 16.0807C10.8831 16.7691 10.4643 17.3925 9.95578 17.9313C11.1759 18.7361 14.0056 18.7891 14.6875 18.7891C15.5664 18.7891 20 18.707 20 17.0312V14.6875C20 16.231 16.2182 16.4453 14.6875 16.4453Z" fill="#009688"/>
    <circle cx="5.5" cy="13.5" r="5.5" fill="#009688"/>
    <path d="M6.31454 14.4368C7.7911 14.4368 8.56135 13.5835 8.56135 12.4553C8.56135 11.343 7.80389 10.4545 6.31454 10.4545H3.9367V13.5994H2.93635V14.4368H3.9367V14.9865H2.93635V15.8271H3.9367V17H4.92108V15.8271H6.36248V14.9865H4.92108V14.4368H6.31454ZM4.92108 13.5994V11.2983H6.31454C7.17108 11.2983 7.58017 11.7937 7.58017 12.4585C7.58017 13.1296 7.17427 13.5994 6.30176 13.5994H4.92108Z" fill="white"/>
    </g>
    <defs>
    <clipPath id="clip0">
    <rect width="20" height="20" fill="white"/>
    </clipPath>
    </defs>
    </svg>
