<svg width="40" height="40" viewBox="0 0 40 40" fill="none" xmlns="http://www.w3.org/2000/svg">
<path d="M33.0078 7.73438V5.85938C33.0078 2.62852 30.3793 0 27.1484 0H12.7734C9.54258 0 6.91406 2.62852 6.91406 5.85938V7.73438H33.0078Z" fill="#495CFF"/>
<path d="M9.25781 24.9219V34.4531V36.4844V37.6562C9.25781 38.9506 10.3071 40 11.6016 40H28.3203C29.6148 40 30.6641 38.9506 30.6641 37.6562V36.4844V34.4531V24.9219H9.25781ZM23.0859 34.9219H16.8359C16.1887 34.9219 15.6641 34.3972 15.6641 33.75C15.6641 33.1028 16.1887 32.5781 16.8359 32.5781H23.0859C23.7331 32.5781 24.2578 33.1028 24.2578 33.75C24.2578 34.3972 23.7331 34.9219 23.0859 34.9219ZM23.0859 29.9219H16.8359C16.1887 29.9219 15.6641 29.3972 15.6641 28.75C15.6641 28.1028 16.1887 27.5781 16.8359 27.5781H23.0859C23.7331 27.5781 24.2578 28.1028 24.2578 28.75C24.2578 29.3972 23.7331 29.9219 23.0859 29.9219Z" fill="#495CFF"/>
<path d="M34.1016 10.0781H5.89844C2.66758 10.0781 0.0390625 12.7066 0.0390625 15.9375V25.3125C0.0390625 28.5434 2.66758 31.1719 5.89844 31.1719H6.91406V24.9219H6.21094C5.56375 24.9219 5.03906 24.3972 5.03906 23.75C5.03906 23.1028 5.56375 22.5781 6.21094 22.5781H8.08594H31.8359H33.7109C34.3581 22.5781 34.8828 23.1028 34.8828 23.75C34.8828 24.3972 34.3581 24.9219 33.7109 24.9219H33.0078V31.1719H34.1016C37.3324 31.1719 39.9609 28.5434 39.9609 25.3125V15.9375C39.9609 12.7066 37.3324 10.0781 34.1016 10.0781ZM9.96094 17.4219H6.21094C5.56375 17.4219 5.03906 16.8972 5.03906 16.25C5.03906 15.6028 5.56375 15.0781 6.21094 15.0781H9.96094C10.6081 15.0781 11.1328 15.6028 11.1328 16.25C11.1328 16.8972 10.6081 17.4219 9.96094 17.4219Z" fill="#495CFF"/>
</svg>
