<svg width="20" height="20" viewBox="0 0 20 20" fill="none" xmlns="http://www.w3.org/2000/svg">
<path d="M9.35825 6.07548V2.73463C9.35825 2.3794 9.64159 2.08337 9.99992 2.08337C10.3208 2.08337 10.5926 2.33212 10.6356 2.64719L10.6416 2.73463V6.07548L14.6248 6.07573C16.6082 6.07573 18.2376 7.69986 18.3291 9.72538L18.3332 9.90512V14.1045C18.3332 16.1442 16.7604 17.8185 14.8065 17.9125L14.6332 17.9167H5.3665C3.38317 17.9167 1.76158 16.3007 1.67054 14.2678L1.6665 14.0873V9.89651C1.6665 7.85679 3.23143 6.17439 5.18483 6.07991L5.35817 6.07573H9.35817V11.4111L8.02484 10.0342C7.77484 9.77603 7.3665 9.77603 7.1165 10.0342C6.9915 10.1633 6.93317 10.3354 6.93317 10.5075C6.93317 10.6383 6.9705 10.7746 7.04944 10.89L7.1165 10.9722L9.5415 13.4849C9.65817 13.614 9.82484 13.6829 9.99984 13.6829C10.1387 13.6829 10.2776 13.6351 10.3876 13.5444L10.4498 13.4849L12.8748 10.9722C13.1248 10.714 13.1248 10.2924 12.8748 10.0342C12.6476 9.7995 12.2894 9.77817 12.0384 9.97019L11.9665 10.0342L10.6415 11.4111V6.07573L9.35825 6.07548Z" fill="#21317A"/>
</svg>
