<svg width="26" height="26" viewBox="0 0 26 26" fill="none" xmlns="http://www.w3.org/2000/svg">
    <path d="M14.8381 8.10147H0V8.17251C0.2925 9.26121 1.00384 10.2222 1.98479 10.8188L13 17.5182L20.0708 13.2178C17.4294 12.7846 15.3292 10.7232 14.8381 8.10147Z" fill="white"/>
    <path d="M24.0454 12.5835L18.416 16.0072L26 22.9485V11.1642C25.646 11.5316 24.2943 12.4537 24.0454 12.5835Z" fill="white"/>
    <path d="M1.19316 12.1203C0.75852 11.856 0.351914 11.5368 0 11.1731V22.9485L7.58398 16.0072L1.19316 12.1203Z" fill="white"/>
    <path d="M13 19.3012L8.93961 16.8317L1.12915 23.9804H24.8709L17.0604 16.8317L13 19.3012Z" fill="white"/>
    <path d="M26 7.00009C26 9.76152 23.7615 12 20.9999 12C18.2385 12 16 9.76152 16 7.00009C16 4.23866 18.2385 2 20.9999 2C23.7615 2 26 4.23866 26 7.00009Z" fill="#FF7D7D"/>
    </svg>
