<svg width="40" height="40" viewBox="0 0 40 40" fill="none" xmlns="http://www.w3.org/2000/svg">
<path d="M20.0005 25.2632C23.5795 25.2632 26.3163 22.5263 26.3163 18.9474V6.31579C26.3163 2.73684 23.5795 0 20.0005 0C16.4216 0 13.6847 2.73684 13.6847 6.31579V18.9474C13.6847 22.5263 16.4216 25.2632 20.0005 25.2632ZM31.1584 18.9474C31.1584 25.2632 25.8953 29.6842 20.0005 29.6842C14.1058 29.6842 8.84262 25.2632 8.84262 18.9474H5.26367C5.26367 26.1053 10.9479 32 17.8953 33.0526V40H22.1058V33.0526C29.0531 32 34.7374 26.1053 34.7374 18.9474H31.1584Z" fill="#828282"/>
</svg>
