<svg width="25" height="25" viewBox="0 0 25 25" fill="none" xmlns="http://www.w3.org/2000/svg">
<path d="M11.4426 25C13.3291 25 14.9073 23.6551 15.2697 21.875H7.61548C7.97807 23.6551 9.55621 25 11.4426 25Z" fill="white"/>
<path d="M18.7468 12.4991C18.7426 12.4991 18.7384 12.5 18.7342 12.5C14.7145 12.5 11.4426 9.2291 11.4426 5.2084C11.4426 4.1031 11.6969 3.05825 12.1396 2.11869C11.9103 2.09695 11.678 2.0834 11.4426 2.0834C7.41566 2.0834 4.15104 5.34783 4.15104 9.37501V12.2791C4.15104 14.3406 3.24791 16.2865 1.66348 17.626C1.13533 18.0771 0.900917 18.7958 1.09051 19.4969C1.31138 20.3125 2.11761 20.8334 2.96352 20.8334H19.9166C20.8041 20.8334 21.6407 20.2583 21.8207 19.3886C21.9603 18.7157 21.7208 18.0437 21.1989 17.6052C19.6843 16.3355 18.8083 14.4697 18.7468 12.4991Z" fill="white"/>
<path d="M23.9425 5.2084C23.9425 8.08487 21.6107 10.4166 18.7341 10.4166C15.8576 10.4166 13.5259 8.08487 13.5259 5.2084C13.5259 2.33192 15.8576 0 18.7341 0C21.6107 0 23.9425 2.33192 23.9425 5.2084Z" fill="#FF7D7D"/>
</svg>
