<svg width="70" height="10" viewBox="0 0 70 10" fill="none" xmlns="http://www.w3.org/2000/svg">
<g clip-path="url(#clip0)">
<path d="M9.97385 3.83558C9.90801 3.63309 9.72841 3.48973 9.51677 3.47058L6.63006 3.20851L5.48922 0.537569C5.40499 0.341337 5.21334 0.214687 5.00001 0.214687C4.78669 0.214687 4.59496 0.341337 4.51127 0.537569L3.37042 3.20851L0.48326 3.47058C0.271617 3.49012 0.0923996 3.63347 0.0261753 3.83558C-0.0396675 4.03807 0.0211398 4.26016 0.181207 4.40055L2.36333 6.31395L1.71993 9.14771C1.67286 9.35607 1.75373 9.57153 1.92661 9.6965C2.01954 9.76402 2.12872 9.79774 2.23828 9.79774C2.33243 9.79774 2.42665 9.77272 2.51081 9.72237L5.00001 8.234L7.48876 9.72237C7.67134 9.83147 7.90091 9.82147 8.07341 9.6965C8.2463 9.57153 8.32717 9.35607 8.2801 9.14771L7.6367 6.31395L9.81882 4.40055C9.97881 4.26016 10.0397 4.03853 9.97385 3.83558Z" fill="#ffffff"/>
</g>
<g clip-path="url(#clip1)">
<path d="M24.9739 3.83558C24.908 3.63309 24.7284 3.48973 24.5168 3.47058L21.6301 3.20851L20.4892 0.537569C20.405 0.341337 20.2133 0.214687 20 0.214687C19.7867 0.214687 19.595 0.341337 19.5113 0.537569L18.3704 3.20851L15.4833 3.47058C15.2716 3.49012 15.0924 3.63348 15.0262 3.83558C14.9603 4.03807 15.0211 4.26016 15.1812 4.40055L17.3633 6.31395L16.7199 9.14771C16.6729 9.35607 16.7537 9.57153 16.9266 9.6965C17.0195 9.76402 17.1287 9.79775 17.2383 9.79775C17.3324 9.79775 17.4267 9.77272 17.5108 9.72237L20 8.234L22.4888 9.72237C22.6713 9.83147 22.9009 9.82147 23.0734 9.6965C23.2463 9.57153 23.3272 9.35607 23.2801 9.14771L22.6367 6.31395L24.8188 4.40055C24.9788 4.26016 25.0397 4.03853 24.9739 3.83558Z" fill="#ffffff"/>
</g>
<g clip-path="url(#clip2)">
<path d="M39.9739 3.83558C39.908 3.63309 39.7284 3.48973 39.5168 3.47058L36.6301 3.20851L35.4892 0.537569C35.405 0.341337 35.2133 0.214687 35 0.214687C34.7867 0.214687 34.595 0.341337 34.5113 0.537569L33.3704 3.20851L30.4833 3.47058C30.2716 3.49012 30.0924 3.63348 30.0262 3.83558C29.9603 4.03807 30.0211 4.26016 30.1812 4.40055L32.3633 6.31395L31.7199 9.14771C31.6729 9.35607 31.7537 9.57153 31.9266 9.6965C32.0195 9.76402 32.1287 9.79775 32.2383 9.79775C32.3324 9.79775 32.4267 9.77272 32.5108 9.72237L35 8.234L37.4888 9.72237C37.6713 9.83147 37.9009 9.82147 38.0734 9.6965C38.2463 9.57153 38.3272 9.35607 38.2801 9.14771L37.6367 6.31395L39.8188 4.40055C39.9788 4.26016 40.0397 4.03853 39.9739 3.83558Z" fill="#ffffff"/>
</g>
<g clip-path="url(#clip3)">
<path d="M54.4942 3.71957L54.4942 3.71956L51.6075 3.45749L51.4588 3.44399L51.4002 3.30671L50.2595 0.636178C50.2595 0.636092 50.2594 0.636007 50.2594 0.635921C50.2144 0.53137 50.1129 0.464687 50 0.464687C49.8868 0.464687 49.7856 0.53156 49.7412 0.635649L49.7412 0.635769L48.6003 3.30671L48.5417 3.44399L48.393 3.45749L45.5062 3.71953C45.5062 3.71953 45.5061 3.71954 45.506 3.71955C45.3942 3.72996 45.2992 3.8056 45.2638 3.91315C45.229 4.02073 45.2614 4.1383 45.346 4.21258C45.346 4.21258 45.346 4.21259 45.346 4.21259L47.5282 6.12598L47.6401 6.22413L47.6071 6.36931L46.9638 9.2028C46.9638 9.20283 46.9638 9.20286 46.9638 9.20289C46.9387 9.31414 46.9818 9.42793 47.0731 9.49389L47.0736 9.49425C47.1227 9.52995 47.1802 9.54775 47.2383 9.54775C47.288 9.54775 47.3378 9.53456 47.3824 9.50784L47.3825 9.5078L49.8717 8.01943L50 7.94271L50.1283 8.01944L52.617 9.50776C52.617 9.50778 52.6171 9.50779 52.6171 9.50781C52.7139 9.56561 52.8353 9.56031 52.9267 9.49405L52.927 9.49389C53.0182 9.42797 53.0613 9.31426 53.0363 9.20306L54.4942 3.71957ZM54.4942 3.71957C54.606 3.72968 54.701 3.80528 54.7361 3.91273C54.7711 4.02089 54.7387 4.13825 54.6539 4.21263L52.4719 6.12598L52.3599 6.22413L52.3929 6.36931L53.0362 9.2028L54.4942 3.71957Z" stroke="#ffffff" stroke-width="0.5"/>
</g>
<g clip-path="url(#clip4)">
<path d="M69.4942 3.71957L69.4942 3.71956L66.6075 3.45749L66.4588 3.44399L66.4002 3.30671L65.2595 0.636178C65.2595 0.636092 65.2594 0.636007 65.2594 0.635921C65.2144 0.53137 65.1129 0.464687 65 0.464687C64.8868 0.464687 64.7856 0.53156 64.7412 0.635649L64.7412 0.635769L63.6003 3.30671L63.5417 3.44399L63.393 3.45749L60.5062 3.71953C60.5062 3.71953 60.5061 3.71954 60.506 3.71955C60.3942 3.72996 60.2992 3.8056 60.2638 3.91315C60.229 4.02073 60.2614 4.1383 60.346 4.21258C60.346 4.21258 60.346 4.21259 60.346 4.21259L62.5282 6.12598L62.6401 6.22413L62.6071 6.36931L61.9638 9.2028C61.9638 9.20283 61.9638 9.20286 61.9638 9.20289C61.9387 9.31414 61.9818 9.42793 62.0731 9.49389L62.0736 9.49425C62.1227 9.52995 62.1802 9.54775 62.2383 9.54775C62.288 9.54775 62.3378 9.53456 62.3824 9.50784L62.3825 9.5078L64.8717 8.01943L65 7.94271L65.1283 8.01944L67.617 9.50776C67.617 9.50778 67.6171 9.50779 67.6171 9.50781C67.7139 9.56561 67.8353 9.56031 67.9267 9.49405L67.927 9.49389C68.0182 9.42797 68.0613 9.31426 68.0363 9.20306L69.4942 3.71957ZM69.4942 3.71957C69.606 3.72968 69.701 3.80528 69.7361 3.91273C69.7711 4.02089 69.7387 4.13825 69.6539 4.21263L67.4719 6.12598L67.3599 6.22413L67.3929 6.36931L68.0362 9.2028L69.4942 3.71957Z" stroke="#ffffff" stroke-width="0.5"/>
</g>
<defs>
<clipPath id="clip0">
<rect width="10" height="10" fill="white"/>
</clipPath>
<clipPath id="clip1">
<rect width="10" height="10" fill="white" transform="translate(15)"/>
</clipPath>
<clipPath id="clip2">
<rect width="10" height="10" fill="white" transform="translate(30)"/>
</clipPath>
<clipPath id="clip3">
<rect width="10" height="10" fill="white" transform="translate(45)"/>
</clipPath>
<clipPath id="clip4">
<rect width="10" height="10" fill="white" transform="translate(60)"/>
</clipPath>
</defs>
</svg>
