<svg width="40" height="40" viewBox="0 0 40 40" fill="none" xmlns="http://www.w3.org/2000/svg">
<path d="M25.1133 1.09473L35.6779 11.6586H28.725C26.7333 11.6586 25.1133 10.0383 25.1133 8.04611V1.09473Z" fill="#495CFF"/>
<path d="M28.0037 36.3875C28.0037 38.3792 26.3813 39.9999 24.3897 39.9999H6.84489C4.85249 39.9999 3.23242 38.3792 3.23242 36.3875V10.0693C3.23242 8.07688 4.85249 6.45605 6.84489 6.45605H11.2266H14.7964V14.5019C14.7964 17.3474 17.1108 19.6618 19.9563 19.6618H28.0037V34.3172V36.3875Z" fill="#495CFF"/>
<path d="M26.9095 18.1145H19.9562C17.9648 18.1145 16.3438 16.4946 16.3438 14.502V7.55029L26.9095 18.1145Z" fill="#495CFF"/>
<path d="M33.1594 33.5435H29.5515V18.8882C29.5515 18.8704 29.5416 18.8542 29.5401 18.8364C29.5356 18.7699 29.5226 18.7072 29.5015 18.6438C29.4924 18.6181 29.4849 18.5928 29.4736 18.5663C29.4365 18.485 29.3896 18.4076 29.3246 18.3419V18.3412C29.3231 18.3412 29.3223 18.3404 29.3223 18.3404L16.1176 5.13539C16.0502 5.06895 15.9721 5.02177 15.8894 4.98389C15.8679 4.97357 15.8445 4.96728 15.8221 4.95973C15.7557 4.93633 15.6885 4.92274 15.6178 4.91896C15.6015 4.91708 15.5868 4.90877 15.5698 4.90877H12V3.61322C12 1.6212 13.6215 0 15.6132 0H23.5642V8.04623C23.5642 10.8918 25.8792 13.2062 28.7249 13.2062H36.7704V29.9318C36.7719 31.9234 35.151 33.5435 33.1594 33.5435Z" fill="#495CFF"/>
</svg>
