<svg width="20" height="20" viewBox="0 0 20 20" fill="none" xmlns="http://www.w3.org/2000/svg">
    <g clip-path="url(#clip0)">
    <path d="M10.2072 3.61054C10.4984 3.90175 10.8946 4.06358 11.3062 4.05974L13.4541 4.04927L9.73743 0.375702L9.74773 2.51591C9.74843 2.92758 9.91393 3.32161 10.2072 3.61054Z" fill="#009688"/>
    <path d="M1.97654 16.0866C2.26617 16.3751 2.65881 16.5368 3.06785 16.5356H3.07554L9.2465 16.5007C8.98009 15.0935 9.33449 13.64 10.2188 12.5134C11.1028 11.3868 12.4305 10.697 13.8605 10.6213L13.8274 4.58384L11.3088 4.59588H11.2985C10.1498 4.59571 9.217 3.66728 9.21141 2.51835L9.19937 -4.76837e-07L2.9961 0.0298531C2.13942 0.0338685 1.44825 0.731675 1.45244 1.58853L1.51669 14.9919C1.51774 15.4036 1.68324 15.7978 1.97654 16.0866ZM8.30463 9.8997H7.39523C7.24718 9.8997 7.12707 9.77976 7.12707 9.63154C7.12707 9.4835 7.24718 9.36338 7.39523 9.36338H8.30463C8.45285 9.36338 8.57279 9.4835 8.57279 9.63154C8.57279 9.77976 8.45285 9.8997 8.30463 9.8997ZM3.88944 7.08927H11.4398C11.588 7.08927 11.7079 7.20938 11.7079 7.35743C11.7079 7.50548 11.588 7.62559 11.4398 7.62559H3.88944C3.74122 7.62559 3.62128 7.50548 3.62128 7.35743C3.62128 7.20938 3.74122 7.08927 3.88944 7.08927ZM3.88944 9.36338H6.24281C6.39103 9.36338 6.51097 9.4835 6.51097 9.63154C6.51097 9.77976 6.39103 9.8997 6.24281 9.8997H3.88944C3.74122 9.8997 3.62128 9.77976 3.62128 9.63154C3.62128 9.4835 3.74122 9.36338 3.88944 9.36338Z" fill="#009688"/>
    <path d="M9.69623 15.5754C9.69623 18.019 11.6772 20 14.1208 20C16.5645 20 18.5455 18.019 18.5455 15.5754C18.5455 13.1318 16.5645 11.1508 14.1208 11.1508C11.6802 11.1581 9.70356 13.1347 9.69623 15.5754ZM12.1613 15.1314C12.2739 15.0352 12.4433 15.0487 12.5395 15.1613L13.4419 16.2184L15.737 14.3512C15.8112 14.2898 15.9126 14.2728 16.0028 14.3069C16.0929 14.3409 16.1579 14.4207 16.1729 14.516C16.1879 14.6112 16.1507 14.707 16.0755 14.7672L13.577 16.7996C13.4641 16.8914 13.2986 16.8764 13.2039 16.7657L12.1313 15.5097C12.085 15.4556 12.0622 15.3854 12.0679 15.3144C12.0735 15.2435 12.107 15.1777 12.1613 15.1314Z" fill="#009688"/>
    </g>
    <defs>
    <clipPath id="clip0">
    <rect width="20" height="20" fill="white"/>
    </clipPath>
    </defs>
    </svg>
