<svg width="40" height="40" viewBox="0 0 40 40" fill="none" xmlns="http://www.w3.org/2000/svg">
<path d="M22.45 4.22288L32.4384 9.98972C33.9546 10.865 34.8884 12.4826 34.8884 14.2332V25.7669C34.8884 27.5175 33.9546 29.1351 32.4384 30.0105L22.45 35.7773C20.934 36.6527 19.0661 36.6527 17.55 35.7773L7.56154 30.0105C6.04548 29.1351 5.11154 27.5175 5.11154 25.7669V14.2332C5.11154 12.4826 6.04548 10.865 7.56154 9.98972L17.55 4.22288C19.0661 3.34758 20.934 3.34758 22.45 4.22288Z" stroke="#828282" stroke-width="2"/>
<path d="M7.96704 23.4003H12.3852V22.4935H9.02046V20.3559H12.1159V19.4526H9.02046V17.3253H12.3443V16.4185H7.96704V23.4003ZM18.4888 16.4185H14.1354V23.4003H15.1888V17.3253H18.4888V16.4185ZM20.06 23.4003H21.1134V20.9457H22.5452C24.1646 20.9457 24.9658 19.9673 24.9658 18.6787C24.9658 17.3935 24.1714 16.4185 22.5486 16.4185H20.06V23.4003ZM21.1134 20.0525V17.3219H22.4362C23.4794 17.3219 23.9056 17.8878 23.9056 18.6787C23.9056 19.4696 23.4794 20.0525 22.4498 20.0525H21.1134ZM26.5846 23.4003H27.638V20.3559H31.1188V23.4003H32.1756V16.4185H31.1188V19.4526H27.638V16.4185H26.5846V23.4003Z" fill="#828282"/>
</svg>
