<svg width="30" height="30" viewBox="0 0 30 30" fill="none" xmlns="http://www.w3.org/2000/svg">
<g clip-path="url(#clip0)">
<path d="M18.834 0.821136L26.7574 8.74402H21.5428C20.049 8.74402 18.834 7.52878 18.834 6.03467V0.821136Z" fill="#ffffff"/>
<path d="M21.0023 27.2907C21.0023 28.7845 19.7855 30 18.2918 30H5.13318C3.63888 30 2.42383 28.7845 2.42383 27.2907V7.552C2.42383 6.0577 3.63888 4.84209 5.13318 4.84209H8.41943H11.0968V10.8765C11.0968 13.0106 12.8326 14.7464 14.9667 14.7464H21.0023V25.7379V27.2907Z" fill="#ffffff"/>
<path d="M20.1821 13.5858H14.9672C13.4736 13.5858 12.2578 12.3709 12.2578 10.8765V5.66266L20.1821 13.5858Z" fill="#ffffff"/>
<path d="M24.8695 25.1576H22.1636V14.1661C22.1636 14.1528 22.1562 14.1406 22.1551 14.1273C22.1517 14.0774 22.142 14.0304 22.1261 13.9828C22.1193 13.9636 22.1137 13.9446 22.1052 13.9247C22.0773 13.8637 22.0422 13.8057 21.9934 13.7564V13.7559C21.9923 13.7559 21.9917 13.7553 21.9917 13.7553L12.0882 3.85154C12.0377 3.80172 11.9791 3.76633 11.9171 3.73792C11.9009 3.73018 11.8834 3.72546 11.8666 3.7198C11.8167 3.70225 11.7664 3.69205 11.7133 3.68922C11.7011 3.68781 11.6901 3.68158 11.6774 3.68158H9V2.70992C9 1.2159 10.2161 0 11.7099 0H17.6731V6.03467C17.6731 8.16882 19.4094 9.90462 21.5437 9.90462H27.5778V22.4488C27.5789 23.9426 26.3633 25.1576 24.8695 25.1576Z" fill="#ffffff"/>
</g>
<defs>
<clipPath id="clip0">
<rect width="30" height="30" fill="white"/>
</clipPath>
</defs>
</svg>
