<svg width="20" height="20" viewBox="0 0 20 20" fill="none" xmlns="http://www.w3.org/2000/svg">
<path d="M10.2349 13.2332C10.269 13.1406 10.3071 13.0497 10.348 12.9594C10.1438 12.6638 10.034 12.3138 10.034 11.9471C10.034 11.4693 10.2206 11.0205 10.5567 10.6852C10.8943 10.3467 11.3435 10.1605 11.8216 10.1605C12.188 10.1605 12.5374 10.2702 12.8328 10.4738C12.9234 10.4334 13.0142 10.3956 13.1072 10.3608C13.261 9.53075 13.9898 8.90005 14.8641 8.90005C15.0656 8.90005 15.2587 8.93684 15.4398 8.99887C15.7662 8.75363 15.9804 8.36679 15.9804 7.92718C15.9804 7.18442 15.3781 6.58228 14.6355 6.58228H13.8166C13.6675 5.94302 13.4154 5.34514 13.0784 4.80402L13.6591 4.22382C14.1843 3.69881 14.1843 2.84704 13.6591 2.32202C13.1337 1.79676 12.2814 1.79676 11.7572 2.32202L11.1768 2.90222C10.6356 2.565 10.0375 2.31294 9.39854 2.16413V1.3449C9.39854 0.60214 8.79563 0 8.05348 0C7.31032 0 6.70858 0.602181 6.70858 1.3449V2.16404C6.069 2.31286 5.47071 2.56496 4.92971 2.90213L4.34992 2.32231C3.82511 1.79701 2.97286 1.79701 2.44804 2.32231C1.92262 2.84737 1.92262 3.69909 2.44804 4.22407L3.02783 4.80394C2.6911 5.34506 2.43875 5.94294 2.29055 6.5822H1.47083C0.728036 6.5822 0.125977 7.18438 0.125977 7.9271C0.125977 8.66981 0.728076 9.27199 1.47083 9.27199H2.29047C2.43867 9.91133 2.69102 10.5095 3.0286 11.0506L2.44792 11.6308C1.9225 12.1558 1.9225 13.0076 2.44792 13.5326C2.71057 13.7953 3.05465 13.9266 3.3988 13.9266C3.74287 13.9266 4.08699 13.7953 4.3498 13.5326L4.93024 12.9524C5.47124 13.2893 6.06888 13.5415 6.70846 13.6902V14.5094C6.70846 15.2521 7.31016 15.8543 8.05336 15.8543C8.36335 15.8543 8.64576 15.7449 8.87299 15.5683C8.81129 15.3864 8.7738 15.1927 8.7738 14.9901C8.7738 14.1164 9.4043 13.3868 10.2349 13.2332ZM8.05336 10.6186C6.56675 10.6186 5.36117 9.41354 5.36117 7.92714C5.36117 6.44069 6.56679 5.23572 8.05336 5.23572C9.53952 5.23572 10.7445 6.44069 10.7445 7.92714C10.7445 9.41354 9.53952 10.6186 8.05336 10.6186Z" fill="white"/>
<path d="M19.1675 14.2838H18.6684C18.5685 13.7405 18.3565 13.2368 18.0549 12.7987L18.4071 12.4471C18.6827 12.1713 18.6827 11.7238 18.4071 11.448C18.2691 11.3098 18.0878 11.2408 17.9073 11.2408C17.7267 11.2408 17.5455 11.3098 17.4076 11.448L17.0555 11.8C16.6183 11.4979 16.1139 11.2861 15.5702 11.1856V10.6869C15.5702 10.2968 15.2543 9.98067 14.8643 9.98067C14.4743 9.98067 14.1584 10.2968 14.1584 10.6869V11.1856C13.6146 11.2862 13.1109 11.4979 12.6729 11.7997L12.321 11.4484C12.183 11.3105 12.0023 11.2412 11.8219 11.2412C11.6405 11.2412 11.4594 11.3105 11.3221 11.4484C11.0456 11.7238 11.0456 12.1713 11.3221 12.4472L11.6734 12.7988C11.372 13.2369 11.16 13.7405 11.0602 14.2839H10.561C10.171 14.2839 9.85449 14.6001 9.85449 14.9902C9.85449 15.3806 10.171 15.6968 10.561 15.6968H11.0602C11.16 16.2401 11.3721 16.7435 11.674 17.1818L11.3221 17.5338C11.0456 17.8096 11.0456 18.2568 11.3221 18.5326C11.4601 18.6705 11.6405 18.7398 11.8219 18.7398C12.0023 18.7398 12.183 18.6705 12.321 18.5326L12.6729 18.181C13.1109 18.4824 13.6146 18.6942 14.1584 18.7946V19.2934C14.1584 19.6838 14.4743 20 14.8643 20C15.2543 20 15.5702 19.6838 15.5702 19.2934V18.7949C16.1139 18.6942 16.6175 18.4824 17.0555 18.1806L17.4076 18.5329C17.5455 18.6708 17.7267 18.7398 17.9073 18.7398C18.0878 18.7398 18.2691 18.6709 18.4071 18.5329C18.6827 18.2572 18.6827 17.8096 18.4071 17.5338L18.0549 17.1818C18.3565 16.7435 18.5685 16.2401 18.6684 15.6968H19.1675C19.5575 15.6968 19.874 15.3806 19.874 14.9902C19.874 14.6 19.5575 14.2838 19.1675 14.2838ZM14.8642 16.4486C14.0585 16.4486 13.4057 15.7956 13.4057 14.9902C13.4057 14.1847 14.0585 13.5316 14.8642 13.5316C15.6699 13.5316 16.3225 14.1847 16.3225 14.9902C16.3226 15.7956 15.67 16.4486 14.8642 16.4486Z" fill="white"/>
</svg>
