<svg width="30" height="30" viewBox="0 0 30 30" fill="none" xmlns="http://www.w3.org/2000/svg">
<path d="M16.8375 3.16702L24.3288 7.49215C25.4659 8.14863 26.1663 9.36184 26.1663 10.6748V19.325C26.1663 20.638 25.4659 21.8512 24.3288 22.5077L16.8375 26.8328C15.7005 27.4894 14.2995 27.4894 13.1625 26.8328L5.67115 22.5077C4.5341 21.8512 3.83365 20.638 3.83365 19.325V10.6748C3.83365 9.36184 4.5341 8.14863 5.67115 7.49215L13.1625 3.16702C14.2995 2.51055 15.7005 2.51055 16.8375 3.16702Z" stroke="#21317A" stroke-width="2"/>
<path d="M5.97528 17.5501H9.28892V16.87H6.76535V15.2668H9.08692V14.5893H6.76535V12.9938H9.25824V12.3137H5.97528V17.5501ZM13.8666 12.3137H10.6016V17.5501H11.3916V12.9938H13.8666V12.3137ZM15.045 17.5501H15.835V15.7091H16.9089C18.1234 15.7091 18.7243 14.9753 18.7243 14.0089C18.7243 13.045 18.1285 12.3137 16.9114 12.3137H15.045V17.5501ZM15.835 15.0392V12.9913H16.8271C17.6095 12.9913 17.9292 13.4157 17.9292 14.0089C17.9292 14.6021 17.6095 15.0392 16.8373 15.0392H15.835ZM19.9384 17.5501H20.7285V15.2668H23.3391V17.5501H24.1317V12.3137H23.3391V14.5893H20.7285V12.3137H19.9384V17.5501Z" fill="#21317A"/>
</svg>
