<svg width="13" height="13" viewBox="0 0 13 13" fill="none" xmlns="http://www.w3.org/2000/svg">
<g clip-path="url(#clip0)">
<path d="M4.5957 5.62358L0.152928 9.5181C0.0552502 9.32754 -0.000228882 9.11192 -0.000228882 8.88346V2.18033C-0.000228882 2.06429 0.0142436 1.95161 0.0410309 1.84375L4.5957 5.62358Z" fill="#009688"/>
<path d="M8.40293 5.6226L12.9584 1.84216C12.9854 1.9505 13 2.06375 13 2.18037V8.88349C13 9.11193 12.9445 9.32755 12.8468 9.51813L8.40293 5.6226Z" fill="#009688"/>
<path d="M5.18922 6.11622L5.55182 6.41715C5.82609 6.64476 6.16232 6.75858 6.49851 6.75858C6.83471 6.75858 7.17091 6.64478 7.4452 6.41715L7.809 6.11523L12.3281 10.0767C12.1167 10.2056 11.8685 10.28 11.6032 10.28H8.31476C8.27461 10.28 8.23645 10.2993 8.21261 10.3316L7.01283 11.9582C6.8926 12.1212 6.70748 12.2153 6.50491 12.2162H6.50186C6.30047 12.2162 6.1157 12.124 5.99459 11.9629L4.76758 10.3307C4.74374 10.2989 4.70578 10.28 4.6661 10.28H1.39616C1.13088 10.28 0.88269 10.2056 0.671238 10.0767L5.18922 6.11622Z" fill="#009688"/>
<path d="M6.95893 5.83089C6.69226 6.05222 6.3051 6.0522 6.03842 5.83089L0.428312 1.17518C0.679552 0.933136 1.02073 0.783813 1.39633 0.783813H11.6034C11.9784 0.783813 12.3191 0.93273 12.5703 1.17417L6.95893 5.83089Z" fill="#009688"/>
</g>
<defs>
<clipPath id="clip0">
<rect width="13" height="13" fill="white" transform="matrix(-1 0 0 1 13 0)"/>
</clipPath>
</defs>
</svg>
