<svg xmlns="http://www.w3.org/2000/svg" xmlns:xlink="http://www.w3.org/1999/xlink" width="12" height="13" viewBox="0 0 12 13"><defs><path id="vvxfa" d="M786.78 856.8a.63.63 0 0 1-.92-.01l-2.98-3.24a4.8 4.8 0 0 1-2.87.95 5.14 5.14 0 0 1-5.01-5.25c0-2.9 2.25-5.25 5.01-5.25a5.14 5.14 0 0 1 5.01 5.25c0 1.24-.42 2.43-1.17 3.37l2.95 3.22a.7.7 0 0 1-.02.97zm-10.47-7.55a3.8 3.8 0 0 0 3.7 3.88 3.8 3.8 0 0 0 3.7-3.88 3.8 3.8 0 0 0-3.7-3.88 3.8 3.8 0 0 0-3.7 3.88z"/></defs><g><g transform="translate(-775 -844)"><use fill="#141414" xlink:href="#vvxfa"/></g></g></svg>