<svg width="71" height="71" viewBox="0 0 71 71" fill="none" xmlns="http://www.w3.org/2000/svg">
<g filter="url(#filter0_dd)">
<rect x="18" y="9" width="35" height="35" rx="10" fill="#21317A"/>
</g>
<g clip-path="url(#clip0)">
<path d="M45.0909 21.545H29.1038L32.0974 18.5514C32.4524 18.1965 32.4524 17.6208 32.0974 17.2658C31.7424 16.9108 31.1668 16.9108 30.8117 17.2658L26.2663 21.8112C25.9112 22.1662 25.9112 22.7418 26.2663 23.0969L30.8117 27.6423C30.9892 27.8198 31.2219 27.9086 31.4546 27.9086C31.6872 27.9086 31.9199 27.8198 32.0974 27.6423C32.4524 27.2874 32.4524 26.7117 32.0974 26.3567L29.1038 23.3632H45.0909C45.593 23.3632 46 22.9561 46 22.4541C46 21.952 45.593 21.545 45.0909 21.545Z" fill="#F2F2F2"/>
<path d="M41.1882 26.357C40.8333 26.0021 40.2576 26.0021 39.9026 26.357C39.5476 26.712 39.5476 27.2877 39.9026 27.6427L42.8962 30.6363H26.9091C26.407 30.6363 26 31.0433 26 31.5453C26 32.0474 26.407 32.4544 26.9091 32.4544H42.8962L39.9027 35.448C39.5476 35.803 39.5476 36.3786 39.9027 36.7337C40.0801 36.9111 40.3128 36.9999 40.5455 36.9999C40.7781 36.9999 41.0108 36.9111 41.1882 36.7336L45.7337 32.1881C46.0887 31.8332 46.0887 31.2575 45.7337 30.9025L41.1882 26.357Z" fill="#F2F2F2"/>
</g>
<defs>
<filter id="filter0_dd" x="0" y="0" width="71" height="71" filterUnits="userSpaceOnUse" color-interpolation-filters="sRGB">
<feFlood flood-opacity="0" result="BackgroundImageFix"/>
<feColorMatrix in="SourceAlpha" type="matrix" values="0 0 0 0 0 0 0 0 0 0 0 0 0 0 0 0 0 0 127 0"/>
<feOffset dy="5.5"/>
<feGaussianBlur stdDeviation="2.5"/>
<feColorMatrix type="matrix" values="0 0 0 0 0 0 0 0 0 0 0 0 0 0 0 0 0 0 0.237602 0"/>
<feBlend mode="normal" in2="BackgroundImageFix" result="effect1_dropShadow"/>
<feColorMatrix in="SourceAlpha" type="matrix" values="0 0 0 0 0 0 0 0 0 0 0 0 0 0 0 0 0 0 127 0"/>
<feOffset dy="9"/>
<feGaussianBlur stdDeviation="9"/>
<feColorMatrix type="matrix" values="0 0 0 0 0 0 0 0 0 0 0 0 0 0 0 0 0 0 0.18 0"/>
<feBlend mode="normal" in2="effect1_dropShadow" result="effect2_dropShadow"/>
<feBlend mode="normal" in="SourceGraphic" in2="effect2_dropShadow" result="shape"/>
</filter>
<clipPath id="clip0">
<rect width="20" height="20" fill="white" transform="translate(26 17)"/>
</clipPath>
</defs>
</svg>
