<svg width="26" height="30" viewBox="0 0 26 30" fill="none" xmlns="http://www.w3.org/2000/svg" >
<path d="M16.834 0.821136L24.7574 8.74402H19.5428C18.049 8.74402 16.834 7.52878 16.834 6.03467V0.821136Z" fill="#828282" class="svg"/>
<path d="M19.0023 27.2906C19.0023 28.7845 17.7855 30 16.2918 30H3.13318C1.63888 30 0.423828 28.7845 0.423828 27.2906V7.55199C0.423828 6.05769 1.63888 4.84207 3.13318 4.84207H6.41943H9.09679V10.8765C9.09679 13.0106 10.8326 14.7464 12.9667 14.7464H19.0023V25.7379V27.2906Z" fill="#828282"/>
<path d="M18.1821 13.5858H12.9672C11.4736 13.5858 10.2578 12.3709 10.2578 10.8765V5.66266L18.1821 13.5858Z" fill="#828282"/>
<path d="M22.8695 25.1576H20.1636V14.1661C20.1636 14.1528 20.1562 14.1406 20.1551 14.1273C20.1517 14.0774 20.142 14.0304 20.1261 13.9828C20.1193 13.9636 20.1137 13.9446 20.1052 13.9247C20.0773 13.8637 20.0422 13.8057 19.9934 13.7564V13.7559C19.9923 13.7559 19.9917 13.7553 19.9917 13.7553L10.0882 3.85154C10.0377 3.80172 9.97907 3.76633 9.91706 3.73792C9.90093 3.73018 9.88337 3.72546 9.86658 3.7198C9.81675 3.70225 9.76635 3.69205 9.71331 3.68922C9.70114 3.68781 9.6901 3.68158 9.67736 3.68158H7V2.70992C7 1.2159 8.21609 0 9.70992 0H15.6731V6.03467C15.6731 8.16882 17.4094 9.90462 19.5437 9.90462H25.5778V22.4488C25.5789 23.9426 24.3633 25.1576 22.8695 25.1576Z" fill="#828282"/>
</svg>
