<svg width="30" height="30" viewBox="0 0 30 30" fill="none" xmlns="http://www.w3.org/2000/svg">
<g clip-path="url(#clip0)">
<path d="M21.4354 0C21.0754 0 20.7832 0.292194 20.7832 0.652194V18.9131C20.7832 19.2731 21.0754 19.5653 21.4354 19.5653C21.7954 19.5653 22.0876 19.2731 22.0876 18.9131V0.652194C22.0876 0.292194 21.7954 0 21.4354 0Z" fill="#828282"/>
<path d="M21.4354 24C21.0754 24 20.7832 24.448 20.7832 25V29C20.7832 29.552 21.0754 30 21.4354 30C21.7954 30 22.0876 29.552 22.0876 29V24.9999C22.0876 24.4479 21.7954 24 21.4354 24Z" fill="#828282"/>
<path d="M9.56626 10.4348C9.20626 10.4348 8.91406 10.727 8.91406 11.087V29.3478C8.91406 29.7078 9.20626 30 9.56626 30C9.92626 30 10.2184 29.7078 10.2184 29.3478V11.0869C10.2184 10.7269 9.92626 10.4348 9.56626 10.4348Z" fill="#828282"/>
<path d="M9.56626 0C9.20626 0 8.91406 0.448031 8.91406 1.00003V5.00006C8.91406 5.55197 9.20626 6 9.56626 6C9.92626 6 10.2184 5.55197 10.2184 4.99997V1.00003C10.2184 0.448031 9.92626 0 9.56626 0Z" fill="#828282"/>
<rect x="5.75" y="5.39136" width="7.5" height="8.25" rx="2" fill="#828282"/>
<path d="M10.8696 5H8.26085C6.46348 5 5 6.46348 5 8.26085V10.8696C5 12.6669 6.46348 14.1304 8.26085 14.1304H10.8696C12.6669 14.1304 14.1304 12.6669 14.1304 10.8696V8.26085C14.1304 6.46348 12.6669 5 10.8696 5ZM12.8261 10.8696C12.8261 11.9483 11.9483 12.8261 10.8696 12.8261H8.26085C7.18213 12.8261 6.30433 11.9483 6.30433 10.8696V8.26085C6.30433 7.18213 7.18213 6.30433 8.26085 6.30433H10.8696C11.9483 6.30433 12.8261 7.18213 12.8261 8.26085V10.8696Z" fill="#828282"/>
<rect x="17.75" y="16.489" width="7.5" height="8.25" rx="3" fill="#828282"/>
<path d="M22.7387 16H20.13C18.3326 16 16.8691 17.4635 16.8691 19.2608V21.8696C16.8691 23.6669 18.3326 25.1304 20.13 25.1304H22.7387C24.5361 25.1304 25.9995 23.6669 25.9995 21.8696V19.2608C25.9996 17.4635 24.5361 16 22.7387 16ZM24.6952 21.8696C24.6952 22.9483 23.8174 23.8261 22.7387 23.8261H20.13C19.0513 23.8261 18.1735 22.9483 18.1735 21.8696V19.2608C18.1735 18.1821 19.0513 17.3043 20.13 17.3043H22.7387C23.8174 17.3043 24.6952 18.1821 24.6952 19.2608V21.8696Z" fill="#828282"/>
</g>
<defs>
<clipPath id="clip0">
<rect width="30" height="30" fill="white"/>
</clipPath>
</defs>
</svg>
