<svg width="25" height="25" viewBox="0 0 25 25" fill="none" xmlns="http://www.w3.org/2000/svg">
<path d="M12.4585 22.8821H3.1146C2.5415 22.8821 2.07642 22.417 2.07642 21.8439V3.15616C2.07642 2.58306 2.54155 2.11798 3.1146 2.11798H12.4585C13.0326 2.11798 13.4967 1.65391 13.4967 1.07979C13.4967 0.505672 13.0326 0.0415115 12.4585 0.0415115H3.1146C1.39741 0.0415115 0 1.43897 0 3.15616V21.8439C0 23.561 1.39741 24.9585 3.1146 24.9585H12.4585C13.0326 24.9585 13.4967 24.4944 13.4967 23.9203C13.4967 23.3461 13.0326 22.8821 12.4585 22.8821Z" fill="white"/>
<path d="M24.6896 11.7608L18.3773 5.53154C17.9704 5.12871 17.3122 5.13394 16.9093 5.54194C16.5065 5.94995 16.5106 6.60713 16.9197 7.00996L21.4307 11.4618H9.34287C8.76875 11.4618 8.30469 11.9258 8.30469 12.5C8.30469 13.0741 8.76875 13.5382 9.34287 13.5382H21.4307L16.9197 17.99C16.5107 18.3928 16.5076 19.05 16.9093 19.458C17.1128 19.6636 17.3807 19.7674 17.6485 19.7674C17.9123 19.7674 18.1759 19.6677 18.3773 19.4684L24.6896 13.2391C24.8869 13.0439 24.999 12.7781 24.999 12.4999C24.999 12.2218 24.8879 11.957 24.6896 11.7608Z" fill="white"/>
</svg>
