<svg width="24" height="30" viewBox="0 0 24 30" fill="none" xmlns="http://www.w3.org/2000/svg">
<path d="M11.9999 18.9474C14.6841 18.9474 16.7367 16.8947 16.7367 14.2105V4.73684C16.7367 2.05263 14.6841 0 11.9999 0C9.31569 0 7.26306 2.05263 7.26306 4.73684V14.2105C7.26306 16.8947 9.31569 18.9474 11.9999 18.9474ZM20.3683 14.2105C20.3683 18.9474 16.421 22.2632 11.9999 22.2632C7.57885 22.2632 3.63148 18.9474 3.63148 14.2105H0.947266C0.947266 19.5789 5.21042 24 10.421 24.7895V30H13.5788V24.7895C18.7894 24 23.0525 19.579 23.0525 14.2105H20.3683Z" fill="#828282"/>
</svg>
