<svg width="21" height="19" viewBox="0 0 21 19" fill="none" xmlns="http://www.w3.org/2000/svg">
<path d="M17.7468 10.4991C17.7426 10.4991 17.7384 10.5 17.7342 10.5C13.7145 10.5 10.4426 7.2291 10.4426 3.2084C10.4426 2.1031 10.6969 1.05825 11.1396 0.11869C10.9103 0.0969467 10.678 0.0834045 10.4426 0.0834045C6.41566 0.0834045 3.15104 3.34783 3.15104 7.37501V10.2791C3.15104 12.3406 2.24791 14.2865 0.663475 15.626C0.13533 16.0771 -0.0990828 16.7958 0.0905076 17.4969C0.311379 18.3125 1.11761 18.8334 1.96352 18.8334H18.9166C19.8041 18.8334 20.6407 18.2583 20.8207 17.3886C20.9603 16.7157 20.7208 16.0437 20.1989 15.6052C18.6843 14.3355 17.8083 12.4697 17.7468 10.4991Z" fill="white"/>
</svg>
