<svg width="20" height="20" viewBox="0 0 20 20" fill="none" xmlns="http://www.w3.org/2000/svg">
<path d="M10.2359 13.2332C10.27 13.1406 10.3081 13.0497 10.349 12.9594C10.1447 12.6638 10.035 12.3138 10.035 11.9471C10.035 11.4693 10.2216 11.0205 10.5577 10.6852C10.8953 10.3467 11.3444 10.1605 11.8226 10.1605C12.189 10.1605 12.5383 10.2702 12.8338 10.4738C12.9244 10.4334 13.0152 10.3956 13.1082 10.3608C13.2619 9.53075 13.9908 8.90005 14.865 8.90005C15.0666 8.90005 15.2597 8.93684 15.4408 8.99887C15.7672 8.75363 15.9814 8.36679 15.9814 7.92718C15.9814 7.18442 15.3791 6.58228 14.6365 6.58228H13.8175C13.6685 5.94302 13.4164 5.34514 13.0794 4.80402L13.6601 4.22382C14.1853 3.69881 14.1853 2.84704 13.6601 2.32202C13.1346 1.79676 12.2823 1.79676 11.7581 2.32202L11.1778 2.90222C10.6365 2.565 10.0385 2.31294 9.39952 2.16413V1.3449C9.39952 0.60214 8.7966 0 8.05446 0C7.3113 0 6.70956 0.602181 6.70956 1.3449V2.16404C6.06997 2.31286 5.47169 2.56496 4.93069 2.90213L4.3509 2.32231C3.82609 1.79701 2.97383 1.79701 2.44902 2.32231C1.9236 2.84737 1.9236 3.69909 2.44902 4.22407L3.02881 4.80394C2.69207 5.34506 2.43973 5.94294 2.29153 6.5822H1.47181C0.729012 6.5822 0.126953 7.18438 0.126953 7.9271C0.126953 8.66981 0.729053 9.27199 1.47181 9.27199H2.29144C2.43965 9.91133 2.69199 10.5095 3.02958 11.0506L2.4489 11.6308C1.92347 12.1558 1.92347 13.0076 2.4489 13.5326C2.71155 13.7953 3.05562 13.9266 3.39978 13.9266C3.74385 13.9266 4.08797 13.7953 4.35078 13.5326L4.93121 12.9524C5.47222 13.2893 6.06985 13.5415 6.70944 13.6902V14.5094C6.70944 15.2521 7.31113 15.8543 8.05434 15.8543C8.36433 15.8543 8.64674 15.7449 8.87397 15.5683C8.81226 15.3864 8.77478 15.1927 8.77478 14.9901C8.77478 14.1164 9.40528 13.3868 10.2359 13.2332ZM8.05434 10.6186C6.56773 10.6186 5.36215 9.41354 5.36215 7.92714C5.36215 6.44069 6.56777 5.23572 8.05434 5.23572C9.5405 5.23572 10.7455 6.44069 10.7455 7.92714C10.7455 9.41354 9.5405 10.6186 8.05434 10.6186Z" fill="#21317A"/>
<path d="M19.1685 14.2839H18.6693C18.5695 13.7405 18.3574 13.2368 18.0559 12.7988L18.408 12.4471C18.6837 12.1713 18.6837 11.7238 18.408 11.448C18.2701 11.3098 18.0888 11.2408 17.9083 11.2408C17.7276 11.2408 17.5465 11.3098 17.4085 11.448L17.0564 11.8C16.6193 11.4979 16.1149 11.2861 15.5711 11.1857V10.6869C15.5711 10.2968 15.2553 9.98068 14.8653 9.98068C14.4753 9.98068 14.1594 10.2968 14.1594 10.6869V11.1857C13.6156 11.2862 13.1119 11.4979 12.6738 11.7997L12.322 11.4484C12.184 11.3105 12.0033 11.2412 11.8228 11.2412C11.6414 11.2412 11.4604 11.3105 11.3231 11.4484C11.0466 11.7239 11.0466 12.1713 11.3231 12.4472L11.6743 12.7988C11.373 13.2369 11.1609 13.7405 11.0611 14.2839H10.562C10.172 14.2839 9.85547 14.6001 9.85547 14.9902C9.85547 15.3806 10.172 15.6968 10.562 15.6968H11.0611C11.1609 16.2401 11.373 16.7435 11.675 17.1818L11.3231 17.5338C11.0466 17.8096 11.0466 18.2568 11.3231 18.5326C11.461 18.6705 11.6415 18.7398 11.8228 18.7398C12.0032 18.7398 12.184 18.6705 12.322 18.5326L12.6738 18.181C13.1119 18.4824 13.6156 18.6942 14.1594 18.7946V19.2934C14.1594 19.6838 14.4753 20 14.8653 20C15.2553 20 15.5711 19.6838 15.5711 19.2934V18.795C16.1149 18.6942 16.6184 18.4824 17.0564 18.1807L17.4085 18.5329C17.5465 18.6709 17.7276 18.7398 17.9083 18.7398C18.0888 18.7398 18.2701 18.6709 18.408 18.5329C18.6837 18.2572 18.6837 17.8096 18.408 17.5338L18.0559 17.1818C18.3575 16.7435 18.5695 16.2401 18.6693 15.6968H19.1685C19.5585 15.6968 19.875 15.3806 19.875 14.9902C19.875 14.6001 19.5585 14.2839 19.1685 14.2839ZM14.8652 16.4486C14.0595 16.4486 13.4066 15.7956 13.4066 14.9902C13.4066 14.1847 14.0595 13.5317 14.8652 13.5317C15.6709 13.5317 16.3235 14.1847 16.3235 14.9902C16.3235 15.7956 15.6709 16.4486 14.8652 16.4486Z" fill="#21317A"/>
</svg>
