<svg width="30" height="28" viewBox="0 0 30 28" fill="none" xmlns="http://www.w3.org/2000/svg">
<path d="M23.5437 0.913879H6.45631C2.89671 0.913879 0 3.87384 0 7.51119V14.0462C0 17.6836 2.89671 20.6435 6.45631 20.6435H17.2568L25.1083 27.0861V20.4449C27.9483 19.7216 30 17.1068 30 14.0462V7.51119C30 3.87384 27.1033 0.913879 23.5437 0.913879ZM6.90857 13.5967C6.14412 13.5967 5.46294 13.4301 5.02169 13.1912L5.34398 11.8893C5.67814 12.0926 6.3712 12.3315 6.90863 12.3315C7.45794 12.3315 7.68502 12.1402 7.68502 11.8417C7.68502 11.5423 7.50557 11.3995 6.82537 11.1725C5.61869 10.766 5.15271 10.1096 5.16459 9.41649C5.16459 8.32976 6.09661 7.5058 7.54133 7.5058C8.22245 7.5058 8.83224 7.66051 9.19016 7.83996L8.86788 9.09421C8.6051 8.95045 8.10343 8.75913 7.60169 8.75913C7.15947 8.75913 6.90863 8.93857 6.90863 9.23704C6.90863 9.5117 7.13565 9.65545 7.85253 9.90629C8.96308 10.2881 9.42906 10.8502 9.441 11.7099C9.44094 12.7966 8.58122 13.5967 6.90857 13.5967ZM19.3662 13.4777H17.5983V10.3008C17.5983 9.45213 17.3227 8.96233 16.7377 8.96233C16.3202 8.96233 16.0209 9.24886 15.9018 9.59588C15.8542 9.72678 15.8304 9.91817 15.8304 10.0619V13.4777H14.0626V10.2047C14.0626 9.464 13.7998 8.96233 13.2258 8.96233C12.7607 8.96233 12.4851 9.32123 12.378 9.6197C12.3185 9.76253 12.3066 9.93004 12.3066 10.0738V13.4778H10.5388V9.49982C10.5388 8.77198 10.5149 8.15031 10.4911 7.6367H12.0201L12.1034 8.42496H12.1391C12.3899 8.0551 12.9036 7.5058 13.907 7.5058C14.6595 7.5058 15.2565 7.88759 15.5073 8.49641H15.5311C15.7463 8.19794 16.009 7.95898 16.2837 7.79239C16.6069 7.60106 16.9648 7.50586 17.3952 7.50586C18.5176 7.50586 19.3663 8.29413 19.3663 10.0373V13.4777H19.3662ZM22.3618 13.5967C21.5973 13.5967 20.9161 13.4301 20.4749 13.1912L20.7972 11.8893C21.1313 12.0926 21.8244 12.3315 22.3618 12.3315C22.9111 12.3315 23.1382 12.1402 23.1382 11.8417C23.1382 11.5423 22.9588 11.3995 22.2785 11.1725C21.0718 10.766 20.6058 10.1096 20.6177 9.41649C20.6177 8.32976 21.5497 7.5058 22.9944 7.5058C23.6756 7.5058 24.2844 7.66051 24.6433 7.83996L24.321 9.09421C24.0582 8.95045 23.5566 8.75913 23.0548 8.75913C22.6126 8.75913 22.3618 8.93857 22.3618 9.23704C22.3618 9.5117 22.5888 9.65545 23.3057 9.90629C24.4162 10.2881 24.8822 10.8502 24.8941 11.7099C24.8941 12.7966 24.0344 13.5967 22.3618 13.5967Z" fill="#828282"/>
</svg>
