<svg width="15" height="15" viewBox="0 0 15 15" fill="none" xmlns="http://www.w3.org/2000/svg">
<g clip-path="url(#clip0)">
<path d="M6.19521 1.30437H14.6734C14.8537 1.30437 14.9995 1.15829 14.9995 0.978294C14.9995 0.798295 14.8537 0.652222 14.6734 0.652222H6.19521C6.01521 0.652222 5.86914 0.798295 5.86914 0.978294C5.86914 1.15829 6.01521 1.30437 6.19521 1.30437Z" fill="#231F20"/>
<path d="M14.6734 5.86957H6.19521C6.01521 5.86957 5.86914 6.01564 5.86914 6.19564C5.86914 6.37564 6.01521 6.52171 6.19521 6.52171H14.6734C14.8537 6.52171 14.9995 6.37564 14.9995 6.19564C14.9995 6.01564 14.8537 5.86957 14.6734 5.86957Z" fill="#231F20"/>
<path d="M6.19521 3.91307H12.0647C12.2451 3.91307 12.3908 3.767 12.3908 3.587C12.3908 3.407 12.2451 3.26093 12.0647 3.26093H6.19521C6.01521 3.26093 5.86914 3.407 5.86914 3.587C5.86914 3.76697 6.01521 3.91307 6.19521 3.91307Z" fill="#231F20"/>
<path d="M12.0647 13.6956H6.19521C6.01521 13.6956 5.86914 13.8414 5.86914 14.0217C5.86914 14.202 6.01521 14.3478 6.19521 14.3478H12.0647C12.2451 14.3478 12.3908 14.202 12.3908 14.0217C12.3908 13.8414 12.2451 13.6956 12.0647 13.6956Z" fill="#231F20"/>
<path d="M14.6734 11.0869H6.19521C6.01521 11.0869 5.86914 11.2327 5.86914 11.413C5.86914 11.5933 6.01521 11.7391 6.19521 11.7391H14.6734C14.8537 11.7391 14.9995 11.5933 14.9995 11.413C14.9995 11.2327 14.8537 11.0869 14.6734 11.0869Z" fill="#231F20"/>
<path d="M6.19521 9.13045H12.0647C12.2451 9.13045 12.3908 8.98469 12.3908 8.80437C12.3908 8.62405 12.2451 8.4783 12.0647 8.4783H6.19521C6.01521 8.4783 5.86914 8.62405 5.86914 8.80437C5.86914 8.98467 6.01521 9.13045 6.19521 9.13045Z" fill="#231F20"/>
<path d="M4.00864 2.51369C4.13614 2.64119 4.34221 2.64119 4.46971 2.51369C4.53328 2.45012 4.56525 2.36662 4.56525 2.28316C4.56525 2.19969 4.53328 2.11619 4.46971 2.05262L2.51322 0.0960978C2.45518 0.038061 2.3805 0.0064206 2.30454 0.00120578H2.30419C2.28365 -0.000112568 2.26311 0.000561256 2.24287 0.00316866C2.24254 0.00316866 2.24255 0.00316866 2.24222 0.00316866C2.17962 0.0109909 2.11897 0.0367427 2.06841 0.0807756C2.06222 0.0863127 2.05633 0.0918498 2.05048 0.0977384L0.0956244 2.05259C-0.0318748 2.18009 -0.0318748 2.38616 0.0956244 2.51366C0.223124 2.64116 0.429197 2.64116 0.556696 2.51366L1.95658 1.11378V13.8872L0.557018 12.4873C0.429519 12.3598 0.223446 12.3598 0.0959467 12.4873C-0.0315525 12.6148 -0.0315525 12.8209 0.0959467 12.9484L2.05083 14.9032C2.05669 14.9091 2.06258 14.9147 2.06876 14.9202C2.11897 14.9639 2.17929 14.99 2.24158 14.9978H2.2419C2.25526 14.9994 2.26897 15.0004 2.28265 15.0004C2.28983 15.0004 2.29701 15.0001 2.30419 14.9998C2.30451 14.9998 2.30451 14.9998 2.30451 14.9998C2.38047 14.9946 2.45515 14.9632 2.51319 14.9049L4.46971 12.9484C4.53328 12.8848 4.56525 12.8013 4.56525 12.7178C4.56525 12.6344 4.53328 12.5509 4.46971 12.4873C4.34221 12.3598 4.13614 12.3598 4.00864 12.4873L2.60875 13.8872V1.11381L4.00864 2.51369Z" fill="#231F20"/>
</g>
<defs>
<clipPath id="clip0">
<rect width="15" height="15" fill="white"/>
</clipPath>
</defs>
</svg>
