<svg xmlns="http://www.w3.org/2000/svg" xmlns:xlink="http://www.w3.org/1999/xlink" width="161" height="7" viewBox="0 0 161 7"><defs><path id="xpfta" d="M658 344.5c0-.28.22-.5.5-.5h159a.5.5 0 0 1 0 1h-159a.5.5 0 0 1-.5-.5z"/><path id="xpftb" d="M819 344.53c0 .12-.05.25-.14.34l-3.02 3c-.2.2-.5.2-.7 0-.19-.18-.19-.5 0-.68l2.67-2.66-2.67-2.66c-.19-.2-.19-.5 0-.7.2-.19.5-.19.7 0l3.02 3.01c.1.1.14.22.14.35z"/></defs><g><g transform="translate(-658 -341)"><use fill="#141414" xlink:href="#xpfta"/></g><g transform="translate(-658 -341)"><use fill="#3a3938" xlink:href="#xpftb"/></g></g></svg>