<svg xmlns="http://www.w3.org/2000/svg" xmlns:xlink="http://www.w3.org/1999/xlink" width="8" height="8" viewBox="0 0 8 8"><defs><path id="oydva" d="M1063.7 645.58l-2.42 2.42 2.41 2.42a.93.93 0 0 1-.64 1.58.91.91 0 0 1-.65-.27l-2.42-2.43-2.41 2.43a.91.91 0 0 1-1.3 0 .93.93 0 0 1 0-1.3l2.41-2.43-2.41-2.42a.93.93 0 0 1 0-1.31.92.92 0 0 1 1.3 0l2.41 2.42 2.42-2.42a.92.92 0 0 1 1.3 0c.35.36.35.94 0 1.3z"/></defs><g><g transform="translate(-1056 -644)"><use fill="#ed1c24" xlink:href="#oydva"/></g></g></svg>