<svg width="35" height="35" viewBox="0 0 35 35" fill="none" xmlns="http://www.w3.org/2000/svg">
<path d="M21.9731 0.957886L31.2172 10.2013H25.1334C23.3907 10.2013 21.9731 8.78347 21.9731 7.04034V0.957886Z" fill="#828282"/>
<path d="M24.5034 31.8392C24.5034 33.582 23.0839 35.0001 21.3412 35.0001H5.98952C4.24617 35.0001 2.82861 33.582 2.82861 31.8392V8.81074C2.82861 7.06739 4.24617 5.64917 5.98952 5.64917H9.82348H12.9471V12.6893C12.9471 15.1791 14.9722 17.2042 17.462 17.2042H24.5034V30.0277V31.8392Z" fill="#828282"/>
<path d="M23.5463 15.85H17.4622C15.7197 15.85 14.3013 14.4326 14.3013 12.6891V6.60632L23.5463 15.85Z" fill="#828282"/>
<path d="M29.0145 29.3506H25.8575V16.5271C25.8575 16.5116 25.8489 16.4974 25.8476 16.4819C25.8437 16.4236 25.8323 16.3688 25.8138 16.3133C25.8059 16.2909 25.7993 16.2687 25.7894 16.2455C25.7569 16.1744 25.7159 16.1067 25.659 16.0492V16.0485C25.6577 16.0485 25.657 16.0479 25.657 16.0479L14.1029 4.49347C14.044 4.43534 13.9756 4.39405 13.9032 4.36091C13.8844 4.35188 13.8639 4.34637 13.8443 4.33977C13.7862 4.31929 13.7274 4.3074 13.6655 4.30409C13.6513 4.30244 13.6384 4.29518 13.6236 4.29518H10.5V3.16157C10.5 1.41855 11.9188 0 13.6616 0H20.6187V7.04045C20.6187 9.53029 22.6443 11.5554 25.1343 11.5554H32.1741V26.1903C32.1754 27.933 30.7572 29.3506 29.0145 29.3506Z" fill="#828282"/>
</svg>
