<svg width="18" height="18" viewBox="0 0 18 18" fill="none" xmlns="http://www.w3.org/2000/svg">
<path d="M7 13.9923C8.70543 13.9923 10.2558 13.3876 11.4651 12.3644L16.8915 17.7907C17.0155 17.9147 17.1705 17.9768 17.3411 17.9768C17.5116 17.9768 17.6667 17.9147 17.7907 17.7907C18.0388 17.5427 18.0388 17.1395 17.7907 16.8915L12.3643 11.4651C13.3721 10.2558 13.9922 8.68994 13.9922 7.00001C13.9922 3.13955 10.8605 0.00776672 7 0.00776672C3.15504 0.00776672 0.00775146 3.15505 0.00775146 7.00001C0.00775146 10.8605 3.15504 13.9923 7 13.9923ZM7 1.27908C10.1628 1.27908 12.7209 3.85273 12.7209 7.00001C12.7209 10.1628 10.1628 12.7209 7 12.7209C3.83721 12.7209 1.27907 10.1473 1.27907 7.00001C1.27907 3.85273 3.85271 1.27908 7 1.27908Z" fill="#21317A"/>
</svg>
