<svg width="20" height="20" viewBox="0 0 20 20" fill="none" xmlns="http://www.w3.org/2000/svg">
<path d="M10.2351 13.2332C10.2692 13.1406 10.3073 13.0497 10.3482 12.9594C10.1439 12.6638 10.0341 12.3138 10.0341 11.9471C10.0341 11.4693 10.2207 11.0205 10.5568 10.6852C10.8944 10.3467 11.3436 10.1605 11.8217 10.1605C12.1881 10.1605 12.5375 10.2702 12.833 10.4738C12.9235 10.4334 13.0143 10.3956 13.1074 10.3608C13.2611 9.53075 13.99 8.90005 14.8642 8.90005C15.0657 8.90005 15.2588 8.93684 15.4399 8.99887C15.7663 8.75363 15.9805 8.36679 15.9805 7.92718C15.9805 7.18442 15.3782 6.58228 14.6356 6.58228H13.8167C13.6676 5.94302 13.4155 5.34514 13.0786 4.80402L13.6592 4.22382C14.1844 3.69881 14.1844 2.84704 13.6592 2.32202C13.1338 1.79676 12.2815 1.79676 11.7573 2.32202L11.1769 2.90222C10.6357 2.565 10.0376 2.31294 9.39866 2.16413V1.3449C9.39866 0.60214 8.79575 0 8.0536 0C7.31044 0 6.70871 0.602181 6.70871 1.3449V2.16404C6.06912 2.31286 5.47083 2.56496 4.92983 2.90213L4.35005 2.32231C3.82523 1.79701 2.97298 1.79701 2.44816 2.32231C1.92274 2.84737 1.92274 3.69909 2.44816 4.22407L3.02795 4.80394C2.69122 5.34506 2.43887 5.94294 2.29067 6.5822H1.47095C0.728158 6.5822 0.126099 7.18438 0.126099 7.9271C0.126099 8.66981 0.728198 9.27199 1.47095 9.27199H2.29059C2.43879 9.91133 2.69114 10.5095 3.02872 11.0506L2.44804 11.6308C1.92262 12.1558 1.92262 13.0076 2.44804 13.5326C2.71069 13.7953 3.05477 13.9266 3.39892 13.9266C3.743 13.9266 4.08711 13.7953 4.34992 13.5326L4.93036 12.9524C5.47136 13.2893 6.069 13.5415 6.70858 13.6902V14.5094C6.70858 15.2521 7.31028 15.8543 8.05348 15.8543C8.36348 15.8543 8.64588 15.7449 8.87312 15.5683C8.81141 15.3864 8.77392 15.1927 8.77392 14.9901C8.77392 14.1164 9.40442 13.3868 10.2351 13.2332ZM8.05348 10.6186C6.56687 10.6186 5.36129 9.41354 5.36129 7.92714C5.36129 6.44069 6.56691 5.23572 8.05348 5.23572C9.53964 5.23572 10.7447 6.44069 10.7447 7.92714C10.7447 9.41354 9.53964 10.6186 8.05348 10.6186Z" fill="#21317A"/>
<path d="M19.1674 14.2838H18.6683C18.5684 13.7405 18.3564 13.2368 18.0548 12.7987L18.4069 12.4471C18.6826 12.1713 18.6826 11.7238 18.4069 11.448C18.269 11.3098 18.0877 11.2408 17.9072 11.2408C17.7265 11.2408 17.5454 11.3098 17.4075 11.448L17.0554 11.8C16.6182 11.4979 16.1138 11.2861 15.5701 11.1856V10.6869C15.5701 10.2968 15.2542 9.98067 14.8642 9.98067C14.4742 9.98067 14.1583 10.2968 14.1583 10.6869V11.1856C13.6145 11.2862 13.1108 11.4979 12.6727 11.7997L12.3209 11.4484C12.1829 11.3105 12.0022 11.2412 11.8217 11.2412C11.6404 11.2412 11.4593 11.3105 11.322 11.4484C11.0455 11.7238 11.0455 12.1713 11.322 12.4472L11.6733 12.7988C11.3719 13.2369 11.1598 13.7405 11.06 14.2839H10.5609C10.1709 14.2839 9.85439 14.6001 9.85439 14.9902C9.85439 15.3806 10.1709 15.6968 10.5609 15.6968H11.06C11.1598 16.2401 11.3719 16.7435 11.6739 17.1818L11.322 17.5338C11.0455 17.8096 11.0455 18.2568 11.322 18.5326C11.4599 18.6705 11.6404 18.7398 11.8217 18.7398C12.0022 18.7398 12.1829 18.6705 12.3209 18.5326L12.6727 18.181C13.1108 18.4824 13.6145 18.6942 14.1583 18.7946V19.2934C14.1583 19.6838 14.4742 20 14.8642 20C15.2542 20 15.5701 19.6838 15.5701 19.2934V18.7949C16.1138 18.6942 16.6174 18.4824 17.0554 18.1806L17.4075 18.5329C17.5454 18.6708 17.7265 18.7398 17.9072 18.7398C18.0877 18.7398 18.269 18.6709 18.4069 18.5329C18.6826 18.2572 18.6826 17.8096 18.4069 17.5338L18.0548 17.1818C18.3564 16.7435 18.5684 16.2401 18.6683 15.6968H19.1674C19.5574 15.6968 19.8739 15.3806 19.8739 14.9902C19.8739 14.6 19.5574 14.2838 19.1674 14.2838ZM14.8641 16.4486C14.0584 16.4486 13.4056 15.7956 13.4056 14.9902C13.4056 14.1847 14.0584 13.5316 14.8641 13.5316C15.6698 13.5316 16.3224 14.1847 16.3224 14.9902C16.3225 15.7956 15.6699 16.4486 14.8641 16.4486Z" fill="#21317A"/>
</svg>
