<svg width="30" height="30" viewBox="0 0 30 30" fill="none" xmlns="http://www.w3.org/2000/svg">
<g clip-path="url(#clip0)">
<path d="M27.4994 13.6024C26.8094 13.6024 26.2494 13.0424 26.2494 12.3524C26.2494 8.8462 24.8844 5.5512 22.4056 3.0712C21.9169 2.58245 21.9169 1.79245 22.4056 1.3037C22.8944 0.814946 23.6844 0.814946 24.1731 1.3037C27.1244 4.25495 28.7494 8.1787 28.7494 12.3524C28.7494 13.0424 28.1894 13.6024 27.4994 13.6024Z" fill="#828282"/>
<path d="M2.5 13.6024C1.81 13.6024 1.25 13.0424 1.25 12.3524C1.25 8.1787 2.875 4.25495 5.82625 1.3037C6.315 0.814946 7.105 0.814946 7.59375 1.3037C8.0825 1.79245 8.0825 2.58245 7.59375 3.0712C5.115 5.54995 3.75 8.8462 3.75 12.3524C3.75 13.0424 3.19 13.6024 2.5 13.6024Z" fill="#828282"/>
<path d="M26.7238 21.1413C24.8338 19.5438 23.75 17.2087 23.75 14.735V11.25C23.75 6.85125 20.4825 3.21 16.25 2.6V1.25C16.25 0.55875 15.69 0 15 0C14.31 0 13.75 0.55875 13.75 1.25V2.6C9.51625 3.21 6.25 6.85125 6.25 11.25V14.735C6.25 17.2087 5.16625 19.5437 3.265 21.1512C2.77875 21.5675 2.5 22.1725 2.5 22.8125C2.5 24.0187 3.48125 25 4.6875 25H25.3125C26.5188 25 27.5 24.0187 27.5 22.8125C27.5 22.1725 27.2213 21.5675 26.7238 21.1413Z" fill="#828282"/>
<path d="M15.0007 30C17.2645 30 19.1582 28.3863 19.5932 26.25H10.4082C10.8432 28.3863 12.737 30 15.0007 30Z" fill="#828282"/>
</g>
<defs>
<clipPath id="clip0">
<rect width="30" height="30" fill="white"/>
</clipPath>
</defs>
</svg>
