<svg width="15" height="15" viewBox="0 0 15 15" fill="none" xmlns="http://www.w3.org/2000/svg">
<g clip-path="url(#clip0)">
<path d="M8.32868 7.50077L14.8284 1.00104C15.0572 0.772199 15.0572 0.401184 14.8284 0.172376C14.5995 -0.0564324 14.2285 -0.0564617 13.9997 0.172376L7.49999 6.67211L1.00029 0.172376C0.771451 -0.0564617 0.400436 -0.0564617 0.171628 0.172376C-0.0571801 0.401213 -0.0572094 0.772228 0.171628 1.00104L6.67133 7.50074L0.171628 14.0005C-0.0572094 14.2293 -0.0572094 14.6003 0.171628 14.8291C0.286032 14.9435 0.436002 15.0007 0.585973 15.0007C0.735943 15.0007 0.885884 14.9435 1.00032 14.8291L7.49999 8.32943L13.9997 14.8291C14.1141 14.9435 14.2641 15.0007 14.414 15.0007C14.564 15.0007 14.714 14.9435 14.8284 14.8291C15.0572 14.6003 15.0572 14.2293 14.8284 14.0005L8.32868 7.50077Z" fill="#333333"/>
</g>
<defs>
<clipPath id="clip0">
<rect width="15" height="15" fill="white"/>
</clipPath>
</defs>
</svg>
