<svg width="40" height="40" viewBox="0 0 40 40" fill="none" xmlns="http://www.w3.org/2000/svg">
<g clip-path="url(#clip0)">
<path d="M9.31147 1.44237L4.91287 5.83948C4.63108 6.1212 4.83061 6.60307 5.22905 6.60307H9.62764C9.87467 6.60299 10.0749 6.40276 10.0749 6.15573V1.7587C10.0749 1.36026 9.59318 1.16073 9.31147 1.44237Z" fill="#ffffff"/>
<path d="M28.908 24.7559C24.7051 24.7559 21.2858 28.1752 21.2858 32.378C21.2858 36.5809 24.7051 40.0003 28.908 40.0003C33.1109 40.0003 36.5303 36.581 36.5303 32.378C36.5303 28.1752 33.111 24.7559 28.908 24.7559ZM27.7335 29.4037C27.7335 28.7551 28.2594 28.2292 28.9081 28.2292C29.5567 28.2292 30.0826 28.7551 30.0826 29.4037V32.3781C30.0826 33.0268 29.5567 33.5527 28.9081 33.5527C28.2594 33.5527 27.7335 33.0268 27.7335 32.3781V29.4037ZM30.0765 35.6019C30.0726 35.6403 30.0672 35.6787 30.0593 35.7162C30.0523 35.7538 30.042 35.7914 30.0311 35.8274C30.0202 35.8642 30.0068 35.9002 29.9928 35.9355C29.978 35.9707 29.9615 36.0059 29.9435 36.0396C29.9256 36.0733 29.906 36.1069 29.8848 36.1383C29.8635 36.1704 29.8402 36.2017 29.8158 36.2315C29.7915 36.2612 29.7657 36.2902 29.7384 36.3168C29.7117 36.3442 29.6828 36.3701 29.6531 36.3951C29.6232 36.4186 29.592 36.442 29.5599 36.4632C29.5285 36.4844 29.4949 36.5039 29.4612 36.5219C29.4274 36.54 29.3923 36.5564 29.357 36.5712C29.3218 36.5861 29.2858 36.5987 29.249 36.6096C29.2121 36.6213 29.1754 36.6308 29.1378 36.6378C29.1003 36.6456 29.0618 36.6519 29.0235 36.6551C28.9852 36.659 28.9468 36.6613 28.9084 36.6613C28.8701 36.6613 28.831 36.659 28.7926 36.6551C28.755 36.6519 28.7167 36.6457 28.6791 36.6378C28.6415 36.6308 28.6039 36.6214 28.5671 36.6096C28.5303 36.5987 28.4942 36.5861 28.4591 36.5712C28.4238 36.5564 28.3886 36.5399 28.3549 36.5219C28.3212 36.5039 28.2883 36.4844 28.2562 36.4632C28.2242 36.442 28.1928 36.4186 28.1638 36.3951C28.1332 36.37 28.105 36.3442 28.0777 36.3168C28.0502 36.2902 28.0243 36.2612 28.0002 36.2315C27.9758 36.2017 27.9532 36.1704 27.932 36.1383C27.9101 36.1069 27.8906 36.0733 27.8725 36.0396C27.8545 36.0059 27.8381 35.9707 27.824 35.9355C27.8092 35.9002 27.7958 35.8642 27.7849 35.8274C27.7739 35.7914 27.7645 35.7538 27.7567 35.7162C27.7488 35.6787 27.7434 35.6403 27.7394 35.6019C27.7354 35.5636 27.7339 35.5252 27.7339 35.4869C27.7339 35.4485 27.7356 35.4094 27.7394 35.371C27.7433 35.3334 27.7488 35.2951 27.7567 35.2575C27.7645 35.2199 27.7739 35.1823 27.7849 35.1455C27.7958 35.1095 27.8092 35.0727 27.824 35.0375C27.8381 35.0023 27.8545 34.967 27.8725 34.9334C27.8904 34.8997 27.91 34.8668 27.932 34.8347C27.9533 34.8026 27.9759 34.7712 28.0002 34.7423C28.0245 34.7125 28.0503 34.6835 28.0777 34.6562C28.1051 34.6295 28.1333 34.6029 28.1638 34.5787C28.1928 34.5544 28.2242 34.5317 28.2562 34.5105C28.2883 34.4894 28.3212 34.4691 28.3549 34.451C28.3886 34.433 28.4238 34.4166 28.4591 34.4025C28.4942 34.3876 28.5303 34.3743 28.5671 34.3634C28.6039 34.3524 28.6414 34.343 28.6791 34.3351C28.7167 34.3273 28.755 34.3219 28.7926 34.3179C28.8692 34.3101 28.9468 34.3101 29.0236 34.3179C29.0619 34.3218 29.1003 34.3273 29.1379 34.3351C29.1754 34.343 29.2122 34.3524 29.2491 34.3634C29.2859 34.3743 29.3219 34.3876 29.3571 34.4025C29.3924 34.4166 29.4275 34.433 29.4613 34.451C29.4949 34.4691 29.5285 34.4894 29.5599 34.5105C29.592 34.5317 29.6234 34.5544 29.6531 34.5787C29.6829 34.603 29.7119 34.6295 29.7385 34.6562C29.7659 34.6836 29.7917 34.7126 29.8159 34.7423C29.8403 34.7712 29.8636 34.8026 29.8849 34.8347C29.906 34.8668 29.9256 34.8997 29.9436 34.9334C29.9615 34.967 29.978 35.0023 29.9929 35.0375C30.007 35.0727 30.0203 35.1095 30.0312 35.1455C30.0422 35.1823 30.0524 35.2199 30.0594 35.2575C30.0673 35.2951 30.0727 35.3334 30.0766 35.371C30.0806 35.4094 30.0828 35.4485 30.0828 35.4869C30.0828 35.5252 30.0805 35.5636 30.0765 35.6019Z" fill="#ffffff"/>
<path d="M26.7713 0H12.8713C12.6242 0 12.424 0.200234 12.424 0.447266V7.72273C12.424 7.73195 12.4228 7.74094 12.4226 7.75008C12.4228 7.75922 12.424 7.7682 12.424 7.77742C12.424 8.4261 11.8981 8.95195 11.2495 8.95195H3.91696C3.66993 8.95195 3.4697 9.15219 3.4697 9.39922V31.3059C3.4697 33.1346 4.9522 34.6171 6.78095 34.6171H19.1231C19.6357 34.6171 20.0219 34.1504 19.9242 33.6473C19.8141 33.0799 19.7565 32.4938 19.7565 31.8943C19.7565 26.84 23.8538 23.1342 28.9081 23.1342C29.0192 23.1342 29.1299 23.1362 29.2402 23.1402C29.7009 23.1566 30.0825 22.7858 30.0825 22.3246V3.31125C30.0825 1.4825 28.6001 0 26.7713 0ZM15.3211 27.8703H9.34532C8.69665 27.8703 8.17079 27.3445 8.17079 26.6958C8.17079 26.0471 8.69665 25.5213 9.34532 25.5213H15.3211C15.9698 25.5213 16.4956 26.0471 16.4956 26.6958C16.4956 27.3445 15.9698 27.8703 15.3211 27.8703ZM24.207 23.1947H9.34524C8.69657 23.1947 8.17071 22.6688 8.17071 22.0202C8.17071 21.3715 8.69657 20.8456 9.34524 20.8456H24.207C24.8557 20.8456 25.3816 21.3715 25.3816 22.0202C25.3816 22.6688 24.8556 23.1947 24.207 23.1947ZM24.207 18.483H9.34524C8.69657 18.483 8.17071 17.9572 8.17071 17.3085C8.17071 16.6598 8.69657 16.134 9.34524 16.134H24.207C24.8557 16.134 25.3816 16.6598 25.3816 17.3085C25.3816 17.9572 24.8556 18.483 24.207 18.483ZM24.207 13.9523H9.34524C8.69657 13.9523 8.17071 13.4265 8.17071 12.7778C8.17071 12.1291 8.69657 11.6033 9.34524 11.6033H24.207C24.8557 11.6033 25.3816 12.1291 25.3816 12.7778C25.3816 13.4265 24.8556 13.9523 24.207 13.9523Z" fill="#ffffff"/>
</g>
<defs>
<clipPath id="clip0">
<rect width="40" height="40" fill="white"/>
</clipPath>
</defs>
</svg>
