<svg width="40" height="40" viewBox="0 0 40 40" fill="none" xmlns="http://www.w3.org/2000/svg">
<path d="M31.3916 2.55176H8.60841C3.86229 2.55176 0 6.49837 0 11.3482V20.0616C0 24.9114 3.86229 28.858 8.60841 28.858H23.0091L33.4778 37.4481V28.5931C37.2644 27.6287 40 24.1424 40 20.0616V11.3482C40 6.49837 36.1377 2.55176 31.3916 2.55176ZM9.21143 19.4622C8.19216 19.4622 7.28392 19.24 6.69559 18.9215L7.12531 17.1856C7.57086 17.4567 8.49494 17.7753 9.21151 17.7753C9.94392 17.7753 10.2467 17.5202 10.2467 17.1222C10.2467 16.723 10.0074 16.5326 9.10049 16.2299C7.49159 15.6879 6.87029 14.8127 6.88612 13.8886C6.88612 12.4396 8.12882 11.341 10.0551 11.341C10.9633 11.341 11.7763 11.5473 12.2536 11.7865L11.8238 13.4589C11.4735 13.2672 10.8046 13.0121 10.1356 13.0121C9.54596 13.0121 9.21151 13.2514 9.21151 13.6493C9.21151 14.0155 9.5142 14.2072 10.47 14.5416C11.9508 15.0507 12.5721 15.8002 12.588 16.9465C12.5879 18.3954 11.4416 19.4622 9.21143 19.4622ZM25.8216 19.3035H23.4644V15.0677C23.4644 13.9361 23.097 13.283 22.317 13.283C21.7603 13.283 21.3611 13.6651 21.2024 14.1278C21.1389 14.3023 21.1073 14.5575 21.1073 14.7491V19.3035H18.7501V14.9395C18.7501 13.9519 18.3998 13.283 17.6344 13.283C17.0143 13.283 16.6468 13.7616 16.504 14.1595C16.4247 14.35 16.4088 14.5733 16.4088 14.765V19.3036H14.0517V13.9997C14.0517 13.0292 14.0199 12.2003 13.9882 11.5155H16.0268L16.1379 12.5665H16.1855C16.5199 12.0734 17.2047 11.341 18.5426 11.341C19.546 11.341 20.342 11.85 20.6764 12.6618H20.7082C20.995 12.2638 21.3454 11.9452 21.7116 11.7231C22.1425 11.468 22.6198 11.3411 23.1936 11.3411C24.6901 11.3411 25.8217 12.3921 25.8217 14.7163V19.3035H25.8216ZM29.8157 19.4622C28.7964 19.4622 27.8882 19.24 27.2998 18.9215L27.7296 17.1856C28.1751 17.4567 29.0992 17.7753 29.8158 17.7753C30.5482 17.7753 30.8509 17.5202 30.8509 17.1222C30.8509 16.723 30.6117 16.5326 29.7047 16.2299C28.0958 15.6879 27.4744 14.8127 27.4903 13.8886C27.4903 12.4396 28.733 11.341 30.6593 11.341C31.5674 11.341 32.3793 11.5473 32.8577 11.7865L32.428 13.4589C32.0776 13.2672 31.4087 13.0121 30.7398 13.0121C30.1501 13.0121 29.8157 13.2514 29.8157 13.6493C29.8157 14.0155 30.1184 14.2072 31.0742 14.5416C32.5549 15.0507 33.1762 15.8002 33.1922 16.9465C33.1922 18.3954 32.0459 19.4622 29.8157 19.4622Z" fill="#495CFF"/>
</svg>
