<svg xmlns="http://www.w3.org/2000/svg" xmlns:xlink="http://www.w3.org/1999/xlink" width="118" height="69" viewBox="0 0 118 69"><defs><path id="l9gna" d="M1259.27 2500.05a.75.75 0 0 1-.45-.15l-5.72-4.28v43.63c0 .41-.34.74-.75.74h-40.24a.74.74 0 1 1 0-1.48h39.5v-44l-29.2-21.85-25.66 19.2a.75.75 0 0 1-1.04-.15.74.74 0 0 1 .14-1.04l26.11-19.53c.27-.2.63-.2.9 0l36.85 27.58a.74.74 0 0 1-.44 1.33zm-25.81 24.98h-22.1v-21.97h22.1zm-20.61-1.48h19.12v-19.01h-19.12zm-4.52-31.3a.74.74 0 0 1-.45-1.33l14.08-10.53c.27-.2.63-.2.9 0l14.08 10.54c.33.24.4.7.15 1.03a.75.75 0 0 1-1.05.15l-13.63-10.2-13.64 10.2c-.13.1-.29.15-.44.15zm-19 47.74c-4.38 0-8-3.36-8.38-7.63h-38.2a.74.74 0 0 1 0-1.48h12.22v-25.53-23.65c0-.73-.6-1.33-1.34-1.33h-10.89a.74.74 0 0 1-.74-.75c0-.4.33-.74.74-.74h10.89a2.83 2.83 0 0 1 2.83 2.82v6.26h.12c7.26.2 14.28 3.6 19.24 9.38a49.12 49.12 0 0 0 17.92 13.17c1.64.67 3.07 1.55 4.26 2.62 4.3 3.86 5.08 9.7 4.97 13.9a5.97 5.97 0 0 1-5.3 5.73 8.41 8.41 0 0 1-8.33 7.23zm0-16.74a8.4 8.4 0 0 1 8.42 8 4.47 4.47 0 0 0 3.73-4.25c.1-3.9-.6-9.29-4.48-12.77a13.17 13.17 0 0 0-3.82-2.35 50.66 50.66 0 0 1-18.5-13.58 24.95 24.95 0 0 0-18.22-8.86v41.44h24.5c.37-4.27 3.99-7.63 8.38-7.63zm0 1.48a6.92 6.92 0 0 0-6.92 6.9c0 3.79 3.1 6.88 6.93 6.88a6.92 6.92 0 0 0 6.92-6.89c0-3.8-3.1-6.89-6.92-6.89zm-.03 10.18a3.3 3.3 0 0 1-3.31-3.29c0-.4.33-.74.75-.74.4 0 .74.33.74.74a1.82 1.82 0 0 0 3.64 0c0-.4.33-.74.75-.74.4 0 .74.33.74.74a3.3 3.3 0 0 1-3.3 3.3zm-9.25-22.78h-17.64v12.78a.74.74 0 0 1-1.49 0v-26.52c0-.4.34-.73.75-.73h6.1c.42 0 .75.33.75.74 0 .4-.33.74-.75.74h-5.36v11.5h17.64a.74.74 0 1 1 0 1.49z"/></defs><g><g transform="translate(-1142 -2471)"><use fill="#fedd00" xlink:href="#l9gna"/></g></g></svg>