<svg xmlns="http://www.w3.org/2000/svg" xmlns:xlink="http://www.w3.org/1999/xlink" width="60" height="76" viewBox="0 0 60 76"><defs><path id="upj7a" d="M1370.26 2522.42v-1.21h7.63v-3.57a4.33 4.33 0 0 1 4.32-4.33h20.26v-37.13c0-2.19-1.78-3.97-3.96-3.97h-27.34a3.97 3.97 0 0 0-3.96 3.97v51.1a3.97 3.97 0 0 0 3.96 3.97h6.72v-8.83zm29.15-43.87h-29.15v-1.22h29.15zm-28.24 53.91a5.18 5.18 0 0 1-5.17-5.19v-51.09a5.18 5.18 0 0 1 5.17-5.18h27.34a5.18 5.18 0 0 1 5.17 5.18v37.13h9.77a4.33 4.33 0 0 1 4.31 4.33v3.93h5.04c1.76 0 3.2 1.44 3.2 3.21v19a3.21 3.21 0 0 1-3.2 3.22h-33.47a3.21 3.21 0 0 1-3.2-3.21v-5.06h-3.92a4.33 4.33 0 0 1-4.32-4.33v-1.94zm46.6 1.94a4.33 4.33 0 0 1-4.32 4.33h-26.11v1.8h37.45v-15.75a2 2 0 0 0-2-2h-5.03zm-29.32-58.99h-7.23v-1.21h7.23zm-.48 44.1a2.45 2.45 0 1 1-4.9 0 2.45 2.45 0 0 1 4.9 0m1.37-2.45a2.45 2.45 0 1 1-1.05 4.66 3.54 3.54 0 0 0 0-4.42c.32-.16.67-.24 1.05-.24m-1.9 15.95h-4.45a.6.6 0 0 1 0-1.21h4.44a.6.6 0 0 1 0 1.2zm8.4 0h-4.44a.6.6 0 0 1 0-1.21h4.44a.6.6 0 0 1 0 1.2zm8.41 0h-4.44a.6.6 0 0 1 0-1.21h4.44a.6.6 0 0 1 0 1.2zm8.41 0h-4.44a.6.6 0 0 1 0-1.21h4.44a.6.6 0 0 1 0 1.2zm-30.45-18.49c-1.72 0-3.11 1.4-3.11 3.12v16.76c0 1.72 1.4 3.12 3.1 3.12h31.25c1.7 0 3.1-1.4 3.1-3.12v-16.76c0-1.72-1.4-3.12-3.1-3.12zm5.13 29.27c0 1.1.89 2 1.99 2h33.47a2 2 0 0 0 1.99-2v-.35h-37.45zm-7.21-47.9c.12.16.21.35.28.56.07.22.1.46.1.74 0 .73-.22 1.29-.67 1.66-.44.37-1.1.55-1.95.55h-1.22v2.46h-1.46v-6.78h2.62c.23 0 .45 0 .67.03.22.03.43.07.63.14.2.06.39.14.55.24.17.1.32.24.45.4 0 0-.13-.15 0 0zm-1.19.93a.61.61 0 0 0-.23-.23c-.1-.05-.22-.1-.36-.11-.15-.02-.3-.03-.46-.03h-1.22v1.59h1.24c.22 0 .4-.02.54-.06a.9.9 0 0 0 .34-.16.58.58 0 0 0 .18-.25c.04-.1.06-.22.06-.36 0-.17-.03-.3-.09-.4 0 0 .06.1 0 0zm6.51-1.74l2.76 6.78h-1.63l-.7-1.87h-2.12l-.68 1.87h-1.55l2.6-6.78zm-.05 3.63l-.6-1.6-.59 1.6zm9.81-3.63l-2.69 3.95v2.83h-1.46v-2.83l-2.7-3.95h1.78l1.65 2.54 1.65-2.54z"/></defs><g><g transform="translate(-1366 -2471)"><use fill="#fedd00" xlink:href="#upj7a"/></g></g></svg>