<svg xmlns="http://www.w3.org/2000/svg" xmlns:xlink="http://www.w3.org/1999/xlink" width="82" height="81" viewBox="0 0 82 81"><defs><path id="wmata" d="M1193.57 2692.19c-4.74 0-8.98-2.17-11.8-5.58l-6.1 4.64a.69.69 0 0 1-.96-.14.7.7 0 0 1 .13-.97l6.1-4.64a15.4 15.4 0 0 1 11.94-24.15v-7.9c0-.39.31-.7.7-.7a.7.7 0 0 1 .68.7v7.9a15.4 15.4 0 0 1 14.65 15.41 15.4 15.4 0 0 1-15.34 15.43zm-13.96-15.43c0 2.93.9 5.65 2.43 7.9l9.64-7.32a2 2 0 0 1 1.2-2.44v-12.16a14.02 14.02 0 0 0-13.27 14.02zm13.96 14.04c7.7 0 13.96-6.3 13.96-14.04 0-7.5-5.89-13.65-13.27-14.02v12.16a2 2 0 0 1-.69 3.85c-.39 0-.75-.11-1.06-.3l-9.63 7.32a13.9 13.9 0 0 0 10.7 5.03zm-20.06-7.02a1.04 1.04 0 1 1 1.97-.69 1.04 1.04 0 0 1-1.97.7zm-1.13-5.7a1.04 1.04 0 1 1 2.06-.12c.05.57-.39 1.07-.96 1.1h-.06c-.55 0-1-.42-1.04-.97zm1.23-4.55a1.04 1.04 0 0 1-.8-1.23 1.03 1.03 0 1 1 2.02.44c-.1.48-.53.82-1 .82-.08 0-.15-.01-.22-.03zm1.6-5.28a1.04 1.04 0 1 1 1.4-.44c-.19.35-.55.56-.92.56a1 1 0 0 1-.48-.12zm2.96-4.66a1.05 1.05 0 0 1-.04-1.47c.4-.41 1.05-.43 1.46-.04a1.05 1.05 0 0 1-.71 1.8c-.26 0-.51-.1-.71-.29zm4.1-3.68c-.3-.5-.14-1.13.35-1.43.5-.3 1.13-.14 1.42.35.3.5.14 1.13-.35 1.43a1.02 1.02 0 0 1-1.42-.35zm4.93-2.45c-.15-.55.17-1.12.72-1.27.56-.16 1.12.16 1.28.72.15.55-.18 1.13-.73 1.28a1.03 1.03 0 0 1-1.28-.73zm6.37 56.08c-20.16 0-36.57-16.5-36.57-36.78 0-20.27 16.4-36.77 36.57-36.77s36.58 16.5 36.58 36.77c0 2.74-.3 5.47-.9 8.12a19.36 19.36 0 0 1-9.48 36.13 19.2 19.2 0 0 1-16.16-8.88c-3.25.93-6.63 1.4-10.04 1.4zm35.2-36.43h-4.17a.35.35 0 0 1-.34-.35c0-.19.15-.34.34-.34h4.17c-.19-19.24-15.72-34.85-34.85-35.04v4.19a.35.35 0 1 1-.7 0v-4.19c-19.12.19-34.65 15.8-34.84 35.04h4.17c.19 0 .34.15.34.34 0 .2-.15.35-.34.35h-4.17c.19 19.24 15.72 34.85 34.85 35.04v-4.19a.35.35 0 1 1 .69 0v4.19c3.04-.03 6.05-.45 8.96-1.25a19.29 19.29 0 0 1-2.33-9.22 19.3 19.3 0 0 1 19.22-19.32c2.94 0 5.72.66 8.22 1.85.5-2.32.75-4.7.78-7.1zm-15 30.43h-5.83v-3.9c0-.81.28-1.5.85-2.07a2.8 2.8 0 0 1 2.06-.86c.28 0 .5-.1.7-.29a.95.95 0 0 0 .27-.69v-.98c0-.27-.09-.5-.28-.69a.94.94 0 0 0-.69-.28c-.27 0-.5.1-.69.28a.94.94 0 0 0-.28.7h-1.94c0-.81.28-1.5.85-2.08a2.8 2.8 0 0 1 2.06-.86c.8 0 1.5.29 2.06.86.57.58.86 1.27.86 2.07v.98c0 .8-.29 1.5-.86 2.07a2.8 2.8 0 0 1-2.06.86c-.27 0-.5.1-.69.28a.94.94 0 0 0-.28.7v1.46c0 .33.16.49.49.49h3.4zm7.52 0h-1.94v-3.9h-3.89v-1.96l2.92-5.86h2.91zm-1.94-9.76l-1.95 3.9h1.46c.32 0 .49-.16.49-.48zm12.54 9.76h-1.95v-5.86c0-.27-.1-.5-.28-.69a.94.94 0 0 0-.69-.28c-.27 0-.5.1-.69.28a.95.95 0 0 0-.28.7v5.85h-1.94v-11.72h1.94v3.1a2.84 2.84 0 0 1 3.03.7c.57.57.86 1.26.86 2.06zm-12.12-23.8a17.91 17.91 0 0 0-17.84 17.94c0 9.9 8 17.94 17.84 17.94s17.85-8.05 17.85-17.94-8-17.93-17.85-17.93z"/></defs><g><g transform="translate(-1157 -2640)"><use fill="#fedd00" xlink:href="#wmata"/></g></g></svg>