<svg xmlns="http://www.w3.org/2000/svg" xmlns:xlink="http://www.w3.org/1999/xlink" width="61" height="78" viewBox="0 0 61 78"><defs><path id="kp2ya" d="M1395.4 2684.28a.84.84 0 0 1-.43-.13l-5.76-3.57-5.75 3.56a.83.83 0 0 1-.93-.03.83.83 0 0 1-.33-.87l1.6-6.75-5.18-4.78a.83.83 0 0 1 .52-1.44l6.71-.38 2.58-6.75a.84.84 0 0 1 1.56 0l2.58 6.75 6.72.38a.83.83 0 0 1 .51 1.44l-5.18 4.78 1.6 6.76a.83.83 0 0 1-.81 1.03zm-6.19-5.51c.16 0 .3.04.44.12l4.48 2.78-1.24-5.28c-.07-.29.02-.6.24-.8l4.1-3.77-5.3-.3a.83.83 0 0 1-.73-.53l-1.99-5.22-2 5.22c-.1.3-.4.52-.73.54l-5.28.3 4.1 3.76c.21.2.3.51.24.8l-1.25 5.27 4.48-2.77a.84.84 0 0 1 .44-.12zm13.37 42.2a.85.85 0 0 1-.39-.1l-12.98-6.83-12.98 6.82a.84.84 0 0 1-1.22-.73v-21.68h1.06l-.4-.63-6.09-.22-1.26-5.94-5.65-2.28.84-6.02-4.52-4.07 2.86-5.37-2.86-5.36 4.52-4.07-.84-6.02 5.65-2.28 1.26-5.94 6.1-.22 3.22-5.15 5.8 1.87 4.8-3.73 4.8 3.73 5.79-1.87 3.23 5.15 6.09.22 1.27 5.94 5.64 2.28-.84 6.02 4.52 4.07-2.85 5.36 2.85 5.37-4.52 4.07.84 6.02-5.64 2.28-1.27 5.94-6.09.22-.4.63h.5v21.68a.83.83 0 0 1-.84.83zm-25.9-2.23l12.14-6.38a.85.85 0 0 1 .78 0l12.14 6.38v-18.4l-1.65 2.63-5.8-1.87-4.8 3.74-4.8-3.74-5.79 1.87-2.22-3.54zm8.34-19.5l4.48 3.48 4.47-3.48 5.4 1.74 3-4.8 5.67-.2 1.19-5.53 5.26-2.13-.8-5.6 4.22-3.8-2.66-5 2.66-5-4.21-3.78.79-5.61-5.26-2.13-1.19-5.53-5.67-.2-3-4.8-5.4 1.74-4.47-3.48-4.48 3.48-5.4-1.74-3 4.8-5.67.2-1.19 5.53-5.25 2.13.78 5.6-4.21 3.8 2.66 5-2.66 5 4.21 3.79-.78 5.6 5.25 2.13 1.19 5.53 5.67.2 3 4.8zm24.8-23.62l-1.66-.1a18.24 18.24 0 0 0-19.26-19.36l-.1-1.67a19.9 19.9 0 0 1 21.02 21.13zm-19.9 18.66a19.9 19.9 0 0 1-19.92-21.15l1.67.1a18.24 18.24 0 0 0 19.39 19.35l.1 1.66c-.41.03-.83.04-1.24.04z"/></defs><g><g transform="translate(-1359 -2643)"><use fill="#fedd00" xlink:href="#kp2ya"/></g></g></svg>