<svg xmlns="http://www.w3.org/2000/svg" xmlns:xlink="http://www.w3.org/1999/xlink" viewBox="0 0 65.45 69.33"><defs><style>.cls-1{fill:#067853;}.cls-2{clip-path:url(#clip-path);}.cls-3{clip-path:url(#clip-path-2);}.cls-4{clip-path:url(#clip-path-3);}.cls-5{clip-path:url(#clip-path-4);}</style><clipPath id="clip-path"><path class="cls-1" d="M30.23,54.41a1.75,1.75,0,0,1-1.75-1.75V45.81H21.66a1.75,1.75,0,1,1,0-3.5h8.57A1.75,1.75,0,0,1,32,44.06v8.6A1.75,1.75,0,0,1,30.23,54.41Z"/></clipPath><clipPath id="clip-path-2"><path class="cls-1" d="M43.21,54.41a1.75,1.75,0,0,1-1.75-1.75V45.81H34.64a1.75,1.75,0,0,1,0-3.5h8.57A1.75,1.75,0,0,1,45,44.06v8.6A1.75,1.75,0,0,1,43.21,54.41Z"/></clipPath><clipPath id="clip-path-3"><path class="cls-1" d="M30.23,68.27a1.75,1.75,0,0,1-1.75-1.75V59.67H21.66a1.75,1.75,0,1,1,0-3.5h8.57A1.75,1.75,0,0,1,32,57.92v8.6A1.75,1.75,0,0,1,30.23,68.27Z"/></clipPath><clipPath id="clip-path-4"><path class="cls-1" d="M43.21,68.27a1.75,1.75,0,0,1-1.75-1.75V59.67H34.64a1.75,1.75,0,0,1,0-3.5h8.57A1.75,1.75,0,0,1,45,57.92v8.6A1.75,1.75,0,0,1,43.21,68.27Z"/></clipPath></defs><title>service 9</title><g id="Layer_2" data-name="Layer 2"><g id="Layer"><path class="cls-1" d="M64.8,24,33.64.31a1.52,1.52,0,0,0-1.83,0L.66,24a1.57,1.57,0,0,0-.5,2,1.51,1.51,0,0,0,2.26.5l1-.74V66.43A1.52,1.52,0,0,0,4.92,68h9a2,2,0,0,0,2-2V37.71H49.61V64.92l0,1.34A1.65,1.65,0,0,0,51.24,68h9.3a1.52,1.52,0,0,0,1.51-1.52V25.68l1,.74a1.49,1.49,0,0,0,.91.31,1.51,1.51,0,0,0,1.36-.83A1.56,1.56,0,0,0,64.8,24ZM32.73,3.42,49.66,16.28H24.32a1.52,1.52,0,1,0,0,3H53.65l3.77,2.86H8ZM59,64.92H52.64V36.2a1.52,1.52,0,0,0-1.52-1.52H14.33a1.52,1.52,0,0,0-1.51,1.52V64.92H6.43V25.2H59Z"/><path class="cls-1" d="M30.23,54.41a1.75,1.75,0,0,1-1.75-1.75V45.81H21.66a1.75,1.75,0,1,1,0-3.5h8.57A1.75,1.75,0,0,1,32,44.06v8.6A1.75,1.75,0,0,1,30.23,54.41Z"/><g class="cls-2"><rect class="cls-1" x="19.91" y="42.31" width="12.07" height="12.1"/><ellipse class="cls-1" cx="25.94" cy="48.36" rx="5.35" ry="7.11"/><ellipse class="cls-1" cx="25.94" cy="48.36" rx="4.8" ry="6.39"/><ellipse class="cls-1" cx="25.94" cy="48.36" rx="4.26" ry="5.67"/><ellipse class="cls-1" cx="25.94" cy="48.36" rx="3.67" ry="4.88"/></g><path class="cls-1" d="M43.21,54.41a1.75,1.75,0,0,1-1.75-1.75V45.81H34.64a1.75,1.75,0,0,1,0-3.5h8.57A1.75,1.75,0,0,1,45,44.06v8.6A1.75,1.75,0,0,1,43.21,54.41Z"/><g class="cls-3"><rect class="cls-1" x="32.89" y="42.31" width="12.07" height="12.1"/><ellipse class="cls-1" cx="38.93" cy="48.36" rx="5.35" ry="7.11"/><ellipse class="cls-1" cx="38.93" cy="48.36" rx="4.8" ry="6.39"/><ellipse class="cls-1" cx="38.93" cy="48.36" rx="4.26" ry="5.67"/><ellipse class="cls-1" cx="38.93" cy="48.36" rx="3.67" ry="4.88"/></g><path class="cls-1" d="M30.23,68.27a1.75,1.75,0,0,1-1.75-1.75V59.67H21.66a1.75,1.75,0,1,1,0-3.5h8.57A1.75,1.75,0,0,1,32,57.92v8.6A1.75,1.75,0,0,1,30.23,68.27Z"/><g class="cls-4"><rect class="cls-1" x="19.91" y="56.17" width="12.07" height="12.1"/><ellipse class="cls-1" cx="25.94" cy="62.22" rx="5.35" ry="7.11"/><ellipse class="cls-1" cx="25.94" cy="62.22" rx="4.8" ry="6.39"/><ellipse class="cls-1" cx="25.94" cy="62.22" rx="4.26" ry="5.67"/><ellipse class="cls-1" cx="25.94" cy="62.22" rx="3.67" ry="4.88"/></g><path class="cls-1" d="M43.21,68.27a1.75,1.75,0,0,1-1.75-1.75V59.67H34.64a1.75,1.75,0,0,1,0-3.5h8.57A1.75,1.75,0,0,1,45,57.92v8.6A1.75,1.75,0,0,1,43.21,68.27Z"/><g class="cls-5"><rect class="cls-1" x="32.89" y="56.17" width="12.07" height="12.1"/><ellipse class="cls-1" cx="38.93" cy="62.22" rx="5.35" ry="7.11"/><ellipse class="cls-1" cx="38.93" cy="62.22" rx="4.8" ry="6.39"/><ellipse class="cls-1" cx="38.93" cy="62.22" rx="4.26" ry="5.67"/><ellipse class="cls-1" cx="38.93" cy="62.22" rx="3.67" ry="4.88"/></g></g></g></svg>