<svg xmlns="http://www.w3.org/2000/svg" viewBox="0 0 70.77 70.77"><defs><style>.cls-1{fill:#067853;}</style></defs><title>service 2</title><g id="Layer_2" data-name="Layer 2"><g id="Layer"><path class="cls-1" d="M28.24,62.26a.13.13,0,0,0,0-.06v-.08a.13.13,0,0,1,0-.06s0-.05,0-.07a.19.19,0,0,0,0-.07s0,0,0-.05l-2.36-7.06L65.92,14.7h0c4.3-4.3,4.35-12.46,4.35-12.81A1.39,1.39,0,0,0,68.88.5c-.35,0-8.51.05-12.81,4.35l-8.64,8.63L6.17,3.17H5.59l-.07,0h0l-.09,0,0,0-.09,0h0l-.09,0,0,0L5,3.39l0,0-.06.05,0,0s0,0,0,0L.91,7.48l0,0-.05,0,0,.06,0,0,0,0a.43.43,0,0,0,0,.07l0,0a.43.43,0,0,0,0,.07.17.17,0,0,0,0,.05L.59,8A.14.14,0,0,0,.57,8a.25.25,0,0,0,0,.07.64.64,0,0,0,0,.07s0,0,0,.06,0,0,0,.07,0,0,0,.06v.2a.2.2,0,0,1,0,.07s0,0,0,.06,0,.05,0,.08l0,.05a.24.24,0,0,0,0,.08s0,0,0,0L.62,9s0,0,0,.06l0,.06,0,.06,0,.05,0,.06,0,0,.05.06,0,0,0,0,0,0L1,9.56l0,0L30,31,16,45,8.9,42.6h0l-.08,0-.07,0h-.6L8,42.6H8l-.08,0,0,0-.09,0h0L1.19,46.66h0l-.11.07,0,0L1,46.83l0,.05-.05,0L.8,47l0,0-.07.11h0a1.15,1.15,0,0,0-.12.25l0,.11v0s0,.07,0,.1v.12a.06.06,0,0,0,0,0v.14a.09.09,0,0,0,0,0v.11s0,.07,0,.11h0c0,.06,0,.12.07.19l0,.05v0l.06.11h0l.09.13,0,0,.09.09,0,0,.12.1,0,0,.08.05,11.6,7-1.37,1.37a1.39,1.39,0,0,0,1,2.37,1.37,1.37,0,0,0,1-.4L14.75,58l7,11.59h0a.51.51,0,0,0,.09.13l0,0,.08.09,0,0,.13.1,0,0,.08,0h0l.1,0,.07,0,.09,0,.08,0,.09,0,.09,0h.35l.1,0,.08,0,.08,0,.1,0,.06,0,.11,0h0l.08,0,0,0,.12-.1,0,0,.09-.09,0,0,.09-.13h0L28,63l0-.05,0-.06,0-.07a.14.14,0,0,0,0-.06l0-.07s0,0,0-.06a.14.14,0,0,0,0-.07s0,0,0-.06a.17.17,0,0,0,0-.07s0,0,0-.07v-.13ZM4,8.3,6.26,6.06l38.88,9.72L32,29ZM22.58,48.19a1.4,1.4,0,0,0-2,0L14.81,54,4.6,47.86l4-2.41,7.27,2.42h0l.19,0h.48l.17,0h0l.15-.07h0l.16-.09,0,0a.52.52,0,0,0,.11-.1l0,0h0L58,6.82c2.52-2.52,7-3.24,9.36-3.45-.2,2.32-.92,6.83-3.44,9.35h0L23.23,53.45h0l0,.06,0,0a.1.1,0,0,0,0,0l0,.06,0,0,0,.08,0,0s0,0,0,.08,0,0,0,0l0,.08a.13.13,0,0,0,0,.06.14.14,0,0,0,0,.07s0,0,0,.07,0,0,0,.06v.27a.15.15,0,0,1,0,.07.64.64,0,0,1,0,.07.11.11,0,0,0,0,.05s0,.06,0,.08v0l2.42,7.27-2.41,4L16.78,56l5.8-5.8A1.4,1.4,0,0,0,22.58,48.19Z"/><path class="cls-1" d="M22.91,70.77l-.07-.5,0,.49h-.13l-.58-.17L22,70.52l-.11-.08a1.79,1.79,0,0,1-.24-.18l-.16-.18c-.08-.1-.12-.16-.16-.22l0-.08-6.6-11-.91.91a2,2,0,0,1-2.68,0,1.91,1.91,0,0,1,0-2.68l.91-.91L.82,49.42l-.23-.18-.15-.16a1.59,1.59,0,0,1-.17-.24,1.09,1.09,0,0,1-.08-.15l0-.11c0-.06-.05-.13-.07-.2v-.06a.37.37,0,0,1,0-.15l0-.3,0-.28a.69.69,0,0,1,0-.19.69.69,0,0,1,.05-.17,1.5,1.5,0,0,1,.16-.34l.1-.16.12-.14.24-.22.13-.09.07-.05L8,42.09,8.53,42l.47.08,6.83,2.27L29.21,31,.65,9.89l.26-.44-.35.36-.4-.59L.09,9l.44-.27-.48.11,0-.46L.16,7.7l.37-.55,4.3-4.23A1.26,1.26,0,0,1,5,2.82l.33-.13.25.46L5.5,2.66l.38,0L6,3.14l0-.5.2,0,41,10.25,8.44-8.44C60.16.05,68.52,0,68.88,0a1.89,1.89,0,0,1,1.89,1.89c0,.36,0,8.72-4.49,13.16L26.39,54.94l2.35,7.4-.13.65-.11.23-4,6.68-.1.14a1.56,1.56,0,0,1-.15.17,2.35,2.35,0,0,1-.22.19l-.15.1-.16.08-.1,0-.12,0-.1,0-.19-.47.07.49Zm-.06-1H23l.15.49-.05-.5.33-.13.14-.1.08-.09.07-.1,3.94-6.57.49.15-.43-.26h.52l-.48-.12h.51l-.49-.12.51-.15-.5,0,.5,0h-.5l.49-.13-.51,0,0-.1-2.46-7.38L65.56,14.35c4.16-4.16,4.21-12.12,4.21-12.46A.89.89,0,0,0,68.88,1c-.34,0-8.3.05-12.46,4.2L47.59,14,6.05,3.66V3.15L6,3.64l-.09-.51,0,.5-.18-.49.07.5-.21-.47.09.49-.36-.4.22.45-.34-.39.24.44-.09.06-.39-.33.32.4L1.26,7.83.84,7.55l.34.37L.71,7.73,1.12,8l-.06.13L.55,8.1,1,8.28.5,8.36l.5,0L.5,8.5l.5,0,0,.13L.57,8.9l.48-.13-.41.31.46-.22.06.1-.33.4.42-.28L1,9.51l.37-.34L30.74,30.89,16.1,45.53,8.5,43l-.25,0L8,42.61l.13.48-.23.11-6.8,4.22a1.47,1.47,0,0,1-.06.14l0,.12-.51.07.49,0-.5.08.5,0V48a1.29,1.29,0,0,0,.06.2l.06.12-.34.39.41-.3.17.17,12.22,7.33-1.82,1.82a.89.89,0,0,0,0,1.26A.91.91,0,0,0,13,59l1.82-1.82L22.2,69.42h0l.09.1.07.06Zm.06-2.63L16.15,55.88l6.07-6.07a.91.91,0,0,0,0-1.27.92.92,0,0,0-1.27,0l-6.07,6.08L3.63,47.86l4.94-3,7.49,2.5.13,0a.75.75,0,0,0,.27,0l.15,0,.11,0,.12-.06.2-.17L57.69,6.46c2.61-2.61,7.18-3.37,9.67-3.59L68,2.82l0,.59c-.22,2.49-1,7.05-3.59,9.67L23.59,53.8l-.43-.27.36.35-.13.23-.51-.06.47.16,0,.11-.5.1.5,0v.13l-.47.19.5-.07,2.5,7.5ZM17.41,56l5.5,9.16,1.87-3.12-2.45-7.63.1-.63.2-.42.46.22-.4-.31.17-.2,40.82-40.8c2.13-2.15,2.89-6,3.16-8.38C64.41,4.2,60.59,5,58.4,7.17L17.63,47.93a.88.88,0,0,1-.17.14,1.59,1.59,0,0,1-.27.17l-.24.1-.28.07a1.35,1.35,0,0,1-.59,0,1.3,1.3,0,0,1-.32-.07L8.69,46,5.57,47.86l9.16,5.5,5.52-5.52a1.9,1.9,0,0,1,2.68,0h0a1.9,1.9,0,0,1,0,2.68ZM32,29.61,3.26,8.36,6.11,5.51l40,10ZM4.78,8.25,31.92,28.3,44.16,16.05,6.41,6.62Z"/><path class="cls-1" d="M67.35,65.79l0-.05a.43.43,0,0,0,0-.07l0,0,0-.08,0,0,0-.08,0-.05s0,0,0-.07a.64.64,0,0,0,0-.07s0,0,0-.06,0-.05,0-.07a.13.13,0,0,1,0-.06v-.21a.17.17,0,0,1,0-.07s0,0,0-.06,0,0,0-.08v0L58.67,28.87a1.39,1.39,0,0,0-2.7.68l8.73,35-2.23,2.24-18-24.38A1.39,1.39,0,1,0,42.21,44l19,25.67v0l.07.09a.08.08,0,0,1,0,0h0l.07.06,0,0a.27.27,0,0,0,.12.09l0,0,.1.06,0,0,.1,0,0,0,.09,0h0l.11,0h.42l.19,0,0,0,.17-.07h0l.17-.11h0l0,0,.06,0s0,0,.05-.05l0,0,3.94-3.94,0,0,0-.06Z"/><path class="cls-1" d="M62.31,70.77h-.2a1.3,1.3,0,0,1-.21,0l-.38-.12-.2-.11-.21-.15-.3-.31-19-25.71a1.88,1.88,0,0,1,.4-2.64,1.89,1.89,0,0,1,2.64.39L62.52,66l1.63-1.62L55.48,29.67a1.9,1.9,0,0,1,1.38-2.29,1.88,1.88,0,0,1,2.29,1.37l9,35.88-.47.21.49,0v.1l-.1.64-.16.35-.49-.15.41.28-.18.22-4.26,4.21-.19.11-.24.11a1.82,1.82,0,0,1-.31.07l-.23,0Zm-.23-1,0,.52.06-.46h0v0h.26l.14,0,.13-.06.12-.07.39.33-.29-.41,3.95-4,.44.25L67,65.51l.37.28L67,65.46l.49.17L67,65.37l.49.14-.44-.25.51,0-.48-.16.51,0-.49-.13.51-.08-.5,0,.49-.14-.5,0L58.18,29a.84.84,0,0,0-.4-.55.86.86,0,0,0-.68-.1.88.88,0,0,0-.65,1.08l8.81,35.23-2.85,2.85L44.05,42.67a.9.9,0,0,0-1.25-.19.91.91,0,0,0-.19,1.25l19,25.68-.32.4.4-.31-.27.43.35-.36-.2.47.28-.41.12.06v.54Zm5.27-3.95-.4-.31Z"/></g></g></svg>