<svg xmlns="http://www.w3.org/2000/svg" viewBox="0 0 76.87 76.87"><defs><style>.cls-1{fill:#067853;}</style></defs><title>service 5</title><g id="Layer_2" data-name="Layer 2"><g id="Layer"><path class="cls-1" d="M7.42,43.76h62a.92.92,0,1,0,0-1.84h-62a.92.92,0,1,0,0,1.84Z"/><path class="cls-1" d="M69.45,44.51h-62a1.67,1.67,0,0,1,0-3.34h62a1.67,1.67,0,1,1,0,3.34Zm-62-1.84a.17.17,0,1,0,0,.34h62a.17.17,0,0,0,0-.34Z"/><path class="cls-1" d="M1.67,76.12H75.2a.93.93,0,0,0,.92-.92V38.88A.92.92,0,0,0,75.2,38H72.67a.92.92,0,0,0,0,1.84h1.61V74.28H2.59V39.8h1.6a.92.92,0,0,0,0-1.84H1.67a.92.92,0,0,0-.92.92V75.2A.92.92,0,0,0,1.67,76.12Z"/><path class="cls-1" d="M75.2,76.87H1.67A1.67,1.67,0,0,1,0,75.2V38.88a1.67,1.67,0,0,1,1.67-1.67H4.19a1.67,1.67,0,1,1,0,3.34H3.34v33H73.53v-33h-.86a1.67,1.67,0,0,1,0-3.34H75.2a1.67,1.67,0,0,1,1.67,1.67V75.2A1.67,1.67,0,0,1,75.2,76.87ZM1.67,38.71a.18.18,0,0,0-.17.17V75.2a.18.18,0,0,0,.17.17H75.2a.18.18,0,0,0,.17-.17V38.88a.18.18,0,0,0-.17-.17H72.67a.17.17,0,0,0,0,.34H75V75H1.84v-36H4.19a.17.17,0,0,0,0-.34Z"/><path class="cls-1" d="M37.51,49V69.82a.92.92,0,0,0,1.84,0V49a.92.92,0,0,0-1.84,0Z"/><path class="cls-1" d="M38.43,71.49a1.67,1.67,0,0,1-1.67-1.67V49a1.67,1.67,0,0,1,3.34,0V69.82A1.67,1.67,0,0,1,38.43,71.49Zm0-22.69a.18.18,0,0,0-.17.17V69.82c0,.19.34.19.34,0V49A.17.17,0,0,0,38.43,48.8Z"/><path class="cls-1" d="M25.84,49V69.82a.92.92,0,0,0,1.84,0V49a.92.92,0,1,0-1.84,0Z"/><path class="cls-1" d="M26.76,71.49a1.67,1.67,0,0,1-1.67-1.67V49a1.67,1.67,0,1,1,3.34,0V69.82A1.67,1.67,0,0,1,26.76,71.49Zm0-22.69a.18.18,0,0,0-.17.17V69.82c0,.19.34.19.34,0V49A.18.18,0,0,0,26.76,48.8Z"/><path class="cls-1" d="M14.17,49V69.82a.92.92,0,0,0,1.84,0V49a.92.92,0,0,0-1.84,0Z"/><path class="cls-1" d="M15.09,71.49a1.67,1.67,0,0,1-1.67-1.67V49a1.67,1.67,0,0,1,3.34,0V69.82A1.67,1.67,0,0,1,15.09,71.49Zm0-22.69a.18.18,0,0,0-.17.17V69.82c0,.19.34.19.34,0V49A.18.18,0,0,0,15.09,48.8Z"/><path class="cls-1" d="M49.19,49V69.82a.92.92,0,1,0,1.83,0V49a.92.92,0,1,0-1.83,0Z"/><path class="cls-1" d="M50.1,71.49a1.67,1.67,0,0,1-1.67-1.67V49a1.67,1.67,0,0,1,3.34,0V69.82A1.67,1.67,0,0,1,50.1,71.49Zm0-22.69a.18.18,0,0,0-.17.17V69.82c0,.19.34.19.34,0V49A.17.17,0,0,0,50.1,48.8Z"/><path class="cls-1" d="M60.86,49V69.82a.92.92,0,1,0,1.83,0V49a.92.92,0,1,0-1.83,0Z"/><path class="cls-1" d="M61.78,71.49a1.67,1.67,0,0,1-1.67-1.67V49a1.67,1.67,0,1,1,3.33,0V69.82A1.66,1.66,0,0,1,61.78,71.49Zm0-22.69a.17.17,0,0,0-.17.17V69.82c0,.19.33.19.33,0V49A.17.17,0,0,0,61.78,48.8Z"/><path class="cls-1" d="M8.28,39.21a.87.87,0,0,0,.44-.11L33.57,25.55A.93.93,0,0,0,34,25a.92.92,0,0,0-.63-1.14,1,1,0,0,0-.7.07L7.84,37.49a.91.91,0,0,0-.45.55.88.88,0,0,0,.08.69A.91.91,0,0,0,8.28,39.21Z"/><path class="cls-1" d="M8.28,40a1.66,1.66,0,0,1-1.47-.87,1.66,1.66,0,0,1,.66-2.26L32.33,23.28a1.58,1.58,0,0,1,1.26-.14,1.63,1.63,0,0,1,1,.8,1.67,1.67,0,0,1-.66,2.27L9.08,39.76A1.76,1.76,0,0,1,8.28,40ZM33.12,24.57l-.08,0L8.19,38.15a.16.16,0,0,0-.08.1.13.13,0,0,0,0,.12.16.16,0,0,0,.23.07L33.21,24.89a.2.2,0,0,0,.08-.1.15.15,0,0,0,0-.13.14.14,0,0,0-.1-.08Z"/><path class="cls-1" d="M42.93,24.3a.93.93,0,0,0,.37,1.25L68.18,39.1a.81.81,0,0,0,.43.11.91.91,0,0,0,.81-.48.9.9,0,0,0-.37-1.24L44.18,23.93A.93.93,0,0,0,42.93,24.3Z"/><path class="cls-1" d="M68.62,40a1.69,1.69,0,0,1-.8-.2L42.94,26.21a1.69,1.69,0,0,1-.67-2.27h0a1.67,1.67,0,0,1,1-.8,1.62,1.62,0,0,1,1.27.14L69.41,36.83A1.67,1.67,0,0,1,68.62,40Zm-25-15.3a.15.15,0,0,0,0,.13.16.16,0,0,0,.08.1L68.53,38.44c.15,0,.21,0,.23-.07a.13.13,0,0,0,0-.12.16.16,0,0,0-.08-.1L43.82,24.59A.19.19,0,0,0,43.59,24.66Z"/><path class="cls-1" d="M37.51,15.07v.78a4.33,4.33,0,1,0,5.25,4.23.92.92,0,0,0-1.84,0,2.49,2.49,0,1,1-2.49-2.49.92.92,0,0,0,.92-.92v-2a.91.91,0,0,0-.33-.71l-4.15-3.44V2.59H42v8.33a.92.92,0,1,0,1.84,0V1.67a.92.92,0,0,0-.92-.92H34a.92.92,0,0,0-.92.92v9.25a.9.9,0,0,0,.33.7Z"/><path class="cls-1" d="M38.43,25.16a5.08,5.08,0,0,1-1.78-9.83L32.88,12.2a1.66,1.66,0,0,1-.6-1.28V1.67A1.67,1.67,0,0,1,34,0h9a1.67,1.67,0,0,1,1.67,1.67v9.25a1.67,1.67,0,0,1-3.34,0V3.34H35.62v6.79l3.88,3.22a1.68,1.68,0,0,1,.6,1.29v2a1.67,1.67,0,0,1-1.67,1.67,1.74,1.74,0,1,0,1.74,1.74,1.67,1.67,0,1,1,3.34,0A5.09,5.09,0,0,1,38.43,25.16ZM34,1.5a.18.18,0,0,0-.17.17v9.25a.18.18,0,0,0,.06.13l4.42,3.66v1.74l-.59.13A3.58,3.58,0,1,0,42,20.08c0-.19-.34-.19-.34,0a3.24,3.24,0,1,1-3.24-3.24.17.17,0,0,0,.17-.17v-2a.18.18,0,0,0-.06-.14l-4.42-3.66v-9h8.63v9.08c0,.18.34.18.34,0V1.67a.18.18,0,0,0-.17-.17Z"/></g></g></svg>