<svg xmlns="http://www.w3.org/2000/svg" xmlns:xlink="http://www.w3.org/1999/xlink" viewBox="0 0 74.22 74.35"><defs><style>.cls-1{fill:#067853;}.cls-2{clip-path:url(#clip-path);}.cls-3{clip-path:url(#clip-path-2);}.cls-4{clip-path:url(#clip-path-3);}.cls-5{clip-path:url(#clip-path-4);}.cls-6{clip-path:url(#clip-path-5);}.cls-7{clip-path:url(#clip-path-6);}</style><clipPath id="clip-path"><path class="cls-1" d="M27.7,46.67a4.43,4.43,0,1,1,4.43-4.43A4.43,4.43,0,0,1,27.7,46.67Zm0-8.36a3.93,3.93,0,1,0,3.93,3.93A3.94,3.94,0,0,0,27.7,38.31Zm0,6.27A2.34,2.34,0,1,1,30,42.24,2.34,2.34,0,0,1,27.7,44.58Zm0-4.18a1.84,1.84,0,1,0,1.84,1.84A1.85,1.85,0,0,0,27.7,40.4Z"/></clipPath><clipPath id="clip-path-2"><path class="cls-1" d="M46.51,46.67a4.43,4.43,0,1,1,4.43-4.43A4.43,4.43,0,0,1,46.51,46.67Zm0-8.36a3.93,3.93,0,1,0,3.93,3.93A3.94,3.94,0,0,0,46.51,38.31Zm0,6.27a2.34,2.34,0,1,1,2.34-2.34A2.34,2.34,0,0,1,46.51,44.58Zm0-4.18a1.84,1.84,0,1,0,1.84,1.84A1.85,1.85,0,0,0,46.51,40.4Z"/></clipPath><clipPath id="clip-path-3"><path class="cls-1" d="M72.05,74.35,64.9,67.2H9.32L2.16,74.35l-2.1-2.1L19.94,52.37h-.12a4,4,0,0,1-4-3.95V8.9a4,4,0,0,1,4-4h9.63V4A4,4,0,0,1,33.4,0h7.41a4,4,0,0,1,4,4v1H54.4a4,4,0,0,1,4,4V48.42a4,4,0,0,1-4,3.95h-.12L74.15,72.25ZM9.11,66.7h56l6.94,6.94,1.4-1.39L53.07,51.87H54.4a3.46,3.46,0,0,0,3.46-3.45V8.9A3.46,3.46,0,0,0,54.4,5.44H44.27V4A3.46,3.46,0,0,0,40.81.5H33.4A3.46,3.46,0,0,0,30,4V5.44H19.82A3.46,3.46,0,0,0,16.36,8.9V48.42a3.46,3.46,0,0,0,3.46,3.45h1.32L.77,72.25l1.39,1.39Zm54-2H11.08l5.44-5.44H57.7Zm-50.85-.5H61.93l-4.44-4.44H16.73Zm43.44-6.91H18.49l5.44-5.44H50.29Zm-36-.5H54.52l-4.44-4.44H24.14ZM54.4,49.9H19.82a1.49,1.49,0,0,1-1.49-1.48V8.9a1.49,1.49,0,0,1,1.49-1.49H54.4A1.49,1.49,0,0,1,55.89,8.9V48.42A1.49,1.49,0,0,1,54.4,49.9Zm-34.58-42a1,1,0,0,0-1,1V48.42a1,1,0,0,0,1,1H54.4a1,1,0,0,0,1-1V8.9a1,1,0,0,0-1-1ZM42.3,5.44H31.92V4A1.49,1.49,0,0,1,33.4,2.47h7.41A1.49,1.49,0,0,1,42.3,4Zm-9.88-.5H41.8V4a1,1,0,0,0-1-1H33.4a1,1,0,0,0-1,1Z"/></clipPath><clipPath id="clip-path-4"><path class="cls-1" d="M43.28,14H30.93a1.49,1.49,0,0,1,0-3H43.28a1.49,1.49,0,1,1,0,3ZM30.93,11.49a1,1,0,0,0,0,2H43.28a1,1,0,1,0,0-2Z"/></clipPath><clipPath id="clip-path-5"><path class="cls-1" d="M56.74,21.81H17.54a1.4,1.4,0,0,1,0-2.8h39.2a1.4,1.4,0,0,1,0,2.8Z"/></clipPath><clipPath id="clip-path-6"><path class="cls-1" d="M50.69,34.11H18.58a1.4,1.4,0,1,1,0-2.8H50.69a1.4,1.4,0,1,1,0,2.8Z"/></clipPath></defs><title>service 10</title><g id="Layer_2" data-name="Layer 2"><g id="Layer"><path class="cls-1" d="M27.7,38.06a4.18,4.18,0,1,0,4.18,4.18A4.18,4.18,0,0,0,27.7,38.06Zm0,6.27a2.09,2.09,0,1,1,2.09-2.09A2.09,2.09,0,0,1,27.7,44.33Z"/><path class="cls-1" d="M27.7,46.67a4.43,4.43,0,1,1,4.43-4.43A4.43,4.43,0,0,1,27.7,46.67Zm0-8.36a3.93,3.93,0,1,0,3.93,3.93A3.94,3.94,0,0,0,27.7,38.31Zm0,6.27A2.34,2.34,0,1,1,30,42.24,2.34,2.34,0,0,1,27.7,44.58Zm0-4.18a1.84,1.84,0,1,0,1.84,1.84A1.85,1.85,0,0,0,27.7,40.4Z"/><g class="cls-2"><rect class="cls-1" x="25.86" y="40.4" width="3.68" height="3.68"/><circle class="cls-1" cx="27.7" cy="42.24" r="4.43"/><circle class="cls-1" cx="27.7" cy="42.24" r="3.98"/><circle class="cls-1" cx="27.7" cy="42.24" r="3.53"/><circle class="cls-1" cx="27.7" cy="42.24" r="3.04"/><rect class="cls-1" x="25.36" y="39.9" width="4.68" height="4.68"/><circle class="cls-1" cx="27.7" cy="42.24" r="4.43"/><circle class="cls-1" cx="27.7" cy="42.24" r="3.98"/><circle class="cls-1" cx="27.7" cy="42.24" r="3.53"/><circle class="cls-1" cx="27.7" cy="42.24" r="3.04"/><rect class="cls-1" x="23.77" y="38.31" width="7.86" height="7.86"/><circle class="cls-1" cx="27.7" cy="42.24" r="4.43"/><circle class="cls-1" cx="27.7" cy="42.24" r="3.98"/><circle class="cls-1" cx="27.7" cy="42.24" r="3.53"/><circle class="cls-1" cx="27.7" cy="42.24" r="3.04"/><rect class="cls-1" x="23.27" y="37.81" width="8.86" height="8.86"/><circle class="cls-1" cx="27.7" cy="42.24" r="4.43"/><circle class="cls-1" cx="27.7" cy="42.24" r="3.98"/><circle class="cls-1" cx="27.7" cy="42.24" r="3.53"/><circle class="cls-1" cx="27.7" cy="42.24" r="3.04"/></g><path class="cls-1" d="M50.7,42.24a4.19,4.19,0,1,0-4.19,4.18A4.19,4.19,0,0,0,50.7,42.24Zm-4.19,2.09a2.09,2.09,0,1,1,2.09-2.09A2.09,2.09,0,0,1,46.51,44.33Z"/><path class="cls-1" d="M46.51,46.67a4.43,4.43,0,1,1,4.43-4.43A4.43,4.43,0,0,1,46.51,46.67Zm0-8.36a3.93,3.93,0,1,0,3.93,3.93A3.94,3.94,0,0,0,46.51,38.31Zm0,6.27a2.34,2.34,0,1,1,2.34-2.34A2.34,2.34,0,0,1,46.51,44.58Zm0-4.18a1.84,1.84,0,1,0,1.84,1.84A1.85,1.85,0,0,0,46.51,40.4Z"/><g class="cls-3"><rect class="cls-1" x="44.67" y="40.4" width="3.68" height="3.68"/><circle class="cls-1" cx="46.51" cy="42.24" r="4.43"/><circle class="cls-1" cx="46.51" cy="42.24" r="3.98"/><circle class="cls-1" cx="46.51" cy="42.24" r="3.53"/><circle class="cls-1" cx="46.51" cy="42.24" r="3.04"/><rect class="cls-1" x="44.17" y="39.9" width="4.68" height="4.68"/><circle class="cls-1" cx="46.51" cy="42.24" r="4.43"/><circle class="cls-1" cx="46.51" cy="42.24" r="3.98"/><circle class="cls-1" cx="46.51" cy="42.24" r="3.53"/><circle class="cls-1" cx="46.51" cy="42.24" r="3.04"/><rect class="cls-1" x="42.58" y="38.31" width="7.86" height="7.86"/><circle class="cls-1" cx="46.51" cy="42.24" r="4.43"/><circle class="cls-1" cx="46.51" cy="42.24" r="3.98"/><circle class="cls-1" cx="46.51" cy="42.24" r="3.53"/><circle class="cls-1" cx="46.51" cy="42.24" r="3.04"/><rect class="cls-1" x="42.08" y="37.81" width="8.86" height="8.86"/><circle class="cls-1" cx="46.51" cy="42.24" r="4.43"/><circle class="cls-1" cx="46.51" cy="42.24" r="3.98"/><circle class="cls-1" cx="46.51" cy="42.24" r="3.53"/><circle class="cls-1" cx="46.51" cy="42.24" r="3.04"/></g><path class="cls-1" d="M72.05,74l1.75-1.74L53.68,52.12h.72a3.71,3.71,0,0,0,3.71-3.7V8.9A3.71,3.71,0,0,0,54.4,5.19H44.52V4A3.71,3.71,0,0,0,40.81.25H33.4A3.71,3.71,0,0,0,29.7,4V5.19H19.82A3.71,3.71,0,0,0,16.11,8.9V48.42a3.71,3.71,0,0,0,3.71,3.7h.72L.42,72.25,2.16,74l7.05-7H65ZM32.17,4A1.23,1.23,0,0,1,33.4,2.72h7.41A1.23,1.23,0,0,1,42.05,4V5.19H32.17ZM19.82,49.65a1.24,1.24,0,0,1-1.24-1.23V8.9a1.24,1.24,0,0,1,1.24-1.24H54.4A1.24,1.24,0,0,1,55.64,8.9V48.42a1.24,1.24,0,0,1-1.24,1.23Zm30.36,2.47,4.94,4.94h-36L24,52.12ZM11.68,64.47l4.94-4.94h41l4.94,4.94Z"/><path class="cls-1" d="M72.05,74.35,64.9,67.2H9.32L2.16,74.35l-2.1-2.1L19.94,52.37h-.12a4,4,0,0,1-4-3.95V8.9a4,4,0,0,1,4-4h9.63V4A4,4,0,0,1,33.4,0h7.41a4,4,0,0,1,4,4v1H54.4a4,4,0,0,1,4,4V48.42a4,4,0,0,1-4,3.95h-.12L74.15,72.25ZM9.11,66.7h56l6.94,6.94,1.4-1.39L53.07,51.87H54.4a3.46,3.46,0,0,0,3.46-3.45V8.9A3.46,3.46,0,0,0,54.4,5.44H44.27V4A3.46,3.46,0,0,0,40.81.5H33.4A3.46,3.46,0,0,0,30,4V5.44H19.82A3.46,3.46,0,0,0,16.36,8.9V48.42a3.46,3.46,0,0,0,3.46,3.45h1.32L.77,72.25l1.39,1.39Zm54-2H11.08l5.44-5.44H57.7Zm-50.85-.5H61.93l-4.44-4.44H16.73Zm43.44-6.91H18.49l5.44-5.44H50.29Zm-36-.5H54.52l-4.44-4.44H24.14ZM54.4,49.9H19.82a1.49,1.49,0,0,1-1.49-1.48V8.9a1.49,1.49,0,0,1,1.49-1.49H54.4A1.49,1.49,0,0,1,55.89,8.9V48.42A1.49,1.49,0,0,1,54.4,49.9Zm-34.58-42a1,1,0,0,0-1,1V48.42a1,1,0,0,0,1,1H54.4a1,1,0,0,0,1-1V8.9a1,1,0,0,0-1-1ZM42.3,5.44H31.92V4A1.49,1.49,0,0,1,33.4,2.47h7.41A1.49,1.49,0,0,1,42.3,4Zm-9.88-.5H41.8V4a1,1,0,0,0-1-1H33.4a1,1,0,0,0-1,1Z"/><g class="cls-4"><rect class="cls-1" x="32.42" y="2.97" width="9.38" height="1.97"/><polygon class="cls-1" points="42.8 5.94 37.11 5.94 31.42 5.94 31.42 1.97 42.8 1.97 42.8 5.94"/><path class="cls-1" d="M42.8,5.94H31.42V4.5h-1a33.54,33.54,0,0,1,13.44,0h-1Z"/><path class="cls-1" d="M42.8,5.94h0Z"/><path class="cls-1" d="M42.8,5.94h0Z"/><rect class="cls-1" x="31.92" y="2.47" width="10.38" height="2.97"/><polygon class="cls-1" points="43.3 6.44 37.11 6.44 30.92 6.44 30.92 1.47 43.3 1.47 43.3 6.44"/><path class="cls-1" d="M43.3,6.44H24.13a33.46,33.46,0,0,1,26,0Z"/><path class="cls-1" d="M43.3,6.44h0Z"/><path class="cls-1" d="M43.3,6.44h0Z"/><rect class="cls-1" x="18.83" y="7.91" width="36.55" height="41.49"/><path class="cls-1" d="M56.39,37.17V50.4H17.83V10.93h-7a37.11,37.11,0,0,1,52.48,0h-7Z"/><path class="cls-1" d="M56.39,37.17V50.4H17.83V13.59H13.52a33.36,33.36,0,0,1,47.18,0H56.39Z"/><path class="cls-1" d="M56.39,37.17V50.4H17.83V16.24H16.18a29.6,29.6,0,0,1,41.86,0H56.39Z"/><path class="cls-1" d="M62.57,37.17a25.39,25.39,0,0,1-7.46,18V50.4h-36v4.78a25.46,25.46,0,1,1,43.46-18Z"/><rect class="cls-1" x="18.33" y="7.41" width="37.55" height="42.49"/><path class="cls-1" d="M56.89,37.17V50.9H17.33v-40H10.87a37.11,37.11,0,0,1,52.48,0H56.89Z"/><path class="cls-1" d="M56.89,37.17V50.9H17.33V13.59H13.52a33.36,33.36,0,0,1,47.18,0H56.89Z"/><path class="cls-1" d="M56.89,37.17V50.9H17.33V16.24H16.18a29.6,29.6,0,0,1,41.86,0H56.89Z"/><path class="cls-1" d="M62.57,37.17a25.39,25.39,0,0,1-7.46,18V50.9h-36v4.28a25.46,25.46,0,1,1,43.46-18Z"/><rect class="cls-1" x="19.7" y="52.37" width="34.82" height="4.44"/><rect class="cls-1" x="18.7" y="51.37" width="36.82" height="6.44"/><rect class="cls-1" x="18.7" y="51.37" width="36.82" height="6.44"/><rect class="cls-1" x="18.7" y="51.37" width="36.82" height="6.44"/><path class="cls-1" d="M55.52,51.37l5-4.29a25.47,25.47,0,0,1-46.92,0l5,4.29Z"/><rect class="cls-1" x="18.49" y="51.87" width="37.24" height="5.44"/><rect class="cls-1" x="17.49" y="50.87" width="39.24" height="7.44"/><rect class="cls-1" x="17.49" y="50.87" width="39.24" height="7.44"/><path class="cls-1" d="M56.73,50.87v7.24H58a29.85,29.85,0,0,1-9.41,6.34V58.31h-23v6.14a29.74,29.74,0,0,1-9.41-6.34h1.31V50.87Z"/><path class="cls-1" d="M56.73,50.87l3.84-3.79a25.47,25.47,0,0,1-46.92,0l3.84,3.79Z"/><rect class="cls-1" x="12.29" y="59.78" width="49.64" height="4.44"/><path class="cls-1" d="M62.93,58.78v4.63h.42a37.23,37.23,0,0,1-11.8,8V65.22H22.66v6.15a37.18,37.18,0,0,1-11.79-8h.42V58.78Z"/><path class="cls-1" d="M62.93,58.78l1.84-3a33.94,33.94,0,0,1-4.07,4.94A33.36,33.36,0,0,1,9.45,55.82l1.84,3Z"/><path class="cls-1" d="M62.93,58.78H58v-.67a29.6,29.6,0,0,1-41.86,0v.67Z"/><path class="cls-1" d="M62.57,58.78H55.11v-3.6a25.47,25.47,0,0,1-36,0v3.6Z"/><rect class="cls-1" x="11.08" y="59.28" width="52.06" height="5.44"/><path class="cls-1" d="M64.14,58.28l3.74-.36a36.23,36.23,0,0,1-4.53,5.49,37.23,37.23,0,0,1-11.8,8V65.72H22.66v5.65a37.18,37.18,0,0,1-11.79-8,36.23,36.23,0,0,1-4.53-5.49l3.74.36Z"/><path class="cls-1" d="M64.14,58.28l.63-2.46a33.94,33.94,0,0,1-4.07,4.94A33.36,33.36,0,0,1,9.45,55.82l.63,2.46Z"/><path class="cls-1" d="M64.14,58.28H58v-.17a29.6,29.6,0,0,1-41.86,0v.17Z"/><path class="cls-1" d="M62.57,58.28H55.11v-3.1a25.47,25.47,0,0,1-36,0v3.1Z"/><rect class="cls-1" x="0.77" y="0.5" width="72.67" height="73.14"/><circle class="cls-1" cx="37.11" cy="37.17" r="37.11"/><circle class="cls-1" cx="37.11" cy="37.17" r="33.36"/><circle class="cls-1" cx="37.11" cy="37.17" r="29.6"/><circle class="cls-1" cx="37.11" cy="37.17" r="25.46"/><rect class="cls-1" x="0.06" width="74.09" height="74.35"/><circle class="cls-1" cx="37.11" cy="37.17" r="37.11"/><circle class="cls-1" cx="37.11" cy="37.17" r="33.36"/><circle class="cls-1" cx="37.11" cy="37.17" r="29.6"/><circle class="cls-1" cx="37.11" cy="37.17" r="25.46"/></g><path class="cls-1" d="M30.93,13.71H43.28a1.24,1.24,0,1,0,0-2.47H30.93a1.24,1.24,0,0,0,0,2.47Z"/><path class="cls-1" d="M43.28,14H30.93a1.49,1.49,0,0,1,0-3H43.28a1.49,1.49,0,1,1,0,3ZM30.93,11.49a1,1,0,0,0,0,2H43.28a1,1,0,1,0,0-2Z"/><g class="cls-5"><rect class="cls-1" x="29.95" y="11.49" width="14.32" height="1.97"/><circle class="cls-1" cx="37.11" cy="12.47" r="5.52"/><circle class="cls-1" cx="37.11" cy="12.47" r="4.96"/><circle class="cls-1" cx="37.11" cy="12.47" r="4.4"/><circle class="cls-1" cx="37.11" cy="12.47" r="3.79"/><rect class="cls-1" x="29.45" y="10.99" width="15.32" height="2.97"/><circle class="cls-1" cx="37.11" cy="12.47" r="5.52"/><circle class="cls-1" cx="37.11" cy="12.47" r="4.96"/><circle class="cls-1" cx="37.11" cy="12.47" r="4.4"/><circle class="cls-1" cx="37.11" cy="12.47" r="3.79"/></g><line class="cls-1" x1="17.54" y1="20.41" x2="56.74" y2="20.41"/><path class="cls-1" d="M56.74,21.81H17.54a1.4,1.4,0,0,1,0-2.8h39.2a1.4,1.4,0,0,1,0,2.8Z"/><g class="cls-6"><rect class="cls-1" x="16.14" y="19.01" width="42" height="2.8"/><path class="cls-1" d="M52,20.41a14.86,14.86,0,0,1-1.17,5.79V22.81H23.43V26.2a14.91,14.91,0,0,1,0-11.58V18H50.86V14.62A14.89,14.89,0,0,1,52,20.41Z"/><path class="cls-1" d="M50.52,20.41a13.28,13.28,0,0,1-1.05,5.21V22.81H24.82v2.81a13.45,13.45,0,0,1,0-10.42V18H49.47V15.2A13.28,13.28,0,0,1,50.52,20.41Z"/><path class="cls-1" d="M49,20.41a11.84,11.84,0,0,1-3.48,8.4v-6H28.75v6a11.87,11.87,0,0,1,0-16.79v6H45.54V12A11.8,11.8,0,0,1,49,20.41Z"/><path class="cls-1" d="M47.35,20.41a10.17,10.17,0,0,1-3,7.22V22.81H29.92v4.82a10.21,10.21,0,0,1,0-14.44V18H44.36V13.19A10.17,10.17,0,0,1,47.35,20.41Z"/></g><line class="cls-1" x1="18.58" y1="32.71" x2="50.7" y2="32.71"/><path class="cls-1" d="M50.69,34.11H18.58a1.4,1.4,0,1,1,0-2.8H50.69a1.4,1.4,0,1,1,0,2.8Z"/><g class="cls-7"><rect class="cls-1" x="17.18" y="31.31" width="34.91" height="2.8"/><path class="cls-1" d="M47,32.71a12.33,12.33,0,0,1-3.63,8.76V35.11H25.88v6.36a12.41,12.41,0,0,1,0-17.52v6.36H43.39V24A12.32,12.32,0,0,1,47,32.71Z"/><path class="cls-1" d="M45.77,32.71a11.11,11.11,0,0,1-3.26,7.87V35.11H26.77v5.47a11.13,11.13,0,0,1,0-15.74v5.47H42.51V24.84A11.11,11.11,0,0,1,45.77,32.71Z"/><path class="cls-1" d="M44.52,32.71a9.81,9.81,0,0,1-2.9,7V35.11h-14v4.58a9.89,9.89,0,0,1,0-14v4.59h14V25.72A9.86,9.86,0,0,1,44.52,32.71Z"/><circle class="cls-1" cx="34.64" cy="32.71" r="8.5"/></g></g></g></svg>