<svg xmlns="http://www.w3.org/2000/svg" viewBox="0 0 161.49 61.91"><defs><style>.cls-1{fill:#067853;}</style></defs><title>service 3</title><g id="Layer_2" data-name="Layer 2"><g id="Layer"><path class="cls-1" d="M55.91,46.11H22.47a7.68,7.68,0,1,0,5.64,2.5h27.8a1.25,1.25,0,0,0,0-2.5ZM27.62,53.76a5.15,5.15,0,1,1-5.15-5.15A5.16,5.16,0,0,1,27.62,53.76Z"/><path class="cls-1" d="M22.47,61.91a8.15,8.15,0,1,1,0-16.3H55.91a1.75,1.75,0,0,1,0,3.5H29.15a8,8,0,0,1,1.47,4.65A8.15,8.15,0,0,1,22.47,61.91Zm0-15.3a7.17,7.17,0,1,0,5.27,2.33L27,48.11H55.91a.75.75,0,0,0,0-1.5Zm0,12.8a5.65,5.65,0,1,1,5.65-5.65A5.65,5.65,0,0,1,22.47,59.41Zm0-10.3a4.65,4.65,0,1,0,4.65,4.65A4.65,4.65,0,0,0,22.47,49.11Z"/><path class="cls-1" d="M34.52,56.37a1.26,1.26,0,0,0,1.25,1.25H63.62a7.64,7.64,0,1,0-1-3.86,7,7,0,0,0,.13,1.36H35.77A1.25,1.25,0,0,0,34.52,56.37Zm30.55-2.61a5.16,5.16,0,1,1,5.15,5.15A5.16,5.16,0,0,1,65.07,53.76Z"/><path class="cls-1" d="M70.22,61.91a8.17,8.17,0,0,1-6.88-3.79H35.77a1.75,1.75,0,0,1,0-3.5H62.12a8.43,8.43,0,0,1,0-.86,8.16,8.16,0,1,1,8.15,8.15ZM35.77,55.62a.75.75,0,0,0,0,1.5H63.9l.15.24a7.14,7.14,0,1,0-1-3.6A6.91,6.91,0,0,0,63.19,55l.1.59Zm34.45,3.79a5.65,5.65,0,1,1,5.66-5.65A5.66,5.66,0,0,1,70.22,59.41Zm0-10.3a4.65,4.65,0,1,0,4.66,4.65A4.66,4.66,0,0,0,70.22,49.11Z"/><path class="cls-1" d="M137.41,61.41a7.65,7.65,0,1,0-7.66-7.65A7.66,7.66,0,0,0,137.41,61.41Zm-5.16-7.65a5.16,5.16,0,1,1,5.16,5.15A5.16,5.16,0,0,1,132.25,53.76Z"/><path class="cls-1" d="M137.41,61.91a8.15,8.15,0,1,1,8.15-8.15A8.16,8.16,0,0,1,137.41,61.91Zm0-15.3a7.15,7.15,0,1,0,7.15,7.15A7.16,7.16,0,0,0,137.41,46.61Zm0,12.8a5.65,5.65,0,1,1,5.65-5.65A5.66,5.66,0,0,1,137.41,59.41Zm0-10.3a4.65,4.65,0,1,0,4.65,4.65A4.66,4.66,0,0,0,137.41,49.11Z"/><path class="cls-1" d="M121.13,61.41a7.64,7.64,0,0,0,.37-15.28l-.26,0a1.48,1.48,0,0,0-.28,0H92.62a1.25,1.25,0,0,0,0,2.5h22.86a7.51,7.51,0,0,0-2,5.14A7.66,7.66,0,0,0,121.13,61.41ZM116,53.76a5.12,5.12,0,0,1,5-5.14h.32A5.15,5.15,0,1,1,116,53.76Z"/><path class="cls-1" d="M121.13,61.91A8.16,8.16,0,0,1,113,53.76a8.07,8.07,0,0,1,1.47-4.64H92.62a1.75,1.75,0,0,1,0-3.5H121a1.8,1.8,0,0,1,.31,0l.25,0a8.14,8.14,0,0,1-.39,16.28Zm0-15.3H92.62a.75.75,0,0,0,0,1.5h24l-.77.83a7.15,7.15,0,1,0,5.64-2.33h-.35Zm0,12.8A5.65,5.65,0,0,1,121,48.12h.33a5.65,5.65,0,0,1-.15,11.29Zm.14-10.29H121a4.67,4.67,0,1,0,.31,0Z"/><path class="cls-1" d="M159.9.5H40.6a1.18,1.18,0,0,0-1.08,1.25V41.36a1.18,1.18,0,0,0,1.08,1.25H159.9A1.18,1.18,0,0,0,161,41.36V1.75A1.18,1.18,0,0,0,159.9.5ZM41.69,40.11V3H158.82V40.11Z"/><path class="cls-1" d="M159.9,43.11H40.6A1.67,1.67,0,0,1,39,41.36V1.75A1.68,1.68,0,0,1,40.6,0H159.9a1.68,1.68,0,0,1,1.59,1.75V41.36A1.67,1.67,0,0,1,159.9,43.11ZM40.6,1a.69.69,0,0,0-.58.75V41.36a.69.69,0,0,0,.58.75H159.9a.69.69,0,0,0,.59-.75V1.75A.69.69,0,0,0,159.9,1ZM159.32,40.61H41.19V2.5H159.32Zm-117.13-1H158.32V3.5H42.19Z"/><path class="cls-1" d="M21.66,28.27c-2,.36-5,.81-8,1.24-2.72.4-5.29.77-6.77,1C1.59,31.52.51,33.9.51,37.17v.52c0,1,0,3,0,6.27a2.05,2.05,0,0,0,.79,1.46l.15.13-.06.07a2.86,2.86,0,0,0-.88,1.9v4.19a3.92,3.92,0,0,0,3.82,3.9H9.61a1.25,1.25,0,0,0,1.25-1.25V51a8.61,8.61,0,0,1,2.58-6.17,8.5,8.5,0,0,1,6.21-2.49h0c5.39.08,13.13,0,13.19,0a1.25,1.25,0,0,0,1.23-1.25V9.56a1.25,1.25,0,0,0-1.25-1.25H19.24c-8.29,0-11.15.84-13.81,2.5C2.34,12.73.5,16.44.5,20.74v7.65a1.25,1.25,0,0,0,2.5,0V20.74c0-3.43,1.4-6.35,3.75-7.81,1.93-1.2,4.07-2.12,12.49-2.12H31.57v29c-2,0-7.64.06-11.88,0a10.94,10.94,0,0,0-8,3.21,11.08,11.08,0,0,0-3.33,8v2.12h-4A1.4,1.4,0,0,1,3,51.7V47.59l.26-.32a2.52,2.52,0,0,0,.81-1.7,2.77,2.77,0,0,0-1-2l0,0V37.17C3,35.29,3,33.8,7.32,33c1.45-.26,4-.63,6.7-1,3-.43,6.07-.88,8.08-1.25A5.86,5.86,0,0,0,26.93,25V21.72a2.23,2.23,0,0,0-2.23-2.23H8.07a1.25,1.25,0,0,0,0,2.5l16.36,0v3A3.36,3.36,0,0,1,21.66,28.27Z"/><path class="cls-1" d="M9.61,56.11H4.33A4.42,4.42,0,0,1,0,51.71V47.52a3.11,3.11,0,0,1,.75-1.94A2.28,2.28,0,0,1,0,44c0-3.23,0-5.31,0-6.28v-.51c0-3.05.82-6,6.78-7.11,1.5-.27,4.07-.65,6.79-1h.12c2.92-.43,5.93-.87,7.87-1.22A2.86,2.86,0,0,0,23.93,25V22.47l-15.86,0a1.75,1.75,0,0,1,0-3.5H24.7a2.73,2.73,0,0,1,2.73,2.73V25a6.35,6.35,0,0,1-5.24,6.26c-2,.37-5.1.82-8.08,1.25-2.71.4-5.25.77-6.7,1-3.9.71-3.9,1.88-3.9,3.66v6.2a3.09,3.09,0,0,1,1.07,2.2,3,3,0,0,1-.93,2l-.14.16V51.7a.9.9,0,0,0,.82.91H7.86V51A11.66,11.66,0,0,1,19.71,39.33c3.86.06,8.92,0,11.36,0v-28H19.24c-8.29,0-10.37.89-12.23,2-2.2,1.37-3.51,4.13-3.51,7.39v7.65a1.75,1.75,0,0,1-3.5,0V20.74c0-4.48,1.93-8.35,5.16-10.36,2.75-1.7,5.67-2.57,14.08-2.57H32.82a1.75,1.75,0,0,1,1.75,1.75V41.08a1.75,1.75,0,0,1-1.73,1.75c-.06,0-7.81.08-13.19,0A8.16,8.16,0,0,0,11.36,51v3.37A1.76,1.76,0,0,1,9.61,56.11ZM24.93,21.47V25a3.86,3.86,0,0,1-3.18,3.8h0c-2,.36-5,.8-7.9,1.23h-.13c-2.71.4-5.27.77-6.75,1.05-5,.9-6,3-6,6.12v.52c0,1,0,3,0,6.26a1.61,1.61,0,0,0,.64,1.11l.47.45-.3.37A2.53,2.53,0,0,0,1,47.52v4.19a3.41,3.41,0,0,0,3.32,3.4H9.61a.76.76,0,0,0,.75-.75V51a9.17,9.17,0,0,1,9.31-9.16c5.39.08,13.09,0,13.16,0a.75.75,0,0,0,.74-.75V9.56a.75.75,0,0,0-.75-.75H19.24c-8.16,0-11,.82-13.55,2.42C2.75,13.06,1,16.61,1,20.74v7.65a.75.75,0,0,0,1.5,0V20.74c0-3.61,1.49-6.68,4-8.24,2-1.24,4.21-2.19,12.76-2.19H32.07v30h-.49c-2.19,0-7.73.06-11.89,0A10.67,10.67,0,0,0,8.86,51v2.62H4.33A1.89,1.89,0,0,1,2.51,51.7V47.44l.08-.12c.07-.1.25-.31.31-.38a2.12,2.12,0,0,0,.68-1.37A2.33,2.33,0,0,0,2.69,44l-.15-.14,0-.25V37.17c0-2.29.32-3.85,4.72-4.65,1.47-.27,4-.64,6.71-1,3-.44,6.07-.89,8.08-1.25A5.36,5.36,0,0,0,26.43,25V21.72A1.73,1.73,0,0,0,24.7,20H8.07a.75.75,0,0,0,0,1.5Z"/></g></g></svg>