<svg xmlns="http://www.w3.org/2000/svg" viewBox="0 0 60.03 74.17"><defs><style>.cls-1{fill:#067853;}</style></defs><title>service 7</title><g id="Layer_2" data-name="Layer 2"><g id="Layer"><path class="cls-1" d="M47.18,6.06a1.08,1.08,0,0,0-1.84.76,1.07,1.07,0,0,0,.32.76L57.13,19.06V71.27H2.9V2.9H40.34V18.61a1.09,1.09,0,0,0,1.08,1.08h8.94a1.08,1.08,0,1,0,0-2.15H42.49V1.82A1.07,1.07,0,0,0,41.42.75H1.82A1.07,1.07,0,0,0,.75,1.82V72.34a1.08,1.08,0,0,0,1.07,1.08H58.21a1.08,1.08,0,0,0,1.07-1.08V18.61a1.08,1.08,0,0,0-.31-.76Z"/><path class="cls-1" d="M58.21,74.17H1.82A1.83,1.83,0,0,1,0,72.34V1.82A1.83,1.83,0,0,1,1.82,0h39.6a1.82,1.82,0,0,1,1.82,1.82v15h7.12a1.83,1.83,0,1,1,0,3.65H41.42a1.83,1.83,0,0,1-1.83-1.83v-15H3.65V70.52H56.38V19.37L45.13,8.11a1.78,1.78,0,0,1-.54-1.29,1.82,1.82,0,0,1,.54-1.29,1.85,1.85,0,0,1,2.58,0L59.5,17.32A1.83,1.83,0,0,1,60,18.61V72.34A1.83,1.83,0,0,1,58.21,74.17ZM1.82,1.5a.33.33,0,0,0-.32.32V72.34a.33.33,0,0,0,.32.33H58.21a.33.33,0,0,0,.32-.33V18.61a.33.33,0,0,0-.09-.23L46.65,6.59a.36.36,0,0,0-.46,0,.37.37,0,0,0-.1.23.33.33,0,0,0,.1.23l11.69,11.7V72H2.15V2.15H41.09V18.61a.33.33,0,0,0,.33.33h8.94a.33.33,0,0,0,.33-.33.32.32,0,0,0-.33-.32H41.74V1.82a.32.32,0,0,0-.32-.32Z"/><path class="cls-1" d="M43.61,51.84a6,6,0,0,1,6,6,1.08,1.08,0,0,0,2.15,0,8.18,8.18,0,1,0-8.18,8.18,1.08,1.08,0,1,0,0-2.15,6,6,0,1,1,0-12.06Z"/><path class="cls-1" d="M43.61,66.8a8.93,8.93,0,1,1,8.93-8.93,1.83,1.83,0,0,1-3.65,0,5.28,5.28,0,1,0-5.28,5.28,1.83,1.83,0,1,1,0,3.65Zm0-16.36a7.43,7.43,0,1,0,0,14.86.33.33,0,0,0,.33-.33.32.32,0,0,0-.33-.32,6.78,6.78,0,1,1,6.78-6.78.33.33,0,0,0,.65,0A7.43,7.43,0,0,0,43.61,50.44Z"/><path class="cls-1" d="M41,31.32a1.08,1.08,0,1,0,0-2.15H20.24a1.08,1.08,0,1,0,0,2.15Z"/><path class="cls-1" d="M41,32.07H20.24a1.83,1.83,0,1,1,0-3.65H41a1.83,1.83,0,1,1,0,3.65ZM20.24,29.92a.32.32,0,0,0-.33.32.33.33,0,0,0,.33.33H41a.33.33,0,0,0,.33-.33.32.32,0,0,0-.33-.32Z"/><path class="cls-1" d="M14,40.77a1.07,1.07,0,0,0,1.08,1.07h31a1.08,1.08,0,1,0,0-2.15h-31A1.08,1.08,0,0,0,14,40.77Z"/><path class="cls-1" d="M46.15,42.59h-31a1.83,1.83,0,1,1,0-3.65h31a1.83,1.83,0,1,1,0,3.65Zm-31-2.15a.33.33,0,0,0-.33.33.32.32,0,0,0,.33.32h31a.32.32,0,0,0,.33-.32.33.33,0,0,0-.33-.33Z"/></g></g></svg>