<svg xmlns="http://www.w3.org/2000/svg" viewBox="0 0 148.31 66.56"><defs><style>.cls-1{fill:#067853;}</style></defs><title>service 4</title><g id="Layer_2" data-name="Layer 2"><g id="Layer"><path class="cls-1" d="M39.51,27.42a1.16,1.16,0,0,0,1.05-1.25V18H60.34a1.16,1.16,0,0,0,1-1.25,1.16,1.16,0,0,0-1-1.25H39.51a1.16,1.16,0,0,0-1.06,1.25v9.38A1.16,1.16,0,0,0,39.51,27.42Z"/><path class="cls-1" d="M39.51,28a1.76,1.76,0,0,1-1.66-1.85V16.79a1.76,1.76,0,0,1,1.66-1.85H60.34A1.76,1.76,0,0,1,62,16.79a1.76,1.76,0,0,1-1.65,1.85H41.16v7.53A1.76,1.76,0,0,1,39.51,28Zm0-11.88c-.25,0-.46.3-.46.65v9.38c0,.35.21.65.46.65s.45-.3.45-.65V17.44H60.34c.24,0,.45-.3.45-.65s-.21-.65-.45-.65Z"/><path class="cls-1" d="M39.51,42a1.17,1.17,0,0,0,1.06-1.25V32.6H60.34a1.27,1.27,0,0,0,0-2.5H39.51a1.17,1.17,0,0,0-1.06,1.25v9.38A1.17,1.17,0,0,0,39.51,42Z"/><path class="cls-1" d="M39.51,42.58a1.77,1.77,0,0,1-1.66-1.85V31.35a1.77,1.77,0,0,1,1.66-1.85H60.34a1.86,1.86,0,0,1,0,3.7H41.17v7.53A1.77,1.77,0,0,1,39.51,42.58Zm0-11.88c-.24,0-.46.3-.46.65v9.38c0,.34.22.65.46.65s.46-.31.46-.65V32H60.34c.24,0,.46-.31.46-.65s-.22-.65-.46-.65Z"/><path class="cls-1" d="M88.19,16.79a1.17,1.17,0,0,0-1.06-1.25H64.72a1.16,1.16,0,0,0-1.06,1.25v9.38a1.07,1.07,0,1,0,2.12,0V18H86.07v8.13a1.07,1.07,0,1,0,2.12,0Z"/><path class="cls-1" d="M87.13,28a1.77,1.77,0,0,1-1.66-1.85V18.64H66.38v7.53a1.67,1.67,0,1,1-3.32,0V16.79a1.76,1.76,0,0,1,1.66-1.85H87.13a1.76,1.76,0,0,1,1.66,1.85v9.38A1.76,1.76,0,0,1,87.13,28ZM65.18,17.44H86.67v8.73c0,.35.22.65.46.65s.46-.3.46-.65V16.79c0-.35-.21-.65-.46-.65H64.72c-.25,0-.46.3-.46.65v9.38c0,.35.21.65.46.65s.46-.3.46-.65Z"/><path class="cls-1" d="M88.19,2.23A1.17,1.17,0,0,0,87.13,1H64.72a1.16,1.16,0,0,0-1.06,1.25v9.38a1.07,1.07,0,1,0,2.12,0V3.48H86.07v8.13a1.07,1.07,0,1,0,2.12,0Z"/><path class="cls-1" d="M87.13,13.46a1.77,1.77,0,0,1-1.66-1.85V4.08H66.38v7.53a1.67,1.67,0,1,1-3.32,0V2.23A1.76,1.76,0,0,1,64.72.38H87.13a1.76,1.76,0,0,1,1.66,1.85v9.38A1.76,1.76,0,0,1,87.13,13.46ZM65.18,2.88H86.67v8.73c0,.35.22.65.46.65s.46-.3.46-.65V2.23c0-.34-.21-.65-.46-.65H64.72c-.25,0-.46.31-.46.65v9.38c0,.35.21.65.46.65s.46-.3.46-.65Z"/><path class="cls-1" d="M87.13,42a1.17,1.17,0,0,0,1.06-1.25V31.35a1.17,1.17,0,0,0-1.06-1.25H64.72a1.16,1.16,0,0,0-1.06,1.25v9.38a1.07,1.07,0,1,0,2.12,0V32.6H86.07v8.13A1.17,1.17,0,0,0,87.13,42Z"/><path class="cls-1" d="M87.13,42.58a1.77,1.77,0,0,1-1.66-1.85V33.2H66.38v7.53a1.67,1.67,0,1,1-3.32,0V31.35a1.76,1.76,0,0,1,1.66-1.85H87.13a1.76,1.76,0,0,1,1.66,1.85v9.38A1.76,1.76,0,0,1,87.13,42.58ZM65.18,32H86.67v8.73c0,.34.22.65.46.65s.46-.31.46-.65V31.35c0-.35-.21-.65-.46-.65H64.72c-.25,0-.46.3-.46.65v9.38c0,.34.21.65.46.65s.46-.31.46-.65Z"/><path class="cls-1" d="M113.4,16.79a1.16,1.16,0,0,0-1.06-1.25H91.51a1.16,1.16,0,0,0-1.05,1.25A1.16,1.16,0,0,0,91.51,18h19.78v8.13a1.07,1.07,0,1,0,2.11,0Z"/><path class="cls-1" d="M112.34,28a1.76,1.76,0,0,1-1.65-1.85V18.64H91.51a1.76,1.76,0,0,1-1.65-1.85,1.76,1.76,0,0,1,1.65-1.85h20.83A1.76,1.76,0,0,1,114,16.79v9.38A1.76,1.76,0,0,1,112.34,28ZM91.51,16.14c-.24,0-.45.3-.45.65s.21.65.45.65h20.38v8.73c0,.35.21.65.45.65s.46-.3.46-.65V16.79c0-.35-.21-.65-.46-.65Z"/><path class="cls-1" d="M112.34,42a1.16,1.16,0,0,0,1.06-1.25V31.35a1.16,1.16,0,0,0-1.06-1.25H91.51a1.27,1.27,0,0,0,0,2.5h19.78v8.13A1.16,1.16,0,0,0,112.34,42Z"/><path class="cls-1" d="M112.34,42.58a1.76,1.76,0,0,1-1.65-1.85V33.2H91.51a1.86,1.86,0,0,1,0-3.7h20.83A1.76,1.76,0,0,1,114,31.35v9.38A1.76,1.76,0,0,1,112.34,42.58ZM91.51,30.7c-.24,0-.45.3-.45.65s.21.65.45.65h20.38v8.73c0,.34.21.65.45.65s.46-.31.46-.65V31.35c0-.35-.21-.65-.46-.65Z"/><path class="cls-1" d="M30.32,7.36V1.85A1.16,1.16,0,0,0,29.26.6H8.72A1.16,1.16,0,0,0,7.66,1.85v38.6A1.17,1.17,0,0,0,8.72,41.7a1.18,1.18,0,0,0,1.06-1.25V3.1H28.2v3H16.05A1.17,1.17,0,0,0,15,7.36a1.17,1.17,0,0,0,1.06,1.25H29.26A1.16,1.16,0,0,0,30.32,7.36Z"/><path class="cls-1" d="M8.72,42.29a1.75,1.75,0,0,1-1.66-1.84V1.85A1.76,1.76,0,0,1,8.72,0H29.26a1.76,1.76,0,0,1,1.66,1.85V7.36a1.76,1.76,0,0,1-1.66,1.85H16.05a1.76,1.76,0,0,1-1.66-1.85,1.76,1.76,0,0,1,1.66-1.85H27.6V3.7H10.38V40.45A1.76,1.76,0,0,1,8.72,42.29Zm0-41.09c-.25,0-.46.3-.46.65v38.6c0,.34.21.65.46.65s.46-.31.46-.65V2.5H28.8V6.71H16.05c-.24,0-.46.31-.46.65s.22.65.46.65H29.26c.25,0,.46-.3.46-.65V1.85c0-.35-.21-.65-.46-.65Z"/><path class="cls-1" d="M24.66,20.79V40.45a1.07,1.07,0,1,0,2.11,0V21.08l3.13-7.43a1.46,1.46,0,0,0,0-1.21,1,1,0,0,0-.9-.59H22.67a1.16,1.16,0,0,0-1.06,1.25,1.16,1.16,0,0,0,1.06,1.25h4.57l-2.47,5.88A1.3,1.3,0,0,0,24.66,20.79Z"/><path class="cls-1" d="M25.71,42.29a1.75,1.75,0,0,1-1.65-1.84V20.79a2.06,2.06,0,0,1,.15-.79L26.34,15H22.67A1.76,1.76,0,0,1,21,13.1a1.76,1.76,0,0,1,1.66-1.85H29a1.62,1.62,0,0,1,1.43.91,2.07,2.07,0,0,1,.07,1.72L27.37,21.2V40.45A1.75,1.75,0,0,1,25.71,42.29Zm-3-29.84c-.25,0-.46.3-.46.65s.21.65.46.65h5.47l-2.82,6.71a.88.88,0,0,0-.06.33V40.45c0,.34.21.65.45.65s.46-.31.46-.65l0-19.6,3.12-7.43a.84.84,0,0,0,0-.71.43.43,0,0,0-.37-.26Z"/><path class="cls-1" d="M146.65,41.47H126.86a1.27,1.27,0,0,0,0,2.5H144.1L127.6,63.46H19L4.21,46H30.48l5.93,7a1,1,0,0,0,.75.37h75.78a1,1,0,0,0,.75-.37l8-9.41a1.42,1.42,0,0,0,0-1.77,1,1,0,0,0-1.49,0l-7.67,9H37.59l-5.92-7a1,1,0,0,0-.75-.36H1.66a1.06,1.06,0,0,0-1,.77,1.43,1.43,0,0,0,.23,1.36L17.79,65.59a1,1,0,0,0,.75.37H128a1,1,0,0,0,.75-.37l18.62-22a1.44,1.44,0,0,0,.23-1.36A1.07,1.07,0,0,0,146.65,41.47Z"/><path class="cls-1" d="M128,66.56H18.54A1.58,1.58,0,0,1,17.33,66L.45,46.05A2,2,0,0,1,.11,44.1a1.67,1.67,0,0,1,1.55-1.17H30.92a1.56,1.56,0,0,1,1.21.58l5.74,6.78h74.35l7.49-8.84a1.61,1.61,0,0,1,2.41,0,2,2,0,0,1,0,2.55l-8,9.41a1.6,1.6,0,0,1-1.21.58H37.16A1.57,1.57,0,0,1,36,53.41l-5.74-6.78H5.51L19.25,62.86H127.32L142.8,44.57H126.86a1.86,1.86,0,0,1,0-3.69h19.79a1.65,1.65,0,0,1,1.55,1.17,2,2,0,0,1-.34,2L129.24,66A1.58,1.58,0,0,1,128,66.56ZM1.66,44.13a.48.48,0,0,0-.41.37.78.78,0,0,0,.12.77L18.25,65.21a.38.38,0,0,0,.29.15H128a.38.38,0,0,0,.29-.15l18.62-22a.8.8,0,0,0,.12-.78.48.48,0,0,0-.41-.37H126.86c-.24,0-.46.31-.46.65s.22.66.46.66h18.53L127.87,64.06H18.7L2.92,45.43H30.76l6.11,7.2a.37.37,0,0,0,.29.16h75.78a.4.4,0,0,0,.29-.16l8-9.41a.76.76,0,0,0,.17-.5.75.75,0,0,0-.17-.49.37.37,0,0,0-.58,0l-7.84,9.26H37.32l-6.11-7.21a.38.38,0,0,0-.29-.15Z"/></g></g></svg>