<svg xmlns="http://www.w3.org/2000/svg" viewBox="0 0 77.28 74.36"><defs><style>.cls-1{fill:#067853;}</style></defs><title>service 12</title><g id="Layer_2" data-name="Layer 2"><g id="Layer"><path class="cls-1" d="M69.21,59.07a7.22,7.22,0,1,0,7.22,7.22A7.24,7.24,0,0,0,69.21,59.07Zm5.24,7.22a5.24,5.24,0,1,1-5.24-5.24A5.25,5.25,0,0,1,74.45,66.29Z"/><path class="cls-1" d="M69.21,74.36a8.07,8.07,0,1,1,8.07-8.07A8.09,8.09,0,0,1,69.21,74.36Zm0-14.44a6.38,6.38,0,1,0,6.37,6.37A6.38,6.38,0,0,0,69.21,59.92Zm0,12.46a6.09,6.09,0,1,1,6.09-6.09A6.09,6.09,0,0,1,69.21,72.38Zm0-10.48a4.39,4.39,0,1,0,4.39,4.39A4.4,4.4,0,0,0,69.21,61.9Z"/><path class="cls-1" d="M64.75,62.13V8.42l5.87-5.87a1,1,0,0,0,0-1.41,1,1,0,0,0-1.4,0L63.05,7.31a1,1,0,0,0-.29.7V61.14H21a1,1,0,1,0,0,2H63.76A1,1,0,0,0,64.75,62.13Z"/><path class="cls-1" d="M63.76,64H21a1.84,1.84,0,0,1,0-3.68h40.9V8a1.82,1.82,0,0,1,.54-1.3L68.62.54a1.84,1.84,0,1,1,2.6,2.61L65.6,8.77V62.13A1.85,1.85,0,0,1,63.76,64ZM21,62a.15.15,0,0,0-.14.15.14.14,0,0,0,.14.14H63.76a.14.14,0,0,0,.14-.14V8.07L70,1.94a.13.13,0,0,0,0-.2.14.14,0,0,0-.2,0L63.65,7.91a.15.15,0,0,0,0,.1V62Z"/><path class="cls-1" d="M46.09,56.44H57.26a1,1,0,0,0,1-1V22.81a1,1,0,0,0-1-1H24.63a1,1,0,0,0-1,1V55.45a1,1,0,0,0,1,1H34.7a1,1,0,0,0,1-1v-11l.31.31a1,1,0,0,0,1.4,0,1,1,0,0,0,0-1.41l-2-2a1,1,0,0,0-.32-.22,1,1,0,0,0-.76,0,1,1,0,0,0-.32.22l-2,2a1,1,0,0,0,0,1.41,1,1,0,0,0,1.4,0l.31-.31V54.46H25.62V23.81H56.27V54.46H46.09a1,1,0,0,0,0,2Z"/><path class="cls-1" d="M57.26,57.19H46.09a1.74,1.74,0,0,1,0-3.48h9.43V24.56H26.37V53.71H33v-8a1.78,1.78,0,0,1-1.49-.48,1.73,1.73,0,0,1,0-2.47l2-2A1.59,1.59,0,0,1,34,40.4a1.71,1.71,0,0,1,1.33,0,1.64,1.64,0,0,1,.56.38l2,2a1.76,1.76,0,0,1,0,2.46,1.78,1.78,0,0,1-1.5.49v9.72a1.74,1.74,0,0,1-1.74,1.74H24.63a1.74,1.74,0,0,1-1.75-1.74V22.81a1.74,1.74,0,0,1,1.75-1.74H57.26A1.74,1.74,0,0,1,59,22.81V55.45A1.74,1.74,0,0,1,57.26,57.19Zm-11.17-2a.24.24,0,0,0,0,.48H57.26a.25.25,0,0,0,.25-.24V22.81a.25.25,0,0,0-.25-.24H24.63a.25.25,0,0,0-.25.24V55.45a.25.25,0,0,0,.25.24H34.7a.24.24,0,0,0,.24-.24V42.59l1.59,1.6a.27.27,0,0,0,.35,0,.24.24,0,0,0,0-.34l-2-2c-.14-.08-.2-.08-.26-.06l-2.08,2.06a.25.25,0,0,0-.08.17.24.24,0,0,0,.07.17.26.26,0,0,0,.35,0l1.59-1.59V55.21H24.87V23.06H57V55.21Z"/><path class="cls-1" d="M38.2,54.46a1,1,0,0,0,0,2h4.33a1,1,0,0,0,1-1v-11l.3.31a1,1,0,0,0,1.41,0,1,1,0,0,0,0-1.41l-2-2a1.06,1.06,0,0,0-.33-.22,1,1,0,0,0-.76,0,1,1,0,0,0-.32.22l-2,2a1,1,0,0,0,0,1.41,1,1,0,0,0,1.4,0l.31-.31V54.46Z"/><path class="cls-1" d="M42.53,57.19H38.2a1.74,1.74,0,0,1,0-3.48h2.59v-8a1.8,1.8,0,0,1-1.49-.48,1.75,1.75,0,0,1,0-2.47l2-2a1.68,1.68,0,0,1,.57-.38,1.71,1.71,0,0,1,1.33,0,1.78,1.78,0,0,1,.57.38l2,2a1.75,1.75,0,0,1,0,2.47,1.8,1.8,0,0,1-1.49.48v9.72A1.75,1.75,0,0,1,42.53,57.19Zm-4.33-2a.24.24,0,0,0,0,.48h4.33a.25.25,0,0,0,.25-.24V42.59l1.59,1.59a.25.25,0,0,0,.34,0,.21.21,0,0,0,.07-.17.23.23,0,0,0-.07-.17l-2-2c-.14-.08-.21-.08-.27-.05l-2.08,2.05a.23.23,0,0,0,0,.34.25.25,0,0,0,.34,0l1.59-1.58V55.21Z"/><path class="cls-1" d="M18.09,37.14h-15a3.06,3.06,0,0,1-3-3V4A3.06,3.06,0,0,1,3.05,1H33.13a3.06,3.06,0,0,1,3,3.05V16.74a1.75,1.75,0,1,1-3.5,0V4.46H3.5V33.64H18.09a1.75,1.75,0,1,1,0,3.5Z"/></g></g></svg>