<svg xmlns="http://www.w3.org/2000/svg" viewBox="0 0 81.75 77.48"><defs><style>.cls-1{fill:#067853;}</style></defs><title>service 13</title><g id="Layer_2" data-name="Layer 2"><g id="Layer"><path class="cls-1" d="M56.29,77.48a1.44,1.44,0,0,1-.67-.16l-.28-.14a1.45,1.45,0,0,1-.56-.48l-1.15-.33a1.49,1.49,0,0,1-1.08-1.25l-.17-1.35a1.59,1.59,0,0,1,0-.53l0-.1L52,72.72a1.51,1.51,0,0,1-.46-.92,1.78,1.78,0,0,1-.17-.27l0,0a1.49,1.49,0,0,1-.72-1.65l.08-.36-.14-.24a1.51,1.51,0,0,1,.43-2l.56-.4a1.7,1.7,0,0,1-.45-.26,1.54,1.54,0,0,1-1-.34,1.46,1.46,0,0,1-1-.3l-.44-.33a1.55,1.55,0,0,1-.88,0,1.51,1.51,0,0,1-.87-.65,1.57,1.57,0,0,1-.5-.21l-.75-.48a1.53,1.53,0,0,1-.66-1l0-.3a1.57,1.57,0,0,1,0-.53l0,0a1.52,1.52,0,0,1-.73-1.19l-.11,0h0v.18l0,.42a1.51,1.51,0,0,1-.21.66,1.5,1.5,0,0,1-.41.89l-.69.72a1.46,1.46,0,0,1-.95.46,1.49,1.49,0,0,1-1.62-.13l-.31-.24a1.51,1.51,0,0,1-1.34-.06l-.28-.16a1.49,1.49,0,0,1-.76-1.22v-.15a1.63,1.63,0,0,1-.36-.38l0-.08a1.46,1.46,0,0,1-.37-.68l-.06-.07a.91.91,0,0,1-.23,0,1.3,1.3,0,0,1-.55.06,1.52,1.52,0,0,1-1.36.11l-.57-.23a1.34,1.34,0,0,1-.49-.32l-.09,0a1.59,1.59,0,0,1-.7-.32l-.57-.47a1.49,1.49,0,0,1-.54-1.41,1.7,1.7,0,0,1,0-.39,1.49,1.49,0,0,1,.11-.72l.05-.1a.83.83,0,0,1-.06-.21l-.08-.2a1.42,1.42,0,0,1-.16-.45,1.5,1.5,0,0,1-.41-1l-.16-.16a1.46,1.46,0,0,1-.42-.87,1.47,1.47,0,0,1-.21-1.24,1.49,1.49,0,0,1-.46-1.1v-.29l0,0a1.43,1.43,0,0,1-.2-.23,1.44,1.44,0,0,1-.7-.68,1.48,1.48,0,0,1-1.6.37L27,51.51a1.5,1.5,0,0,1-1-.78,1.47,1.47,0,0,1-.15-.82.54.54,0,0,1-.05-.11,1.48,1.48,0,0,1-.71-.16,1.65,1.65,0,0,1-.67.1,1.51,1.51,0,0,1-1.08-.62l-.2-.28a1.22,1.22,0,0,1-.33,0,1.54,1.54,0,0,1-.3,0,1.28,1.28,0,0,1-.28.07h0a1.49,1.49,0,0,1-.66,1l-.06,0a1.49,1.49,0,0,1-.33.51,1.48,1.48,0,0,1-.66,1.2l-.71.48a1.55,1.55,0,0,1-1.27.2,1.52,1.52,0,0,1-.59-.34,1.49,1.49,0,0,1-1.5.13l-.3-.14a1.5,1.5,0,0,1-.75-.8,1.65,1.65,0,0,1-.58-.07l-.49-.15a1.67,1.67,0,0,1-.44-.23,1.52,1.52,0,0,1-.47,0,1.38,1.38,0,0,1-.43-.19l-.18,0a1.52,1.52,0,0,1-1.24-.25l-.45-.32a1.5,1.5,0,0,1-.41-.46,1,1,0,0,1-.18-.18h-.22l-.14,0a1.53,1.53,0,0,1-.79.08l0,0a1.5,1.5,0,0,1-1.19.73,1.47,1.47,0,0,1-.65.25l-.35,0a1.49,1.49,0,0,1-1.44.19l-.11,0a1.46,1.46,0,0,1-1.09-.34,1.48,1.48,0,0,1-1-.83,1.59,1.59,0,0,1-.63-.55l-.42-.66a1.45,1.45,0,0,1-.22-.6,1.49,1.49,0,0,1,0-2.26l0-.47A1.48,1.48,0,0,1,2.44,44a1.36,1.36,0,0,1,.11-.44v0a1.52,1.52,0,0,1-.22-.89l0-.42a1.53,1.53,0,0,1,.33-.83v-.19a1.49,1.49,0,0,1-.31-1.08l.08-.75a1.51,1.51,0,0,1,.77-1.16,1.48,1.48,0,0,1-.37-1.48l.05-.17h0l-.27-.77a1.55,1.55,0,0,1-.06-.74l.07-.36a.51.51,0,0,1,0-.13,1.33,1.33,0,0,1-.21-.26,1.42,1.42,0,0,1-.25-1L1.93,33a1.51,1.51,0,0,1-.27-.67v-.08l-.37-.56a1.48,1.48,0,0,1-.22-.52A2.17,2.17,0,0,1,1,30.91l0-.17L.38,30.1A1.49,1.49,0,0,1,.2,28.36L1,26.87a1.47,1.47,0,0,1,.42-.47,1.51,1.51,0,0,1,.5-.89,1.85,1.85,0,0,1,.33-.21l-.07-.54a1.41,1.41,0,0,1,.2-1,1.48,1.48,0,0,1,.5-1l0,0a1.72,1.72,0,0,1-.07-.21L2.74,22a1.51,1.51,0,0,1,1-1.79l.9-.26A1.73,1.73,0,0,1,5,19.77l.1-.05a1.51,1.51,0,0,1,0-.76,1.42,1.42,0,0,1,.08-.18,1.36,1.36,0,0,1-.49-.36,1.51,1.51,0,0,1-.37-1.22l.16-1.08a1.45,1.45,0,0,1,0-.8l.09-.38A1.5,1.5,0,0,1,6,13.81h.55a1.54,1.54,0,0,1,.76.2l.24-.25a1.5,1.5,0,0,1,1.09-.47H9a1.51,1.51,0,0,1,1.19.59,1.54,1.54,0,0,1,.42.26l.14.15a1.45,1.45,0,0,1,.63.57,1.43,1.43,0,0,1,.17.43,1.51,1.51,0,0,1,.52,0l.2,0a1.49,1.49,0,0,1,.66.27H13a1.56,1.56,0,0,1,.91.5,1.35,1.35,0,0,1,.45,0l1.15.06a.94.94,0,0,1,.12-.09l.11-.07A1.5,1.5,0,0,1,17.46,15l.5.12.2-.08a1.47,1.47,0,0,1,.8-.58l.75-.23.89-.82A1.51,1.51,0,0,1,21.85,13a1.37,1.37,0,0,1,.36.11l.05-.05a1.51,1.51,0,0,1,1-.42,1.51,1.51,0,0,1,.83-.47,1,1,0,0,1,.3,0l1.45-.83a1.51,1.51,0,0,1,.5-.94,1.47,1.47,0,0,1,1.59-.25l.39.17a1,1,0,0,1,.24,0,1.52,1.52,0,0,1,1.28.55l.68.16a1.28,1.28,0,0,1,.37.14s0-.05,0-.08v0a1.52,1.52,0,0,1-.09-1.18,1.59,1.59,0,0,1,.12-.27,1.62,1.62,0,0,1,0-.49A2.76,2.76,0,0,1,31,8.83l-.57-.53A1.51,1.51,0,0,1,30,6.87a1.49,1.49,0,0,1,.82-1,1.46,1.46,0,0,1,.67-.48l1-.34A1.46,1.46,0,0,1,33.16,5a1.59,1.59,0,0,1,.44-.12l.45,0a1.5,1.5,0,0,1,1.12.34l.21-.08L37,4.58a.65.65,0,0,1,.2,0l.12-.18a1.31,1.31,0,0,1,0-.28,1.55,1.55,0,0,1,0-1l.25-.72a1.52,1.52,0,0,1,.88-.91l1-.37A1.39,1.39,0,0,1,39.82.6a1.38,1.38,0,0,1,.54-.18A1.51,1.51,0,0,1,41.93.09l.8.3a1.51,1.51,0,0,1,.8.71,1.37,1.37,0,0,1,.33.35l.06,0A1.55,1.55,0,0,1,45,2a1.57,1.57,0,0,1,.64.24l.92.61A1.48,1.48,0,0,1,47.19,4l.12,1.38.07,0a1.47,1.47,0,0,1,.71-.18h.54a1.68,1.68,0,0,1,.51-.4A1.51,1.51,0,0,1,50.73,5l1,.78a1.51,1.51,0,0,1,.54,1.46v.06l.1.2a1.48,1.48,0,0,1,0,1.3l-.1.24.07.47a1.51,1.51,0,0,1,.5,1.25,1.63,1.63,0,0,1,.23.65l.06.56a1.49,1.49,0,0,1-.41,1.21,1.49,1.49,0,0,1,.09.78,1.47,1.47,0,0,1,.73.8l.22.56a1.61,1.61,0,0,1,.1.65,1.52,1.52,0,0,1,.47.77l.12.5a1.5,1.5,0,0,1-.19,1.17,1.28,1.28,0,0,1-.17.22,1.53,1.53,0,0,1,.15,1l-.13.66a1.19,1.19,0,0,1-.1.32,1.51,1.51,0,0,1,1.5,2.15l-.13.25,0,0a1.52,1.52,0,0,1,.17.89V24a1.55,1.55,0,0,1,.2.9l0,.17a1.5,1.5,0,0,1,.91,1.43,1.27,1.27,0,0,1,.24.33,1.5,1.5,0,0,1,.43.09l.5.19a1.72,1.72,0,0,1,.47.28l.85.75a1.48,1.48,0,0,1,1.4-.05l.15.07.39-.19a1.48,1.48,0,0,1,1.2-.06l.58.22a1.88,1.88,0,0,1,.84.73l.11.18a1.5,1.5,0,0,1,0,1.41l.19.27,1.14.13.6-.39a1.5,1.5,0,0,1,1.77.11l.19.16a1.49,1.49,0,0,1,.54,1.13,1.58,1.58,0,0,1-.12.61,1.53,1.53,0,0,1,.6.08,1.58,1.58,0,0,1,.78-.26l.79,0,.4-.21a1.48,1.48,0,0,1,.77-.18l0-.11A1.5,1.5,0,0,1,73,30.79l.89,0a1.45,1.45,0,0,1,.59.13l1.06.09a1.5,1.5,0,0,1,1.28,1l.33.91a1.46,1.46,0,0,1,0,1l-.1.28a1.46,1.46,0,0,1,.63.53l.32.48a1.43,1.43,0,0,1,.6.49l.59.81a1.47,1.47,0,0,1,.27,1.11l.2.24a1.47,1.47,0,0,1,.29,1.31l-.06.26a1.5,1.5,0,0,1,1.28,1.1,1.51,1.51,0,0,1,.51,1.14l0,1.17a1.52,1.52,0,0,1-.41,1,1.46,1.46,0,0,1,.07.19l.41,1.41a1.52,1.52,0,0,1,0,.87,1.52,1.52,0,0,1,0,.87,1.57,1.57,0,0,1-.53.76l-.2.61a1.51,1.51,0,0,1-.92.94l-1.2.43-.7.81a1.48,1.48,0,0,1-1.58.46l-.3-.1-.25.07a1.69,1.69,0,0,1,.27.32,1.51,1.51,0,0,1,.16,1.21l-.85,3a1.54,1.54,0,0,1-1,1,1.5,1.5,0,0,1-.73,0,1.41,1.41,0,0,1-.35.05l-1.27,0h0a1.52,1.52,0,0,1-1.28.72h-.32l-.49.52v.45a1.48,1.48,0,0,1-.49,1.13l-.1.09a1.56,1.56,0,0,1-.57,1.4l-.13.1-.13.25a.49.49,0,0,1,0,.12,1.28,1.28,0,0,1,.19.41,1.49,1.49,0,0,1-.51,1.57h0a1.57,1.57,0,0,1-.32.63,1.48,1.48,0,0,1-1,.53.94.94,0,0,1,0,.16l-.35,1a1.47,1.47,0,0,1-1.26,1l-.78.08h-.31a1.49,1.49,0,0,1-.62.26,1.51,1.51,0,0,1-.94-.16h-.16l-.09.16a1.49,1.49,0,0,1-1,.75,1.46,1.46,0,0,1-.72,0l0,.08a1.53,1.53,0,0,1-.18,1.2,1.56,1.56,0,0,1-.16.2A1.51,1.51,0,0,1,62,70.61l.17.89a1.5,1.5,0,0,1-.89,1.66l-.27.12a1.5,1.5,0,0,1-2,1,1.2,1.2,0,0,1-.37.2h0a1.54,1.54,0,0,1,.12.93l-.1.48a1.5,1.5,0,0,1-.82,1.07l-.81.39A1.51,1.51,0,0,1,56.29,77.48Zm-.89-3.72.11,0,0-.48a1.5,1.5,0,0,1,1-1.31l.19-.07.13-.18a2.17,2.17,0,0,1,.36-.32,1.41,1.41,0,0,1-.28-.68l-.16-1.08a1.59,1.59,0,0,1,.14-.89,2.38,2.38,0,0,1,.06-.37l-.07-.54a1.43,1.43,0,0,1,.36-1.19.67.67,0,0,1,.05-.19.61.61,0,0,1,0-.12,1.47,1.47,0,0,1,.36-1.11l.4-.47a1.5,1.5,0,0,1,1.32-.51,1.57,1.57,0,0,1,.31.08l.3-.14a1.51,1.51,0,0,1,1-.09A1.46,1.46,0,0,1,61.8,64l.34,0a1.57,1.57,0,0,1,.89-.29,1.47,1.47,0,0,1,.66-.33,2.89,2.89,0,0,1,0-.29l.13-.52a1.48,1.48,0,0,1,1.25-1.13l.12,0h0a1.47,1.47,0,0,1,.52-.84l.37-.76a1.5,1.5,0,0,1,.44-1.5l.5-.46v-.37a1.48,1.48,0,0,1,.41-1l.67-.72a1.5,1.5,0,0,1,1.3-1.19,1.78,1.78,0,0,1,.22-.26l.06-.05a1.48,1.48,0,0,1,1.67-1l.26,0a2.43,2.43,0,0,1-.14-.2,1.53,1.53,0,0,1,0-1.48l1.11-2.08.08-.12a1.62,1.62,0,0,1,.91-.67l2.34-.6a1.5,1.5,0,0,1,.56,0l.33-.38a1.54,1.54,0,0,1,.63-.44l.89-.32.07-.22a1.52,1.52,0,0,1-.07-.64,1.38,1.38,0,0,1,.23-.66l-.06-.2-.26-.3a1.49,1.49,0,0,1-.36-1.16L78,42.54v0h0a1.48,1.48,0,0,1-1.08-.39,1.46,1.46,0,0,1-.48-1.05l-.07-1.61a1.56,1.56,0,0,1,.15-.71,1.5,1.5,0,0,1-.2-.9,1.47,1.47,0,0,1-.48-.45l-.2-.3a1.61,1.61,0,0,1-.76-.58l-.78-1.16a1.52,1.52,0,0,1-.25-1,1.47,1.47,0,0,1-1.21.87l-.59.07a1.64,1.64,0,0,1-.85-.16h0a1.55,1.55,0,0,1-.42.87,1.52,1.52,0,0,1-1.07.44h-.53a1.83,1.83,0,0,1-.4,0l-.28-.08a1.48,1.48,0,0,1-.82-.58h0a1.84,1.84,0,0,1-.74,0l-.56-.11a1.5,1.5,0,0,1-1.21-1.39l0-.49-2-.23A1.48,1.48,0,0,1,62,33l-1.17-1.66h0a1.61,1.61,0,0,1-.61-.08l-.14.14a1.5,1.5,0,0,1-2.35-.29l-.27-.46-.85-.75-.87.21a1.5,1.5,0,0,1-1.67-.63l-.43-.67a1.51,1.51,0,0,1-.21-1.17c0-.09.06-.19.1-.28a1.56,1.56,0,0,1-.37-.57l-.36-1.07a1.21,1.21,0,0,1-.06-.38,1.49,1.49,0,0,1-.23-1l0-.3-.15-.28,0-.07a1.54,1.54,0,0,1-.66-.76l-.12-.32-.29-.3a1.49,1.49,0,0,1-.42-.88A1.51,1.51,0,0,1,51,19.7a1.53,1.53,0,0,1-.07-1L51,18.4a1.36,1.36,0,0,1-.14-.4,1.53,1.53,0,0,1-.29-.38,1.49,1.49,0,0,1-.15-1,.65.65,0,0,1-.18-.15,1.46,1.46,0,0,1-.46-.9,1.49,1.49,0,0,1-.64-1c0-.05,0-.09,0-.13a1.49,1.49,0,0,1-.23-1.58l.19-.43a1.51,1.51,0,0,1,.47-.59l.1-.08a1.5,1.5,0,0,1,0-.76,1.36,1.36,0,0,1-.12-.39l-.23-1.54a1.48,1.48,0,0,1,0-.66.42.42,0,0,1-.14-.06l-.26-.12h-.3a1.43,1.43,0,0,1-.69.27,1.49,1.49,0,0,1-1.07.28l-.25,0a1.45,1.45,0,0,1-.93-.48A1.51,1.51,0,0,1,44.42,6.9l-.13-1.6a1.58,1.58,0,0,1-.43,0,1.47,1.47,0,0,1-.92-.75v0l-.19-.08a1.48,1.48,0,0,1-1.16-.7,2,2,0,0,1-.32-.18l-.11,0-.11,0-.15.06a1.36,1.36,0,0,1,0,.57,1.41,1.41,0,0,1-.4.83,1.46,1.46,0,0,1-.67,1.1l-.24.16-.52,1a1.51,1.51,0,0,1-1.32.83,1.53,1.53,0,0,1-.88-.28,1.52,1.52,0,0,1-.51.43,1.49,1.49,0,0,1-1,.12,1.44,1.44,0,0,1-.74.41v.08a1.55,1.55,0,0,1-.21.59,1.36,1.36,0,0,1,0,.72l-.08.25a1.56,1.56,0,0,1-.21.43V11a1.51,1.51,0,0,1,0,1.56l-.84,1.34a1.49,1.49,0,0,1-1,.67c-.1,0-.23,0-.31,0a1.37,1.37,0,0,1-.73.06l-1.56-.26a1.48,1.48,0,0,1-1.07-.79h0a1,1,0,0,1-.23-.08l-.19,0-1.39.79a1.49,1.49,0,0,1-.62,1.21,1.47,1.47,0,0,1-1.51.15,1.69,1.69,0,0,1-.29.37,1.51,1.51,0,0,1-1.08.41l-1.43-.05-.32.3a1.51,1.51,0,0,1-.58.33l-.46.14,0,.08a1.48,1.48,0,0,1-.9.76h0a1.5,1.5,0,0,1-1.29.28L18,18.23a1.16,1.16,0,0,1-.23.26l0,.36a1.51,1.51,0,0,1-1.55,1.34l-.41,0a1.5,1.5,0,0,1-1.33-1,2.19,2.19,0,0,1-.36,0l-1.3-.05a1.52,1.52,0,0,1-.86-.31h0a1.65,1.65,0,0,1-.37-.2,1.06,1.06,0,0,1-.35,0h-.53a1.5,1.5,0,0,1-1.42-1.15L9,17.23a1.56,1.56,0,0,1-.15.52l-.39.8a1.58,1.58,0,0,1,.16.86,1.63,1.63,0,0,1-.14.49c0,.06,0,.12,0,.18A1.51,1.51,0,0,1,8.1,22l-.67.53a1.51,1.51,0,0,1-1,.32h0a1.23,1.23,0,0,1,0,.2,1.53,1.53,0,0,1-.52,1.14l-.19.15a1.52,1.52,0,0,1,.39,1.1,1.56,1.56,0,0,1-.36.9h0L5.51,27a1.51,1.51,0,0,1-.89.86h0a1.65,1.65,0,0,1-.51.4L4,28.42a1.53,1.53,0,0,1-.57.56l.05.07,0,0a1.52,1.52,0,0,1,.52.39,1.54,1.54,0,0,1,.3,1.36l0,0a1.47,1.47,0,0,1,.23.6v0L5,32.1l.11.17a1.51,1.51,0,0,1,.77,1l.14.64a1.56,1.56,0,0,1,0,.57l0,.06A1.5,1.5,0,0,1,6,35.8a1.53,1.53,0,0,1,0,.85,1.66,1.66,0,0,1,.12.31,1.51,1.51,0,0,1,.63,1l.12,1a1.5,1.5,0,0,1-.33,1.13l-.17.18a1.74,1.74,0,0,1-.2.3,1.45,1.45,0,0,1,0,.51,1.43,1.43,0,0,1-.39.86.29.29,0,0,1,0,.09,1.24,1.24,0,0,1,0,.38,1.06,1.06,0,0,1-.09.25.69.69,0,0,1,0,.13,1.4,1.4,0,0,1,.25.66,1.51,1.51,0,0,1-.38,1.19,1.49,1.49,0,0,1-.26.8v.23a1.4,1.4,0,0,1-.06.5,1.48,1.48,0,0,1,.22.52,1.45,1.45,0,0,1,.66.66,1.81,1.81,0,0,1,.41-.23l.31-.11,0-.08a1.5,1.5,0,0,1,1.49-1l.88,0a1.35,1.35,0,0,1,.4.08,1.63,1.63,0,0,1,.56-.16,1.71,1.71,0,0,1,.71-.16,1.49,1.49,0,0,1,1.16.59l.37.49a1.46,1.46,0,0,1,.53.26,1.63,1.63,0,0,1,.54,0l.27,0a1.21,1.21,0,0,1,.44.15,1.48,1.48,0,0,1,.46.08l.32.11a1.52,1.52,0,0,1,.38.2,1.62,1.62,0,0,1,.84.16,1.55,1.55,0,0,1,.51.44l.18.05a1.35,1.35,0,0,1,.51.25,1.71,1.71,0,0,1,.32,0l.83.09.16-.65a1.37,1.37,0,0,1,.4-.7,1.42,1.42,0,0,1,.27-.55l.2-.2a1.46,1.46,0,0,1,.56-.62l.41-.26a1.54,1.54,0,0,1,1.17-.17,2,2,0,0,1,.26.09,1.67,1.67,0,0,1,.44-.34l.42-.21a1.5,1.5,0,0,1,1.83-.67l.38.14a1.5,1.5,0,0,1,.92,1,1.52,1.52,0,0,1,0,.67,1.59,1.59,0,0,1,.12.44l.32-.07a1.48,1.48,0,0,1,1.52.6l.3.41.85-.21a1.43,1.43,0,0,1,.89,0l.13.05a1.51,1.51,0,0,1,1,1.31,1.66,1.66,0,0,1,.14.37,1.46,1.46,0,0,1,.71.58,1.5,1.5,0,0,1,1.42,1.35l0,.16a1.75,1.75,0,0,1,0,.46,1.5,1.5,0,0,1,.33,1.36l0,.14v.05a1.49,1.49,0,0,1,0,.91l.32.45a1.5,1.5,0,0,1,.27.8,1.48,1.48,0,0,1,.35,1.16,1.5,1.5,0,0,1,.23,1.53h0a1.4,1.4,0,0,1,.64,0l.19,0,.23-.05a1.49,1.49,0,0,1,1.14.23h0a1.53,1.53,0,0,1,1.06.21,1.56,1.56,0,0,1,.28.23,1.48,1.48,0,0,1,.32.34,1.43,1.43,0,0,1,.54.55l.23.4s0,.1.08.14a1.5,1.5,0,0,1,.72.86l0,.07.1,0a1.53,1.53,0,0,1,.41.14V61a1.5,1.5,0,0,1,1-2.38l1.64-.28.64-.2a1.34,1.34,0,0,1,.4-.07l.4,0a1.57,1.57,0,0,1,1,.31l.07.06a1.48,1.48,0,0,1,1,.89,1.53,1.53,0,0,1,.34,1.13,1.6,1.6,0,0,1,.28.4,1.52,1.52,0,0,1,.53,1,1.48,1.48,0,0,1,.82.49l.43,0a1.48,1.48,0,0,1,1,.47.93.93,0,0,1,.29,0,1.48,1.48,0,0,1,1,.62,1.57,1.57,0,0,1,.43.15,1.74,1.74,0,0,1,.39,0h.64a1.51,1.51,0,0,1,1.38.91l.23.55.54,1.09a1.51,1.51,0,0,1-.52,1.9l-.26.18a1.34,1.34,0,0,1-.07.27,1.54,1.54,0,0,1-.4.83,1.46,1.46,0,0,1-.32.25l0,0a1.62,1.62,0,0,1,.51.5l.32.54a1.49,1.49,0,0,1,1.05,1.78l-.28,1.21Z"/><path class="cls-1" d="M37.44,25.86a6,6,0,0,1,6,6,1.07,1.07,0,1,0,2.13,0A8.11,8.11,0,1,0,37.44,40a1.07,1.07,0,0,0,0-2.13,6,6,0,1,1,0-12Z"/><path class="cls-1" d="M37.44,40.55a8.71,8.71,0,1,1,8.71-8.71,1.67,1.67,0,1,1-3.33,0,5.38,5.38,0,1,0-5.38,5.38,1.67,1.67,0,0,1,0,3.33Zm0-16.22a7.51,7.51,0,1,0,0,15,.47.47,0,0,0,0-.93A6.58,6.58,0,1,1,44,31.84a.47.47,0,1,0,.93,0A7.52,7.52,0,0,0,37.44,24.33Z"/></g></g></svg>