<svg xmlns="http://www.w3.org/2000/svg" viewBox="0 0 148.16 62.91"><defs><style>.cls-1{fill:#067853;}</style></defs><title>service 1</title><g id="Layer_2" data-name="Layer 2"><g id="Layer"><path class="cls-1" d="M96.2,48.36A1.26,1.26,0,0,0,95,47.11H21.5a7.65,7.65,0,1,0,7.65,7.65,7.53,7.53,0,0,0-2-5.15H95A1.26,1.26,0,0,0,96.2,48.36Zm-69.55,6.4a5.15,5.15,0,1,1-5.15-5.15A5.16,5.16,0,0,1,26.65,54.76Z"/><path class="cls-1" d="M21.5,62.91a8.15,8.15,0,1,1,0-16.3H95a1.75,1.75,0,0,1,0,3.5H28.19a8.07,8.07,0,0,1,1.46,4.65A8.15,8.15,0,0,1,21.5,62.91Zm0-15.3a7.15,7.15,0,1,0,7.15,7.15A7.06,7.06,0,0,0,26.78,50L26,49.11H95a.75.75,0,0,0,0-1.5Zm0,12.8a5.65,5.65,0,1,1,5.65-5.65A5.65,5.65,0,0,1,21.5,60.41Zm0-10.3a4.65,4.65,0,1,0,4.65,4.65A4.66,4.66,0,0,0,21.5,50.11Z"/><path class="cls-1" d="M116.91,54.76a7.66,7.66,0,0,0-15.31,0,7,7,0,0,0,.13,1.36H34.8a1.25,1.25,0,0,0,0,2.5h67.85a7.65,7.65,0,0,0,14.26-3.86Zm-2.5,0a5.16,5.16,0,1,1-5.15-5.15A5.16,5.16,0,0,1,114.41,54.76Z"/><path class="cls-1" d="M109.26,62.91a8.18,8.18,0,0,1-6.89-3.79H34.8a1.75,1.75,0,0,1,0-3.5h66.35a8.43,8.43,0,0,1-.05-.86,8.16,8.16,0,1,1,8.16,8.15ZM34.8,56.62a.75.75,0,0,0,0,1.5h68.14l.14.24a7.14,7.14,0,1,0-1-3.6,7,7,0,0,0,.12,1.27l.11.59Zm74.46,3.79a5.65,5.65,0,1,1,5.65-5.65A5.66,5.66,0,0,1,109.26,60.41Zm0-10.3a4.65,4.65,0,1,0,4.65,4.65A4.66,4.66,0,0,0,109.26,50.11Z"/><path class="cls-1" d="M133.09,54.76a7.65,7.65,0,1,0-7.65,7.65A7.66,7.66,0,0,0,133.09,54.76Zm-2.5,0a5.15,5.15,0,1,1-5.15-5.15A5.16,5.16,0,0,1,130.59,54.76Z"/><path class="cls-1" d="M125.44,62.91a8.15,8.15,0,1,1,8.15-8.15A8.15,8.15,0,0,1,125.44,62.91Zm0-15.3a7.15,7.15,0,1,0,7.15,7.15A7.16,7.16,0,0,0,125.44,47.61Zm0,12.8a5.65,5.65,0,1,1,5.65-5.65A5.65,5.65,0,0,1,125.44,60.41Zm0-10.3a4.65,4.65,0,1,0,4.65,4.65A4.65,4.65,0,0,0,125.44,50.11Z"/><path class="cls-1" d="M37.55,1.75V41.36a1.25,1.25,0,0,0,2.5,0V3H145.16V40.11H71.94a1.25,1.25,0,0,0,0,2.5h74.47a1.25,1.25,0,0,0,1.25-1.25V1.75A1.25,1.25,0,0,0,146.41.5H38.8A1.25,1.25,0,0,0,37.55,1.75Z"/><path class="cls-1" d="M146.41,43.11H71.94a1.75,1.75,0,0,1,0-3.5h72.72V3.5H40.55V41.36a1.75,1.75,0,0,1-3.5,0V1.75A1.76,1.76,0,0,1,38.8,0H146.41a1.76,1.76,0,0,1,1.75,1.75V41.36A1.75,1.75,0,0,1,146.41,43.11Zm-74.47-2.5a.75.75,0,0,0,0,1.5h74.47a.75.75,0,0,0,.75-.75V1.75a.76.76,0,0,0-.75-.75H38.8a.76.76,0,0,0-.75.75V41.36a.75.75,0,0,0,1.5,0V2.5H145.66V40.61Z"/><path class="cls-1" d="M4.33,56.62H9.61a1.25,1.25,0,0,0,1.25-1.25V52a8.66,8.66,0,0,1,8.79-8.66h0c5.41.08,13.13,0,13.19,0a1.25,1.25,0,0,0,1.23-1.25V10.57a1.25,1.25,0,0,0-1.25-1.25H19.24c-8.28,0-11.15.84-13.81,2.49C2.34,13.73.5,17.45.5,21.75V29.4a1.25,1.25,0,0,0,2.5,0V21.75c0-3.43,1.4-6.35,3.75-7.81,1.93-1.2,4.07-2.12,12.49-2.12H31.57v29c-2.86,0-8,0-11.88,0A11.17,11.17,0,0,0,8.36,52v2.12h-4A1.41,1.41,0,0,1,3,52.71V48.6a4.15,4.15,0,0,1,.27-.32,2.6,2.6,0,0,0,.8-1.71,2.8,2.8,0,0,0-1-2l0,0V38.18C3,36.3,3,34.81,7.32,34c1.43-.26,4-.63,6.65-1l0-.25L14,33c3-.44,6.06-.89,8.07-1.25A5.86,5.86,0,0,0,26.93,26V22.73A2.23,2.23,0,0,0,24.7,20.5H8.07a1.25,1.25,0,0,0,0,2.5l16.36,0v3a3.36,3.36,0,0,1-2.77,3.31c-1.95.35-5,.8-7.94,1.23h-.06c-2.6.38-5.28.77-6.78,1-5.29,1-6.37,3.35-6.37,6.62v.73c0,1,0,3,0,6.05a2.06,2.06,0,0,0,.78,1.46l.16.14-.06.07a2.86,2.86,0,0,0-.88,1.9v4.19A3.92,3.92,0,0,0,4.33,56.62Z"/><path class="cls-1" d="M9.61,57.12H4.33A4.42,4.42,0,0,1,0,52.72V48.53a3.11,3.11,0,0,1,.75-1.94A2.31,2.31,0,0,1,0,45c0-3,0-5,0-6.06v-.72c0-3,.82-6,6.78-7.11,1.4-.26,3.83-.61,6.25-1L12.88,29l.45,1.06.22,0c2.89-.42,6.05-.89,8-1.24A2.87,2.87,0,0,0,23.93,26V23.48l-15.86,0a1.75,1.75,0,0,1,0-3.5H24.7a2.73,2.73,0,0,1,2.73,2.73V26a6.36,6.36,0,0,1-5.24,6.26c-2,.36-5.08.81-8,1.25l-.39.06h0c-2.56.38-5,.73-6.34,1-3.9.72-3.9,1.83-3.9,3.67v6.2a2.74,2.74,0,0,1,.14,4.23l-.14.16v3.94a.91.91,0,0,0,.82.91H7.86V52A11.66,11.66,0,0,1,19.7,40.34c3.73.06,8.54,0,11.37,0v-28H19.24c-8.28,0-10.37.89-12.23,2-2.2,1.37-3.51,4.13-3.51,7.39V29.4a1.75,1.75,0,0,1-3.5,0V21.75c0-4.48,1.93-8.35,5.17-10.36,2.74-1.7,5.66-2.57,14.07-2.57H32.82a1.75,1.75,0,0,1,1.75,1.75V42.09a1.75,1.75,0,0,1-1.73,1.75c-.06,0-7.77.09-13.19,0A8.16,8.16,0,0,0,11.36,52v3.37A1.76,1.76,0,0,1,9.61,57.12Zm3.58-26c-2.47.36-4.85.71-6.23,1C2,33,1,35.07,1,38.18v.73C1,40,1,42,1,45a1.58,1.58,0,0,0,.63,1.1l.5.47-.32.37A2.48,2.48,0,0,0,1,48.53v4.19a3.41,3.41,0,0,0,3.32,3.4H9.61a.76.76,0,0,0,.75-.75V52a9.15,9.15,0,0,1,9.3-9.16c5.41.08,13.1,0,13.17,0a.75.75,0,0,0,.74-.75V10.57a.75.75,0,0,0-.75-.75H19.24c-8.16,0-11,.81-13.55,2.42C2.75,14.07,1,17.62,1,21.75V29.4a.75.75,0,0,0,1.5,0V21.75c0-3.61,1.49-6.69,4-8.24,2-1.24,4.21-2.19,12.76-2.19H32.07v30h-.49c-2.74,0-7.93,0-11.89,0A10.67,10.67,0,0,0,8.86,52v2.62H4.33a1.89,1.89,0,0,1-1.82-1.91V48.45l.08-.12A3.68,3.68,0,0,1,2.89,48a2.12,2.12,0,0,0,.68-1.38A2.31,2.31,0,0,0,2.69,45l-.15-.15,0-.24V38.18c0-2.29.33-3.85,4.72-4.65,1.36-.25,3.68-.59,6.18-1Zm.55-.08.61,1.43c2.87-.42,5.76-.85,7.67-1.19A5.36,5.36,0,0,0,26.43,26V22.73A1.73,1.73,0,0,0,24.7,21H8.07a.75.75,0,0,0,0,1.5l16.86,0V26a3.86,3.86,0,0,1-3.18,3.8c-2,.36-5.16.82-8,1.23Z"/><path class="cls-1" d="M64.61,34.73a1.16,1.16,0,0,0,1.06-1.25V25.35H85.44a1.27,1.27,0,0,0,0-2.5H64.61a1.17,1.17,0,0,0-1.06,1.25v9.38A1.17,1.17,0,0,0,64.61,34.73Z"/><path class="cls-1" d="M64.61,35.33A1.77,1.77,0,0,1,63,33.48V24.1a1.77,1.77,0,0,1,1.66-1.85H85.44a1.86,1.86,0,0,1,0,3.7H66.27v7.53A1.76,1.76,0,0,1,64.61,35.33Zm0-11.88c-.24,0-.46.3-.46.65v9.38c0,.35.22.65.46.65s.46-.3.46-.65V24.75H85.44c.25,0,.46-.3.46-.65s-.21-.65-.46-.65Z"/><path class="cls-1" d="M113.29,9.54a1.16,1.16,0,0,0-1.06-1.25H89.82a1.17,1.17,0,0,0-1.06,1.25v9.38a1.07,1.07,0,1,0,2.12,0V10.79h20.29v8.13a1.07,1.07,0,1,0,2.12,0Z"/><path class="cls-1" d="M112.23,20.77a1.77,1.77,0,0,1-1.66-1.85V11.39H91.48v7.53a1.67,1.67,0,1,1-3.32,0V9.54a1.77,1.77,0,0,1,1.66-1.85h22.41a1.76,1.76,0,0,1,1.66,1.85v9.38A1.76,1.76,0,0,1,112.23,20.77Zm-22-10.58h21.49v8.73c0,.35.22.65.46.65s.46-.3.46-.65V9.54c0-.34-.21-.65-.46-.65H89.82c-.24,0-.46.31-.46.65v9.38c0,.35.22.65.46.65s.46-.3.46-.65Z"/><path class="cls-1" d="M112.23,34.73a1.16,1.16,0,0,0,1.06-1.25V24.1a1.16,1.16,0,0,0-1.06-1.25H89.82a1.17,1.17,0,0,0-1.06,1.25v9.38a1.07,1.07,0,1,0,2.12,0V25.35h20.29v8.13A1.17,1.17,0,0,0,112.23,34.73Z"/><path class="cls-1" d="M112.23,35.33a1.77,1.77,0,0,1-1.66-1.85V26H91.48v7.53a1.67,1.67,0,1,1-3.32,0V24.1a1.77,1.77,0,0,1,1.66-1.85h22.41a1.76,1.76,0,0,1,1.66,1.85v9.38A1.76,1.76,0,0,1,112.23,35.33Zm-22-10.58h21.49v8.73c0,.35.22.65.46.65s.46-.3.46-.65V24.1c0-.35-.21-.65-.46-.65H89.82c-.24,0-.46.3-.46.65v9.38c0,.35.22.65.46.65s.46-.3.46-.65Z"/><path class="cls-1" d="M138.5,9.54a1.16,1.16,0,0,0-1.05-1.25H116.62a1.16,1.16,0,0,0-1.06,1.25,1.16,1.16,0,0,0,1.06,1.25h19.77v8.13a1.07,1.07,0,1,0,2.11,0Z"/><path class="cls-1" d="M137.45,20.77a1.76,1.76,0,0,1-1.66-1.85V11.39H116.62A1.76,1.76,0,0,1,115,9.54a1.76,1.76,0,0,1,1.66-1.85h20.83a1.76,1.76,0,0,1,1.65,1.85v9.38A1.76,1.76,0,0,1,137.45,20.77ZM116.62,8.89c-.25,0-.46.31-.46.65s.21.65.46.65H137v8.73c0,.35.21.65.46.65s.45-.3.45-.65V9.54c0-.34-.21-.65-.45-.65Z"/><path class="cls-1" d="M137.45,34.73a1.16,1.16,0,0,0,1.05-1.25V24.1a1.16,1.16,0,0,0-1.05-1.25H116.62a1.27,1.27,0,0,0,0,2.5h19.77v8.13A1.16,1.16,0,0,0,137.45,34.73Z"/><path class="cls-1" d="M137.45,35.33a1.76,1.76,0,0,1-1.66-1.85V26H116.62a1.86,1.86,0,0,1,0-3.7h20.83a1.76,1.76,0,0,1,1.65,1.85v9.38A1.76,1.76,0,0,1,137.45,35.33ZM116.62,23.45c-.25,0-.46.3-.46.65s.21.65.46.65H137v8.73c0,.35.21.65.46.65s.45-.3.45-.65V24.1c0-.35-.21-.65-.45-.65Z"/></g></g></svg>