<svg xmlns="http://www.w3.org/2000/svg" viewBox="0 0 69.19 66.71"><defs><style>.cls-1{fill:#067853;}</style></defs><title>service 11</title><g id="Layer_2" data-name="Layer 2"><g id="Layer"><path class="cls-1" d="M61.83,47.92,47.49,53.21A1.38,1.38,0,0,0,48,55.88a1.26,1.26,0,0,0,.47-.08l14.34-5.29a1.38,1.38,0,1,0-1-2.59Z"/><path class="cls-1" d="M43.55,54.67l-.61.22a1.38,1.38,0,0,0,.48,2.67,1.61,1.61,0,0,0,.48-.08l.6-.23a1.37,1.37,0,1,0-1-2.58Z"/><path class="cls-1" d="M61.83,42.31,50.5,46.49A1.38,1.38,0,0,0,51,49.16a1.36,1.36,0,0,0,.48-.09l11.33-4.18a1.37,1.37,0,1,0-1-2.58Z"/><path class="cls-1" d="M61.83,36.75,50.5,40.93A1.38,1.38,0,0,0,51,43.6a1.36,1.36,0,0,0,.48-.09l11.33-4.18a1.37,1.37,0,1,0-1-2.58Z"/><path class="cls-1" d="M68.29,12.34,35.07.09a1.3,1.3,0,0,0-1,0L.9,12.34h0a1.82,1.82,0,0,0-.31.16A1.38,1.38,0,0,0,0,13.64V53.07a1.37,1.37,0,0,0,.9,1.29L34.12,66.62a1.32,1.32,0,0,0,.48.09,1.27,1.27,0,0,0,.47-.09h0L68.29,54.36a1.37,1.37,0,0,0,.9-1.29V13.64A1.39,1.39,0,0,0,68.29,12.34ZM11.72,18.92l12.13,4.47V38.12L11.72,33.64Zm13.5,2-10.9-4,10.9-4,10.91,4ZM34.6,2.85,63.83,13.64,34.6,24.42l-5.41-2,11.4-4.21a1.37,1.37,0,0,0,0-2.58L25.7,10.14a1.41,1.41,0,0,0-.95,0L10.32,15.47l-5-1.83ZM2.76,15.61,9,17.9V34.6a1.39,1.39,0,0,0,.9,1.3l14.89,5.49a1.26,1.26,0,0,0,.47.08A1.36,1.36,0,0,0,26.6,40.1V24.41l6.62,2.44v36.5L2.76,52.11ZM36,63.35V26.85L66.44,15.61v36.5Z"/></g></g></svg>