<svg xmlns="http://www.w3.org/2000/svg" viewBox="0 0 85.39 74.01"><defs><style>.cls-1{fill:#067853;}</style></defs><title>service 8</title><g id="Layer_2" data-name="Layer 2"><g id="Layer"><path class="cls-1" d="M43.48,4.14V1.53a.78.78,0,1,0-1.56,0V4.14A45.82,45.82,0,0,0,.85,31.33,1,1,0,0,0,1.2,32.6a1,1,0,0,0,1.32-.08,18.46,18.46,0,0,1,12-4.33c6.41,0,11.78,2.88,13.05,5.55a1.17,1.17,0,0,0,1.05.66,1.14,1.14,0,0,0,1.05-.66c1.23-2.56,6.21-5.32,12.28-5.54v9.56h1.56V28.2c6.07.22,11.05,3,12.28,5.54a1.13,1.13,0,0,0,1,.66,1.16,1.16,0,0,0,1.05-.66c1.28-2.67,6.64-5.55,13.05-5.55a18.49,18.49,0,0,1,12,4.33,1.05,1.05,0,0,0,1.32.08,1,1,0,0,0,.35-1.27A45.83,45.83,0,0,0,43.48,4.14ZM70.9,26.62c-6.09,0-11.25,2.41-13.55,5.08,0,0,0,0,0,0a44.21,44.21,0,0,0-2-8.73.76.76,0,0,0-1-.48.77.77,0,0,0-.49,1,44,44,0,0,1,1.83,7.59c-2.52-2.42-7.35-4.47-13-4.47s-10.49,2.07-13,4.5a42.94,42.94,0,0,1,4.76-14.35.79.79,0,0,0-.32-1.06.78.78,0,0,0-1.06.31,47,47,0,0,0-2.73,6.06A45.27,45.27,0,0,0,28,31.68c-2.31-2.66-7.45-5.06-13.54-5.06A20.6,20.6,0,0,0,3.22,30,44.29,44.29,0,0,1,42.68,5.69h0A44.31,44.31,0,0,1,82.18,30,20.66,20.66,0,0,0,70.9,26.62Z"/><path class="cls-1" d="M44.23,38.51H41.17V29c-5.42.4-9.8,2.87-10.85,5.06a1.91,1.91,0,0,1-3.45,0c-1.19-2.47-6.44-5.12-12.38-5.12A17.69,17.69,0,0,0,3,33.06a1.76,1.76,0,0,1-2.26.15A1.73,1.73,0,0,1,.17,31a46.66,46.66,0,0,1,41-27.61V1.53a1.53,1.53,0,0,1,3.06,0V3.41A46.67,46.67,0,0,1,85.23,31a1.77,1.77,0,0,1-.6,2.2,1.79,1.79,0,0,1-2.26-.15A17.65,17.65,0,0,0,70.9,28.94c-5.93,0-11.19,2.65-12.38,5.12a1.9,1.9,0,0,1-3.44,0C54,31.87,49.64,29.4,44.23,29ZM42.67,37h.06V27.43l.78,0c6.41.23,11.6,3.21,12.92,6a.42.42,0,0,0,.74,0c1.41-2.93,6.94-6,13.73-6A19.27,19.27,0,0,1,83.4,32a.28.28,0,0,0,.37,0l0,0-2-1.36A19.93,19.93,0,0,0,70.9,27.37c-6.06,0-10.86,2.4-13,4.78l-.19.31H56.67l-.08-.66a43.91,43.91,0,0,0-2-8.58A51.71,51.71,0,0,1,56.42,31l.32,2.17-1.58-1.52c-2-2-6.54-4.26-12.46-4.26s-10.44,2.31-12.48,4.29l-1.58,1.53L29,31a43.83,43.83,0,0,1,2.17-8.65,44.41,44.41,0,0,1,2.68-6,37,37,0,0,0-2.74,5.93,45.16,45.16,0,0,0-2.29,9.44l-.21,1.66-1.1-1.27c-2.07-2.39-6.88-4.8-13-4.8A19.85,19.85,0,0,0,3.64,30.6L1.6,32l0,0A.27.27,0,0,0,2,32a19.27,19.27,0,0,1,12.49-4.53c6.81,0,12.33,3,13.73,6a.43.43,0,0,0,.75,0c1.31-2.74,6.51-5.72,12.92-5.95l.78,0Zm.06-35.48-.06,3.35h-.74A45.19,45.19,0,0,0,1.53,31.63a.43.43,0,0,1,0,.05l1-2.05a45,45,0,0,1,80.3,0l1,2.05s0,0,0-.05A45.16,45.16,0,0,0,43.47,4.89h-.74ZM54.6,21.71a1.57,1.57,0,0,1,1.45,1.05,44.21,44.21,0,0,1,1.81,7.38,20.56,20.56,0,0,1,13-4.27A21.8,21.8,0,0,1,80.26,28,43.48,43.48,0,0,0,5.14,28a21.79,21.79,0,0,1,9.35-2.15,20.6,20.6,0,0,1,13,4.25,45.42,45.42,0,0,1,4.92-14.45,1.53,1.53,0,1,1,2.7,1.46,41.89,41.89,0,0,0-2.59,5.75,42.47,42.47,0,0,0-1.76,6.41A21.12,21.12,0,0,1,42.7,25.87a21.23,21.23,0,0,1,11.91,3.4,41.58,41.58,0,0,0-1.47-5.53,1.55,1.55,0,0,1,1.46-2Z"/><path class="cls-1" d="M37,49.21a1,1,0,0,0,0-2H12.83a1,1,0,0,0-1,1V72.44a1,1,0,0,0,1,1H37a1,1,0,0,0,0-2H30.47V67.89a1,1,0,0,0-1-1H22.35a1,1,0,0,0-1,1V69.6a1,1,0,0,0,2,0v-.73h5.18v2.59H13.81V49.21h7.56v3.56a1,1,0,0,0,1,1h7.14a1,1,0,0,0,1-1V50.85a1,1,0,1,0-2,0v.94H23.33V49.21Z"/><path class="cls-1" d="M37,74H12.83a1.57,1.57,0,0,1-1.58-1.57V48.23a1.58,1.58,0,0,1,1.58-1.58H37a1.58,1.58,0,1,1,0,3.16H30.68a1.57,1.57,0,0,1,.39,1v1.92a1.58,1.58,0,0,1-1.58,1.58H22.35a1.58,1.58,0,0,1-1.58-1.58v-3H14.41v21h7a1.58,1.58,0,0,1-.62-1.26V67.89a1.57,1.57,0,0,1,1.58-1.57h7.14a1.57,1.57,0,0,1,1.58,1.57v3h6A1.58,1.58,0,1,1,37,74ZM12.83,47.85a.38.38,0,0,0-.38.38V72.44a.38.38,0,0,0,.38.38H37a.38.38,0,1,0,0-.76H29.87V67.89a.38.38,0,0,0-.38-.37H22.35a.38.38,0,0,0-.38.37V69.6a.38.38,0,0,0,.76,0V68.27h6.38v3.79H13.21V48.61H22v4.16a.38.38,0,0,0,.38.38h7.14a.38.38,0,0,0,.38-.38V50.85a.38.38,0,1,0-.76,0v1.54H22.73V48.61H37a.38.38,0,1,0,0-.76Zm10.47,23h4.61V69.47h-4v.13A1.59,1.59,0,0,1,23.3,70.86Zm.63-19.67h4v-.34a1.57,1.57,0,0,1,.39-1H23.93Z"/><path class="cls-1" d="M72.57,39.29H40.4a1,1,0,0,0-1,1V72.44a1,1,0,0,0,1,1h9.93a1,1,0,0,0,1-1V61.55l.3.31a1,1,0,0,0,1.39,0,1,1,0,0,0,0-1.39l-2-2a1,1,0,0,0-.32-.21,1,1,0,0,0-.74,0,1,1,0,0,0-.32.21l-2,2a1,1,0,0,0,0,1.39,1,1,0,0,0,1.38,0l.3-.31v9.91h-8V41.25H71.59V71.46h-10a1,1,0,0,0,0,2h11a1,1,0,0,0,1-1V40.27A1,1,0,0,0,72.57,39.29Z"/><path class="cls-1" d="M72.57,74h-11a1.58,1.58,0,1,1,0-3.15H71v-29H42v29h6.77V62.69a1.6,1.6,0,0,1-1.51-.41,1.58,1.58,0,0,1,0-2.23l2-2a1.54,1.54,0,0,1,.52-.35,1.61,1.61,0,0,1,1.2,0,1.67,1.67,0,0,1,.52.34l2,2a1.58,1.58,0,0,1,0,2.23,1.6,1.6,0,0,1-1.51.41v9.75A1.57,1.57,0,0,1,50.33,74H40.4a1.57,1.57,0,0,1-1.58-1.57V40.27A1.57,1.57,0,0,1,40.4,38.7H72.57a1.57,1.57,0,0,1,1.57,1.57V72.44A1.57,1.57,0,0,1,72.57,74Zm-11-2a.38.38,0,1,0,0,.76h11a.38.38,0,0,0,.37-.38V40.27a.38.38,0,0,0-.37-.38H40.4a.38.38,0,0,0-.38.38V72.44a.38.38,0,0,0,.38.38h9.93a.38.38,0,0,0,.38-.38V60.11L52,61.43a.39.39,0,0,0,.53,0,.36.36,0,0,0,.11-.26.37.37,0,0,0-.11-.27l-2-2-.12-.08a.37.37,0,0,0-.29,0,.57.57,0,0,0-.13.08l-2,2a.37.37,0,0,0-.11.27.36.36,0,0,0,.11.26.41.41,0,0,0,.53,0L50,60.11v12H40.78V40.65H72.19V72.06Z"/><path class="cls-1" d="M60.72,60.47l-2-2a1,1,0,0,0-.32-.21,1,1,0,0,0-.74,0,.89.89,0,0,0-.32.21l-2,2a1,1,0,0,0,0,1.39,1,1,0,0,0,1.39,0l.3-.31v9.91H53.78a1,1,0,0,0,0,2h4.27a1,1,0,0,0,1-1V61.55l.3.31a1,1,0,0,0,1.39,0A1,1,0,0,0,60.72,60.47Z"/><path class="cls-1" d="M58.05,74H53.78a1.58,1.58,0,1,1,0-3.15h2.69V62.69A1.6,1.6,0,0,1,55,62.28a1.58,1.58,0,0,1,0-2.23l2-2a1.54,1.54,0,0,1,.52-.35,1.56,1.56,0,0,1,1.2,0,1.54,1.54,0,0,1,.52.35l2,2a1.58,1.58,0,0,1,0,2.23,1.6,1.6,0,0,1-1.51.4v9.76A1.57,1.57,0,0,1,58.05,74Zm-4.27-2a.38.38,0,0,0,0,.76h4.27a.38.38,0,0,0,.38-.38V60.11l1.32,1.32a.4.4,0,0,0,.54,0,.36.36,0,0,0,.11-.26.37.37,0,0,0-.11-.27l-2-2a.57.57,0,0,0-.13-.08.37.37,0,0,0-.29,0l-.12.08-2,2a.37.37,0,0,0-.11.27.36.36,0,0,0,.11.26.39.39,0,0,0,.53,0l1.33-1.32v12Z"/></g></g></svg>