<svg width="40" height="40" viewBox="0 0 40 40" fill="none" xmlns="http://www.w3.org/2000/svg">
<path d="M38.8275 37.6562H37.6556V36.4844C37.6556 35.8368 37.1317 35.3125 36.4838 35.3125H3.51562C2.86774 35.3125 2.34375 35.8368 2.34375 36.4844V37.6562H1.17188C0.524292 37.6562 0 38.1805 0 38.8281C0 39.476 0.524292 40 1.17188 40H38.8275C39.4754 40 39.9994 39.476 39.9994 38.8281C39.9994 38.1805 39.4754 37.6562 38.8275 37.6562Z" fill="#828282"/>
<path d="M20 7.10986C19.3536 7.10986 18.8281 7.63507 18.8281 8.28174C18.8281 8.9281 19.3536 9.45331 20 9.45331C20.6467 9.45331 21.1719 8.9281 21.1719 8.28174C21.1719 7.63507 20.6467 7.10986 20 7.10986Z" fill="#828282"/>
<path d="M39.9385 13.418C40.0987 12.9398 39.9339 12.4121 39.5302 12.11L20.7024 0.235291C20.2858 -0.0784302 19.7136 -0.0784302 19.297 0.235291L0.469217 12.11C0.0651641 12.4121 -0.0996309 12.9398 0.0605864 13.418C0.219583 13.8965 0.667276 14.2191 1.17173 14.2191H38.8277C39.3321 14.2191 39.7795 13.8965 39.9385 13.418ZM19.9996 11.8753C18.0611 11.8753 16.4839 10.2203 16.4839 8.28186C16.4839 6.34308 18.0611 4.76624 19.9996 4.76624C21.938 4.76624 23.5152 6.34308 23.5152 8.28186C23.5152 10.2203 21.938 11.8753 19.9996 11.8753Z" fill="#828282"/>
<path d="M4.6875 23.5938H9.45312V32.9684H4.6875V23.5938Z" fill="#828282"/>
<path d="M30.625 23.5938H35.3122V32.9684H30.625V23.5938Z" fill="#828282"/>
<path d="M17.6562 23.5938H22.3438V32.9684H17.6562V23.5938Z" fill="#828282"/>
<path d="M37.6556 20.0781V16.5625H2.34375V20.0781C2.34375 20.7257 2.86774 21.25 3.51562 21.25H36.4838C37.1317 21.25 37.6556 20.7257 37.6556 20.0781Z" fill="#828282"/>
</svg>
