<svg width="20" height="22" viewBox="0 0 20 22" fill="none" xmlns="http://www.w3.org/2000/svg">
    <path d="M0.374023 11.5474V7.31145H3.48573V8.31H1.43479V8.95144H3.29181V9.87724H1.43479V10.5489H3.51299V11.5474H0.374023Z" fill="#5080CD"/>
    <path d="M4.05994 11.5474V7.31145H6.84501V8.33972H5.13187V11.547L4.05994 11.5474Z" fill="#5080CD"/>
    <path d="M7.29858 11.5474V7.31145H8.95631C9.45021 7.31145 9.84178 7.44364 10.131 7.70803C10.4203 7.97241 10.5649 8.34046 10.5649 8.81215C10.5649 9.29657 10.4119 9.67185 10.106 9.93802C9.80007 10.2042 9.39793 10.3373 8.89957 10.3373H8.37052V11.5474H7.29858ZM8.37097 9.41811H8.87946C9.071 9.41811 9.22113 9.36754 9.32986 9.2664C9.38496 9.21333 9.42801 9.14919 9.45614 9.07828C9.48426 9.00736 9.49681 8.9313 9.49295 8.85518C9.49295 8.6739 9.43859 8.53564 9.32986 8.44041C9.22113 8.34519 9.06921 8.29787 8.8741 8.29846H8.37052L8.37097 9.41811Z" fill="#5080CD"/>
    <path d="M11.0179 11.5474V7.31145H12.0903V8.89688H13.4665V7.31145H14.5389V11.5474H13.4665V9.93668H12.0903V11.5461L11.0179 11.5474Z" fill="#5080CD"/>
    <path d="M0.369141 15.0532V12.856H1.39684C1.64111 12.856 1.82356 12.922 1.94421 13.0539C2.03232 13.1532 2.07856 13.2823 2.07334 13.4145C2.07816 13.5175 2.05106 13.6195 1.9957 13.7068C1.94033 13.794 1.85936 13.8623 1.76369 13.9025C1.87951 13.9391 1.98242 14.0077 2.06038 14.1003C2.14127 14.222 2.17576 14.3683 2.15766 14.513C2.13956 14.6577 2.07005 14.7912 1.96163 14.8895C1.82759 14.9974 1.64126 15.0514 1.40265 15.0514L0.369141 15.0532ZM0.910696 13.7317H1.26056C1.43631 13.7317 1.52419 13.6658 1.52419 13.5339C1.52419 13.4085 1.44019 13.3458 1.27218 13.3458H0.910696V13.7317ZM0.910696 14.5635H1.34054C1.51927 14.5635 1.60864 14.4944 1.60864 14.3563C1.60864 14.2247 1.51793 14.1587 1.33652 14.1584H0.912036L0.910696 14.5635Z" fill="#5080CD"/>
    <path d="M2.55054 15.0532V12.856H3.10684V13.5467H3.41068C3.6609 13.5467 3.86242 13.611 4.01524 13.7397C4.16805 13.8683 4.24461 14.053 4.24491 14.2937C4.24491 14.5303 4.17222 14.7159 4.02685 14.8505C3.88149 14.985 3.68607 15.0526 3.44062 15.0532H2.55054ZM3.10684 14.5417H3.39593C3.47404 14.5468 3.5512 14.5225 3.6122 14.4738C3.63847 14.4486 3.65888 14.418 3.672 14.3841C3.68512 14.3503 3.69063 14.314 3.68816 14.2778C3.68963 14.2432 3.68348 14.2087 3.67013 14.1768C3.65677 14.1448 3.63654 14.1162 3.61086 14.0928C3.55142 14.044 3.47562 14.0193 3.39862 14.0236H3.10684V14.5417ZM4.47994 15.0532V12.856H5.03579V15.0532H4.47994Z" fill="#5080CD"/>
    <path d="M5.52328 15.0532V12.856H7.32043V15.0532H6.76457V13.3897H6.07914V15.0532H5.52328Z" fill="#5080CD"/>
    <path d="M7.80792 15.0532V12.856H8.35841V14.0928L9.135 12.856H9.65377V15.0532H9.10372V13.8164L8.32669 15.0532H7.80792Z" fill="#5080CD"/>
    <path d="M11.1073 15.0971C10.9684 15.0991 10.8307 15.0711 10.7037 15.0149C10.5768 14.9588 10.4637 14.8758 10.3723 14.7719C10.1721 14.5552 10.0722 14.2825 10.0725 13.9539C10.064 13.6545 10.1724 13.3633 10.375 13.1413C10.4691 13.0351 10.5854 12.9505 10.7159 12.8936C10.8463 12.8367 10.9877 12.8087 11.1301 12.8117C11.4876 12.8117 11.7686 12.9665 11.9733 13.2761L11.5658 13.6212C11.4416 13.4518 11.2946 13.3671 11.1248 13.3671C11.058 13.3661 10.9919 13.381 10.9321 13.4105C10.8722 13.4399 10.8203 13.4831 10.7807 13.5365C10.6929 13.6586 10.6457 13.8048 10.6457 13.9548C10.6457 14.1048 10.6929 14.2511 10.7807 14.3731C10.8206 14.4262 10.8725 14.4691 10.9323 14.4983C10.9922 14.5275 11.0581 14.5423 11.1248 14.5413C11.2128 14.5439 11.2997 14.5202 11.3741 14.4734C11.4527 14.4189 11.5214 14.3515 11.5774 14.2742L11.9961 14.6007C11.9016 14.7473 11.7765 14.872 11.6292 14.9662C11.4713 15.0581 11.2903 15.1035 11.1073 15.0971Z" fill="#5080CD"/>
    <path d="M12.3656 15.0532V12.856H12.9219V13.7472L13.6127 12.856H14.2722L13.5126 13.8009L14.2986 15.0532H13.6284L13.1239 14.237L12.9201 14.4849V15.0532H12.3656Z" fill="#5080CD"/>
    <path d="M14.4299 15.0532L15.2838 12.8401H15.82L16.6743 15.0532H16.0782L15.9317 14.6606H15.1578L15.0135 15.0532H14.4299ZM15.3213 14.1868H15.7731L15.5496 13.5622L15.3213 14.1868Z" fill="#5080CD"/>
    <path d="M9.58534 20.5683C10.8865 20.6788 11.9629 20.0537 13.9164 18.919L14.1743 18.7695C16.4021 17.5092 17.5786 16.5985 18.1063 15.7255C18.592 14.9226 18.5791 14.0868 18.5576 12.7019C18.5505 12.2446 18.5424 11.726 18.5541 11.1515C18.5559 10.9368 18.5579 10.7298 18.5603 10.5305C18.5773 9.02666 18.5894 7.94028 18.4048 7.12361L18.3874 7.04776V6.96924C18.3874 6.44623 17.5054 5.28355 15.0255 3.71985C13.1202 2.52213 11.0179 1.5808 10.2498 1.45526L10.2265 1.45083C8.126 1.0365 2.83825 4.90028 0.848972 6.35485L0 5.21124C2.50223 3.38449 4.38248 2.15039 5.9227 1.3213C7.92851 0.243787 9.38338 -0.158117 10.4942 0.0565865C11.5702 0.237133 13.8432 1.29424 15.7922 2.52124C18.4017 4.16257 19.7547 5.63045 19.8159 6.88185C20.0214 7.84491 20.0085 8.98408 19.9911 10.5464C19.989 10.7461 19.9867 10.9531 19.9844 11.1675V11.1755C19.9732 11.7269 19.9812 12.2326 19.9879 12.6793C20.0107 14.1463 20.029 15.3054 19.3329 16.4557C18.6604 17.5647 17.3722 18.5929 14.8852 20L14.6385 20.1433C12.7453 21.243 11.4424 21.9998 9.88293 21.9998C9.74531 21.9998 9.6059 21.994 9.46381 21.9821C7.85523 21.8454 6.04111 20.9529 2.53217 18.5708L2.50983 18.5552C2.24173 18.3592 2.04513 18.2172 1.88427 18.1032C1.31367 17.6946 1.19973 17.6073 0.529491 16.9179L1.55719 15.9318C2.15773 16.5497 2.2109 16.5874 2.71895 16.9521C2.88248 17.0674 3.08311 17.2125 3.35121 17.4076C6.58222 19.5999 8.27301 20.457 9.58624 20.5683" fill="#5080CD"/>
    </svg>
