<svg width="30" height="30" viewBox="0 0 30 30" fill="none" xmlns="http://www.w3.org/2000/svg">
<path d="M24.7559 5.80078V4.39453C24.7559 1.97139 22.7845 0 20.3613 0H9.58008C7.15693 0 5.18555 1.97139 5.18555 4.39453V5.80078H24.7559Z" fill="#828282"/>
<path d="M6.94336 18.6914V25.8398V27.3633V28.2422C6.94336 29.213 7.73033 30 8.70117 30H21.2402C22.2111 30 22.998 29.213 22.998 28.2422V27.3633V25.8398V18.6914H6.94336ZM17.3145 26.1914H12.627C12.1416 26.1914 11.748 25.7979 11.748 25.3125C11.748 24.8271 12.1416 24.4336 12.627 24.4336H17.3145C17.7998 24.4336 18.1934 24.8271 18.1934 25.3125C18.1934 25.7979 17.7998 26.1914 17.3145 26.1914ZM17.3145 22.4414H12.627C12.1416 22.4414 11.748 22.0479 11.748 21.5625C11.748 21.0771 12.1416 20.6836 12.627 20.6836H17.3145C17.7998 20.6836 18.1934 21.0771 18.1934 21.5625C18.1934 22.0479 17.7998 22.4414 17.3145 22.4414Z" fill="#828282"/>
<path d="M25.5762 7.55859H4.42383C2.00068 7.55859 0.0292969 9.52998 0.0292969 11.9531V18.9844C0.0292969 21.4075 2.00068 23.3789 4.42383 23.3789H5.18555V18.6914H4.6582C4.17281 18.6914 3.7793 18.2979 3.7793 17.8125C3.7793 17.3271 4.17281 16.9336 4.6582 16.9336H6.06445H23.877H25.2832C25.7686 16.9336 26.1621 17.3271 26.1621 17.8125C26.1621 18.2979 25.7686 18.6914 25.2832 18.6914H24.7559V23.3789H25.5762C27.9993 23.3789 29.9707 21.4075 29.9707 18.9844V11.9531C29.9707 9.52998 27.9993 7.55859 25.5762 7.55859ZM7.4707 13.0664H4.6582C4.17281 13.0664 3.7793 12.6729 3.7793 12.1875C3.7793 11.7021 4.17281 11.3086 4.6582 11.3086H7.4707C7.95609 11.3086 8.34961 11.7021 8.34961 12.1875C8.34961 12.6729 7.95609 13.0664 7.4707 13.0664Z" fill="#828282"/>
</svg>
