<svg width="13" height="13" viewBox="0 0 13 13" fill="none" xmlns="http://www.w3.org/2000/svg">
<g clip-path="url(#clip0)">
<path d="M7.20913 6.14755L5.74084 4.88843L3.38477 7.2445L5.15943 6.27698C5.24245 6.23175 5.33399 6.20963 5.42524 6.20963C5.55596 6.20963 5.68589 6.25506 5.78874 6.34313L7.25872 7.60284L9.61767 5.2439L7.83864 6.2138C7.6366 6.32389 7.38379 6.29721 7.20913 6.14755Z" fill="#009688"/>
<path d="M12.9986 6.23754C12.9597 4.53686 12.262 2.95203 11.0338 1.77504C9.80743 0.59973 8.19651 -0.0297791 6.49931 0.00176079C4.80141 -0.0300767 3.19128 0.599829 1.9649 1.77504C0.736725 2.95203 0.0389786 4.53686 9.91821e-05 6.23744L0 6.2428V6.24815C0.00892638 7.98136 0.751106 9.62907 2.03938 10.7839V12.3553C2.03938 12.6603 2.25233 12.926 2.54571 12.9871C2.58915 12.9961 2.63289 13.0006 2.67643 13.0006C2.79446 13.0006 2.9105 12.9676 3.01266 12.9038L4.27554 12.1149C4.98777 12.3642 5.73094 12.4906 6.48651 12.4906H6.49603C6.53779 12.4914 6.57925 12.4918 6.6209 12.4918C8.27397 12.4917 9.83678 11.8644 11.0338 10.7173C12.262 9.5403 12.9597 7.95557 12.9986 6.2549L12.9988 6.24617L12.9986 6.23754ZM10.7755 5.16488L7.71518 8.22525C7.48161 8.45882 7.10213 8.4734 6.8513 8.25838L5.40017 7.01473L2.97993 8.33425C2.88303 8.38682 2.77819 8.41241 2.67455 8.41241C2.51099 8.41241 2.35022 8.34873 2.22743 8.22664C2.10693 8.10682 2.04028 7.94734 2.03968 7.77734C2.03918 7.60744 2.10494 7.44746 2.22466 7.32696L5.28452 4.26709C5.5181 4.03351 5.89757 4.01893 6.1484 4.23396L7.59805 5.47711L10.0183 4.15759C10.2943 4.00713 10.6441 4.0836 10.8323 4.33533C11.0204 4.58586 10.996 4.94222 10.7755 5.16488Z" fill="#009688"/>
</g>
<defs>
<clipPath id="clip0">
<rect width="13" height="13" fill="white"/>
</clipPath>
</defs>
</svg>
