<svg width="40" height="40" viewBox="0 0 40 40" fill="none" xmlns="http://www.w3.org/2000/svg">
<g clip-path="url(#clip0)">
<path d="M34.2578 0H5.74219C5.095 0 4.57031 0.524687 4.57031 1.17188V38.8281C4.57031 39.259 4.80672 39.6551 5.18594 39.8596C5.56516 40.0641 6.02602 40.044 6.38602 39.8073L9.30664 37.8869L12.2273 39.8073C12.618 40.0643 13.1241 40.0643 13.5149 39.8073L16.4355 37.8869L19.3562 39.8073C19.747 40.0643 20.253 40.0643 20.6438 39.8073L23.5645 37.8869L26.4851 39.8073C26.8759 40.0643 27.382 40.0643 27.7727 39.8073L30.6934 37.8869L33.614 39.8073C33.8088 39.9354 34.033 40.0001 34.2579 40.0001C34.4487 40.0001 34.64 39.9535 34.8141 39.8597C35.1933 39.6552 35.4297 39.2591 35.4297 38.8282V1.17188C35.4297 0.524687 34.905 0 34.2578 0ZM10.4297 4.6875C11.0752 4.6875 11.6016 5.21391 11.6016 5.85938C11.6016 6.50484 11.0752 7.03125 10.4297 7.03125C9.78422 7.03125 9.25781 6.50484 9.25781 5.85938C9.25781 5.21391 9.78422 4.6875 10.4297 4.6875ZM10.4297 9.375C11.0752 9.375 11.6016 9.90148 11.6016 10.5469C11.6016 11.1923 11.0752 11.7188 10.4297 11.7188C9.78422 11.7188 9.25781 11.1923 9.25781 10.5469C9.25781 9.90141 9.78422 9.375 10.4297 9.375ZM14.1016 31.1608V31.7969C14.1016 32.4441 13.5769 32.9688 12.9297 32.9688C12.2825 32.9688 11.7578 32.4441 11.7578 31.7969V31.25H11.0547C10.4075 31.25 9.88281 30.7253 9.88281 30.0781C9.88281 29.4309 10.4075 28.9062 11.0547 28.9062H13.3201C14.1359 28.9062 14.2578 28.172 14.2578 27.7344C14.2578 27.2967 14.1359 26.5625 13.3201 26.5625H12.6631C12.6422 26.5625 12.6218 26.5605 12.6012 26.5594C12.5805 26.5605 12.5602 26.5625 12.5392 26.5625C10.6378 26.5625 9.25773 25.084 9.25773 23.0469C9.25773 21.3013 10.2715 19.9669 11.7577 19.6204V18.9844C11.7577 18.3372 12.2824 17.8125 12.9296 17.8125C13.5768 17.8125 14.1015 18.3372 14.1015 18.9844V19.5312H14.8046C15.4518 19.5312 15.9765 20.0559 15.9765 20.7031C15.9765 21.3503 15.4518 21.875 14.8046 21.875H12.5392C11.7234 21.875 11.6015 22.6092 11.6015 23.0469C11.6015 23.4845 11.7234 24.2188 12.5392 24.2188C12.5602 24.2188 12.5805 24.2208 12.6012 24.2219C12.6218 24.2208 12.6422 24.2188 12.6631 24.2188H13.3201C15.2215 24.2188 16.6016 25.6973 16.6016 27.7344C16.6016 29.4798 15.5879 30.8143 14.1016 31.1608ZM29.5703 31.7969H20.0391C19.3919 31.7969 18.8672 31.2722 18.8672 30.625C18.8672 29.9778 19.3919 29.4531 20.0391 29.4531H29.5703C30.2175 29.4531 30.7422 29.9778 30.7422 30.625C30.7422 31.2722 30.2175 31.7969 29.5703 31.7969ZM29.5703 26.5625H20.0391C19.3919 26.5625 18.8672 26.0378 18.8672 25.3906C18.8672 24.7434 19.3919 24.2188 20.0391 24.2188H29.5703C30.2175 24.2188 30.7422 24.7434 30.7422 25.3906C30.7422 26.0378 30.2175 26.5625 29.5703 26.5625ZM29.5703 21.3281H20.0391C19.3919 21.3281 18.8672 20.8034 18.8672 20.1562C18.8672 19.5091 19.3919 18.9844 20.0391 18.9844H29.5703C30.2175 18.9844 30.7422 19.5091 30.7422 20.1562C30.7422 20.8034 30.2175 21.3281 29.5703 21.3281ZM29.5703 11.7188H15.1172C14.47 11.7188 13.9453 11.1941 13.9453 10.5469C13.9453 9.89969 14.47 9.375 15.1172 9.375H29.5703C30.2175 9.375 30.7422 9.89969 30.7422 10.5469C30.7422 11.1941 30.2175 11.7188 29.5703 11.7188ZM29.5703 7.03125H15.1172C14.47 7.03125 13.9453 6.50656 13.9453 5.85938C13.9453 5.21219 14.47 4.6875 15.1172 4.6875H29.5703C30.2175 4.6875 30.7422 5.21219 30.7422 5.85938C30.7422 6.50656 30.2175 7.03125 29.5703 7.03125Z" fill="#495CFF"/>
</g>
<defs>
<clipPath id="clip0">
<rect width="40" height="40" fill="white"/>
</clipPath>
</defs>
</svg>
