<svg width="13" height="13" viewBox="0 0 13 13" fill="none" xmlns="http://www.w3.org/2000/svg">
<path d="M9.16602 2.31055H9.92773V4.5957H9.16602V2.31055Z" fill="#009688"/>
<path d="M10.6895 1.54883H11.4512V5.35742H10.6895V1.54883Z" fill="#009688"/>
<path d="M12.2383 2.31055H13V4.5957H12.2383V2.31055Z" fill="#009688"/>
<path d="M0 2.31055H0.761719V4.5957H0V2.31055Z" fill="#009688"/>
<path d="M1.54883 1.54883H2.31055V5.35742H1.54883V1.54883Z" fill="#009688"/>
<path d="M3.07227 2.31055H3.83398V4.5957H3.07227V2.31055Z" fill="#009688"/>
<path d="M9.16602 7.26172C9.16602 8.60117 8.16943 9.70249 6.88086 9.88925V9.12743C7.749 8.95049 8.4043 8.18124 8.4043 7.26172V6.88086H6.88086V6.11914H8.4043V5.35742H6.88086V4.5957H8.4043V3.83398H6.88086V3.07227H8.4043V2.69141C8.4043 1.64146 7.54994 0.787109 6.5 0.787109C5.45006 0.787109 4.5957 1.64146 4.5957 2.69141V3.07227H6.11914V3.83398H4.5957V4.5957H6.11914V5.35742H4.5957V6.11914H6.11914V6.88086H4.5957V7.26172C4.5957 8.18124 5.251 8.95049 6.11914 9.12743V9.88925C4.83057 9.70249 3.83398 8.60117 3.83398 7.26172V6.11914H3.07227V7.26172C3.07227 9.02151 4.40993 10.4587 6.11914 10.651V11.4512H4.5957V12.2129H8.4043V11.4512H6.88086V10.651C8.59007 10.4587 9.92773 9.02151 9.92773 7.26172V6.11914H9.16602V7.26172Z" fill="#009688"/>
</svg>
