<svg width="30" height="30" viewBox="0 0 30 30" fill="none" xmlns="http://www.w3.org/2000/svg">
<g clip-path="url(#clip0)">
<path d="M25.4354 0C25.0754 0 24.7832 0.292194 24.7832 0.652194V18.9131C24.7832 19.2731 25.0754 19.5653 25.4354 19.5653C25.7954 19.5653 26.0876 19.2731 26.0876 18.9131V0.652194C26.0876 0.292194 25.7954 0 25.4354 0Z" fill="url(#paint0_linear)"/>
<path d="M25.4354 26.0869C25.0754 26.0869 24.7832 26.3791 24.7832 26.7391V29.3478C24.7832 29.7078 25.0754 30 25.4354 30C25.7954 30 26.0876 29.7078 26.0876 29.3478V26.7391C26.0876 26.3791 25.7954 26.0869 25.4354 26.0869Z" fill="url(#paint1_linear)"/>
<path d="M4.5643 10.4348C4.2043 10.4348 3.91211 10.727 3.91211 11.087V29.3478C3.91211 29.7078 4.2043 30 4.5643 30C4.9243 30 5.21644 29.7078 5.21644 29.3478V11.0869C5.21644 10.7269 4.9243 10.4348 4.5643 10.4348Z" fill="url(#paint2_linear)"/>
<path d="M4.5643 0C4.2043 0 3.91211 0.292194 3.91211 0.652194V3.26091C3.91211 3.62085 4.2043 3.91304 4.5643 3.91304C4.9243 3.91304 5.2165 3.62085 5.2165 3.26085V0.652194C5.21644 0.292194 4.9243 0 4.5643 0Z" fill="url(#paint3_linear)"/>
<path d="M14.9998 18.2609C14.6398 18.2609 14.3477 18.5531 14.3477 18.9131V29.3479C14.3477 29.7079 14.6398 30 14.9998 30C15.3598 30 15.652 29.7079 15.652 29.3479V18.9131C15.652 18.5531 15.3598 18.2609 14.9998 18.2609Z" fill="url(#paint4_linear)"/>
<path d="M14.9998 0C14.6398 0 14.3477 0.292194 14.3477 0.652194V11.087C14.3477 11.447 14.6398 11.7392 14.9998 11.7392C15.3598 11.7392 15.652 11.4469 15.652 11.0869V0.652194C15.652 0.292194 15.3598 0 14.9998 0Z" fill="url(#paint5_linear)"/>
<rect x="0.75" y="3" width="7.5" height="8.25" rx="2" fill="url(#paint6_linear)"/>
<path d="M5.86956 2.6087H3.26085C1.46348 2.6087 0 4.07218 0 5.86955V8.47827C0 10.2756 1.46348 11.7391 3.26085 11.7391H5.86956C7.66693 11.7391 9.13041 10.2756 9.13041 8.47827V5.86955C9.13041 4.07218 7.66693 2.6087 5.86956 2.6087ZM7.82608 8.47827C7.82608 9.55698 6.94828 10.4348 5.86956 10.4348H3.26085C2.18213 10.4348 1.30433 9.55698 1.30433 8.47827V5.86955C1.30433 4.79084 2.18213 3.91303 3.26085 3.91303H5.86956C6.94828 3.91303 7.82608 4.79084 7.82608 5.86955V8.47827Z" fill="url(#paint7_linear)"/>
<rect x="21.75" y="18.75" width="7.5" height="8.25" rx="3" fill="url(#paint8_linear)"/>
<path d="M26.7387 18.2609H24.13C22.3326 18.2609 20.8691 19.7244 20.8691 21.5217V24.1305C20.8691 25.9278 22.3326 27.3913 24.13 27.3913H26.7387C28.5361 27.3913 29.9995 25.9278 29.9995 24.1305V21.5217C29.9996 19.7244 28.5361 18.2609 26.7387 18.2609ZM28.6952 24.1305C28.6952 25.2092 27.8174 26.087 26.7387 26.087H24.13C23.0513 26.087 22.1735 25.2092 22.1735 24.1305V21.5217C22.1735 20.443 23.0513 19.5652 24.13 19.5652H26.7387C27.8174 19.5652 28.6952 20.443 28.6952 21.5217V24.1305Z" fill="url(#paint9_linear)"/>
<rect x="11.25" y="10.5" width="7.5" height="9" rx="3.75" fill="url(#paint10_linear)"/>
<path d="M16.3051 10.4348H13.6964C11.899 10.4348 10.4355 11.8983 10.4355 13.6956V16.3043C10.4355 18.1017 11.899 19.5652 13.6964 19.5652H16.3051C18.1025 19.5652 19.566 18.1017 19.566 16.3043V13.6956C19.566 11.8983 18.1025 10.4348 16.3051 10.4348ZM18.2616 16.3043C18.2616 17.3831 17.3838 18.2609 16.3051 18.2609H13.6964C12.6177 18.2609 11.7399 17.3831 11.7399 16.3043V13.6956C11.7399 12.6169 12.6177 11.7391 13.6964 11.7391H16.3051C17.3838 11.7391 18.2616 12.6169 18.2616 13.6956V16.3043Z" fill="url(#paint11_linear)"/>
</g>
<defs>
<linearGradient id="paint0_linear" x1="25.4354" y1="0" x2="25.4354" y2="19.5653" gradientUnits="userSpaceOnUse">
<stop stop-color="#07D6C1"/>
<stop offset="0.270833" stop-color="#25B2D4"/>
<stop offset="0.703125" stop-color="#5080CD"/>
<stop offset="1" stop-color="#6169BF"/>
</linearGradient>
<linearGradient id="paint1_linear" x1="25.4354" y1="26.0869" x2="25.4354" y2="30" gradientUnits="userSpaceOnUse">
<stop stop-color="#07D6C1"/>
<stop offset="0.270833" stop-color="#25B2D4"/>
<stop offset="0.703125" stop-color="#5080CD"/>
<stop offset="1" stop-color="#6169BF"/>
</linearGradient>
<linearGradient id="paint2_linear" x1="4.56427" y1="10.4348" x2="4.56427" y2="30" gradientUnits="userSpaceOnUse">
<stop stop-color="#07D6C1"/>
<stop offset="0.270833" stop-color="#25B2D4"/>
<stop offset="0.703125" stop-color="#5080CD"/>
<stop offset="1" stop-color="#6169BF"/>
</linearGradient>
<linearGradient id="paint3_linear" x1="4.5643" y1="0" x2="4.5643" y2="3.91304" gradientUnits="userSpaceOnUse">
<stop stop-color="#07D6C1"/>
<stop offset="0.270833" stop-color="#25B2D4"/>
<stop offset="0.703125" stop-color="#5080CD"/>
<stop offset="1" stop-color="#6169BF"/>
</linearGradient>
<linearGradient id="paint4_linear" x1="14.9998" y1="18.2609" x2="14.9998" y2="30" gradientUnits="userSpaceOnUse">
<stop stop-color="#07D6C1"/>
<stop offset="0.270833" stop-color="#25B2D4"/>
<stop offset="0.703125" stop-color="#5080CD"/>
<stop offset="1" stop-color="#6169BF"/>
</linearGradient>
<linearGradient id="paint5_linear" x1="14.9998" y1="0" x2="14.9998" y2="11.7392" gradientUnits="userSpaceOnUse">
<stop stop-color="#07D6C1"/>
<stop offset="0.270833" stop-color="#25B2D4"/>
<stop offset="0.703125" stop-color="#5080CD"/>
<stop offset="1" stop-color="#6169BF"/>
</linearGradient>
<linearGradient id="paint6_linear" x1="4.5" y1="3" x2="4.5" y2="11.25" gradientUnits="userSpaceOnUse">
<stop stop-color="#07D6C1"/>
<stop offset="0.270833" stop-color="#25B2D4"/>
<stop offset="0.703125" stop-color="#5080CD"/>
<stop offset="1" stop-color="#6169BF"/>
</linearGradient>
<linearGradient id="paint7_linear" x1="4.5652" y1="2.6087" x2="4.5652" y2="11.7391" gradientUnits="userSpaceOnUse">
<stop stop-color="#07D6C1"/>
<stop offset="0.270833" stop-color="#25B2D4"/>
<stop offset="0.703125" stop-color="#5080CD"/>
<stop offset="1" stop-color="#6169BF"/>
</linearGradient>
<linearGradient id="paint8_linear" x1="25.5" y1="18.75" x2="25.5" y2="27" gradientUnits="userSpaceOnUse">
<stop stop-color="#07D6C1"/>
<stop offset="0.270833" stop-color="#25B2D4"/>
<stop offset="0.703125" stop-color="#5080CD"/>
<stop offset="1" stop-color="#6169BF"/>
</linearGradient>
<linearGradient id="paint9_linear" x1="25.4343" y1="18.2609" x2="25.4343" y2="27.3913" gradientUnits="userSpaceOnUse">
<stop stop-color="#07D6C1"/>
<stop offset="0.270833" stop-color="#25B2D4"/>
<stop offset="0.703125" stop-color="#5080CD"/>
<stop offset="1" stop-color="#6169BF"/>
</linearGradient>
<linearGradient id="paint10_linear" x1="15" y1="10.5" x2="15" y2="19.5" gradientUnits="userSpaceOnUse">
<stop stop-color="#07D6C1"/>
<stop offset="0.270833" stop-color="#25B2D4"/>
<stop offset="0.703125" stop-color="#5080CD"/>
<stop offset="1" stop-color="#6169BF"/>
</linearGradient>
<linearGradient id="paint11_linear" x1="15.0007" y1="10.4348" x2="15.0007" y2="19.5652" gradientUnits="userSpaceOnUse">
<stop stop-color="#07D6C1"/>
<stop offset="0.270833" stop-color="#25B2D4"/>
<stop offset="0.703125" stop-color="#5080CD"/>
<stop offset="1" stop-color="#6169BF"/>
</linearGradient>
<clipPath id="clip0">
<rect width="30" height="30" fill="white"/>
</clipPath>
</defs>
</svg>
