<svg width="34" height="40" viewBox="0 0 34 40" fill="none" xmlns="http://www.w3.org/2000/svg">
<path d="M32.6323 28.1883C30.1123 26.0583 28.6673 22.945 28.6673 19.6467V15C28.6673 9.135 24.3107 4.28 18.6673 3.46667V1.66667C18.6673 0.745 17.9207 0 17.0007 0C16.0807 0 15.334 0.745 15.334 1.66667V3.46667C9.68899 4.28 5.33399 9.135 5.33399 15V19.6467C5.33399 22.945 3.88899 26.0583 1.35398 28.2017C0.705651 28.7567 0.333984 29.5633 0.333984 30.4167C0.333984 32.025 1.64232 33.3333 3.25065 33.3333H30.7507C32.359 33.3333 33.6673 32.025 33.6673 30.4167C33.6673 29.5633 33.2957 28.7567 32.6323 28.1883Z" fill="#495CFF"/>
<path d="M17.0022 40C20.0206 40 22.5456 37.8483 23.1256 35H10.8789C11.4589 37.8483 13.9839 40 17.0022 40Z" fill="#495CFF"/>
</svg>
