<svg width="40" height="36" viewBox="0 0 40 36" fill="none" xmlns="http://www.w3.org/2000/svg">
<path d="M31.3916 0.551758H8.60841C3.86229 0.551758 0 4.49837 0 9.34817V18.0616C0 22.9114 3.86229 26.858 8.60841 26.858H23.0091L33.4778 35.4481V26.5931C37.2644 25.6287 40 22.1424 40 18.0616V9.34817C40 4.49837 36.1377 0.551758 31.3916 0.551758ZM9.21143 17.4622C8.19216 17.4622 7.28392 17.24 6.69559 16.9215L7.12531 15.1856C7.57086 15.4567 8.49494 15.7753 9.21151 15.7753C9.94392 15.7753 10.2467 15.5202 10.2467 15.1222C10.2467 14.723 10.0074 14.5326 9.10049 14.2299C7.49159 13.6879 6.87029 12.8127 6.88612 11.8886C6.88612 10.4396 8.12882 9.34098 10.0551 9.34098C10.9633 9.34098 11.7763 9.54727 12.2536 9.78653L11.8238 11.4589C11.4735 11.2672 10.8046 11.0121 10.1356 11.0121C9.54596 11.0121 9.21151 11.2514 9.21151 11.6493C9.21151 12.0155 9.5142 12.2072 10.47 12.5416C11.9508 13.0507 12.5721 13.8002 12.588 14.9465C12.5879 16.3954 11.4416 17.4622 9.21143 17.4622ZM25.8216 17.3035H23.4644V13.0677C23.4644 11.9361 23.097 11.283 22.317 11.283C21.7603 11.283 21.3611 11.6651 21.2024 12.1278C21.1389 12.3023 21.1073 12.5575 21.1073 12.7491V17.3035H18.7501V12.9395C18.7501 11.9519 18.3998 11.283 17.6344 11.283C17.0143 11.283 16.6468 11.7616 16.504 12.1595C16.4247 12.35 16.4088 12.5733 16.4088 12.765V17.3036H14.0517V11.9997C14.0517 11.0292 14.0199 10.2003 13.9882 9.51551H16.0268L16.1379 10.5665H16.1855C16.5199 10.0734 17.2047 9.34098 18.5426 9.34098C19.546 9.34098 20.342 9.85004 20.6764 10.6618H20.7082C20.995 10.2638 21.3454 9.94523 21.7116 9.7231C22.1425 9.468 22.6198 9.34106 23.1936 9.34106C24.6901 9.34106 25.8217 10.3921 25.8217 12.7163V17.3035H25.8216ZM29.8157 17.4622C28.7964 17.4622 27.8882 17.24 27.2998 16.9215L27.7296 15.1856C28.1751 15.4567 29.0992 15.7753 29.8158 15.7753C30.5482 15.7753 30.8509 15.5202 30.8509 15.1222C30.8509 14.723 30.6117 14.5326 29.7047 14.2299C28.0958 13.6879 27.4744 12.8127 27.4903 11.8886C27.4903 10.4396 28.733 9.34098 30.6593 9.34098C31.5674 9.34098 32.3793 9.54727 32.8577 9.78653L32.428 11.4589C32.0776 11.2672 31.4087 11.0121 30.7398 11.0121C30.1501 11.0121 29.8157 11.2514 29.8157 11.6493C29.8157 12.0155 30.1184 12.2072 31.0742 12.5416C32.5549 13.0507 33.1762 13.8002 33.1922 14.9465C33.1922 16.3954 32.0459 17.4622 29.8157 17.4622Z" fill="#495CFF"/>
</svg>
