<svg width="30" height="40" viewBox="0 0 30 40" fill="none" xmlns="http://www.w3.org/2000/svg">
<path d="M15.0005 25.2632C18.5795 25.2632 21.3163 22.5263 21.3163 18.9474V6.31579C21.3163 2.73684 18.5795 0 15.0005 0C11.4216 0 8.68472 2.73684 8.68472 6.31579V18.9474C8.68472 22.5263 11.4216 25.2632 15.0005 25.2632ZM26.1584 18.9474C26.1584 25.2632 20.8953 29.6842 15.0005 29.6842C9.10578 29.6842 3.84262 25.2632 3.84262 18.9474H0.263672C0.263672 26.1053 5.94788 32 12.8953 33.0526V40H17.1058V33.0526C24.0531 32 29.7374 26.1053 29.7374 18.9474H26.1584Z" fill="#828282"/>
</svg>
