<?xml version="1.0" encoding="utf-8"?>
<!-- Generator: Adobe Illustrator 23.1.0, SVG Export Plug-In . SVG Version: 6.00 Build 0)  -->
<svg version="1.1" id="_x31_" xmlns="http://www.w3.org/2000/svg" xmlns:xlink="http://www.w3.org/1999/xlink" x="0px" y="0px"
	 viewBox="0 0 17 17" style="enable-background:new 0 0 17 17;" xml:space="preserve" height="17" width="17px">
	<path d="M13.5,17c-0.1,0-0.1,0-0.2,0l-4.9-2.7L3.6,17c-0.1,0.1-0.3,0.1-0.4,0c-0.1-0.1-0.2-0.2-0.1-0.3L4,10.9l-3.9-4
		C0,6.7,0,6.6,0,6.5c0-0.1,0.2-0.2,0.3-0.2l5.4-0.8l2.4-5.2C8.3,0,8.7,0,8.8,0.2l2.4,5.2l5.4,0.8c0.1,0,0.2,0.1,0.3,0.2
		c0,0.1,0,0.3-0.1,0.4l-3.9,4l0.9,5.7c0,0.1,0,0.3-0.1,0.3C13.7,17,13.6,17,13.5,17z"/>
	<path d="M8.5,13.5c0.1,0,0.1,0,0.2,0l4.4,2.4l-0.8-5.2c0-0.1,0-0.2,0.1-0.3l3.6-3.7L11,6.1c-0.1,0-0.2-0.1-0.3-0.2L8.5,1.2L6.3,5.9
		C6.3,6,6.2,6,6,6.1L1.1,6.8l3.6,3.7c0.1,0.1,0.1,0.2,0.1,0.3L3.9,16l4.4-2.4C8.4,13.5,8.4,13.5,8.5,13.5z"/>
</svg>
